dancing-script_bold.sfdir

StartChar: exclam
Encoding: 33 33 4
Width: 295
GlyphClass: 2
Flags: W
LayerCount: 2
Fore
SplineSet
0 24 m 0,0,1
 0 42 0 42 20.5 56.5 c 128,-1,2
 41 71 41 71 65 71 c 0,3,4
 99 71 99 71 99 40 c 0,5,6
 99 22 99 22 80.5 6 c 128,-1,7
 62 -10 62 -10 40 -10 c 0,8,9
 0 -10 0 -10 0 24 c 0,0,1
61 108 m 1,10,11
 61 157 61 157 115 297 c 1,12,-1
 154 396 l 1,13,-1
 192 490 l 2,14,15
 216 549 216 549 233 582 c 128,-1,16
 250 615 250 615 270.5 651 c 128,-1,17
 291 687 291 687 308.5 703.5 c 128,-1,18
 326 720 326 720 341 720 c 0,19,20
 352 720 352 720 360.5 711 c 128,-1,21
 369 702 369 702 369 690 c 0,22,23
 369 650 369 650 251 419.5 c 128,-1,24
 133 189 133 189 73 104 c 1,25,-1
 61 108 l 1,10,11
EndSplineSet
EndChar

StartChar: quotedbl
Encoding: 34 34 5
Width: 270
GlyphClass: 2
Flags: W
LayerCount: 2
Fore
SplineSet
151 620 m 0,0,1
 151 652 151 652 171 687 c 128,-1,2
 191 722 191 722 214 722 c 0,3,4
 227 722 227 722 236 711.5 c 128,-1,5
 245 701 245 701 245 683 c 1,6,7
 224 663 224 663 211.5 641.5 c 128,-1,8
 199 620 199 620 179 576 c 1,9,10
 151 590 151 590 151 620 c 0,0,1
266 617 m 0,11,12
 266 650 266 650 285 686 c 128,-1,13
 304 722 304 722 328 722 c 0,14,15
 342 722 342 722 350.5 711.5 c 128,-1,16
 359 701 359 701 359 683 c 1,17,18
 351 676 351 676 344.5 668 c 128,-1,19
 338 660 338 660 333.5 654 c 128,-1,20
 329 648 329 648 323 636 c 2,21,-1
 314 619 l 1,22,-1
 303 598 l 2,23,24
 295 583 295 583 293 576 c 1,25,26
 266 590 266 590 266 617 c 0,11,12
EndSplineSet
EndChar

StartChar: numbersign
Encoding: 35 35 6
Width: 720
GlyphClass: 2
Flags: W
LayerCount: 2
Fore
SplineSet
19 150 m 1,0,1
 23 228 23 228 245 233 c 1,2,-1
 249 256 l 2,3,4
 252 274 252 274 254 281 c 1,5,6
 238 281 238 281 121 272 c 2,7,-1
 55 267 l 1,8,9
 60 344 60 344 270 349 c 1,10,11
 283 412 283 412 303.5 522.5 c 128,-1,12
 324 633 324 633 332 670 c 0,13,14
 335 683 335 683 338 691 c 128,-1,15
 341 699 341 699 355 708 c 128,-1,16
 369 717 369 717 393 722 c 1,17,18
 389 704 389 704 380 652 c 2,19,-1
 354 510 l 1,20,-1
 325 351 l 1,21,22
 400 349 400 349 447 347 c 1,23,24
 464 428 464 428 486 546 c 128,-1,25
 508 664 508 664 509 670 c 0,26,27
 511 683 511 683 515 691 c 128,-1,28
 519 699 519 699 533 708 c 128,-1,29
 547 717 547 717 571 722 c 1,30,31
 566 703 566 703 556 649 c 2,32,-1
 531 505 l 2,33,34
 515 416 515 416 501 344 c 1,35,36
 524 343 524 343 571 340.5 c 128,-1,37
 618 338 618 338 657 336 c 128,-1,38
 696 334 696 334 725 334 c 1,39,40
 700 313 700 313 675 302 c 128,-1,41
 650 291 650 291 636 289.5 c 128,-1,42
 622 288 622 288 600 288 c 0,43,44
 577 288 577 288 541 287.5 c 128,-1,45
 505 287 505 287 491 287 c 1,46,47
 490 280 490 280 485 258 c 128,-1,48
 480 236 480 236 479 226 c 1,49,50
 659 217 659 217 687 217 c 1,51,52
 662 196 662 196 637.5 185 c 128,-1,53
 613 174 613 174 599.5 172.5 c 128,-1,54
 586 171 586 171 564 171 c 0,55,56
 499 171 499 171 468 170 c 1,57,58
 433 -13 433 -13 398 -87.5 c 128,-1,59
 363 -162 363 -162 292 -162 c 1,60,61
 349 -94 349 -94 408 167 c 1,62,-1
 289 167 l 1,63,64
 273 90 273 90 263.5 48 c 128,-1,65
 254 6 254 6 238.5 -41 c 128,-1,66
 223 -88 223 -88 207.5 -110 c 128,-1,67
 192 -132 192 -132 168.5 -147 c 128,-1,68
 145 -162 145 -162 114 -162 c 1,69,70
 170 -95 170 -95 230 165 c 1,71,72
 223 165 223 165 85 155 c 2,73,-1
 19 150 l 1,0,1
302 233 m 1,74,75
 364 233 364 233 422 230 c 1,76,-1
 434 286 l 1,77,78
 350 286 350 286 312 284 c 1,79,-1
 302 233 l 1,74,75
EndSplineSet
EndChar

StartChar: dollar
Encoding: 36 36 7
Width: 565
GlyphClass: 2
Flags: W
LayerCount: 2
Fore
SplineSet
13 98 m 0,0,1
 13 163 13 163 60.5 198.5 c 128,-1,2
 108 234 108 234 167 234 c 1,3,4
 102 168 102 168 102 96 c 0,5,6
 102 51 102 51 133 23.5 c 128,-1,7
 164 -4 164 -4 220 -11 c 1,8,9
 249 92 249 92 286 260 c 1,10,11
 251 279 251 279 232 291 c 128,-1,12
 213 303 213 303 188 324.5 c 128,-1,13
 163 346 163 346 151.5 372 c 128,-1,14
 140 398 140 398 140 431 c 0,15,16
 140 513 140 513 204.5 575.5 c 128,-1,17
 269 638 269 638 364 653 c 1,18,19
 364 676 364 676 382.5 696 c 128,-1,20
 401 716 401 716 430 720 c 1,21,22
 418 666 418 666 416 656 c 1,23,24
 536 653 536 653 536 547 c 0,25,26
 536 465 536 465 485 381 c 1,27,28
 463 385 463 385 450.5 399 c 128,-1,29
 438 413 438 413 438 430 c 0,30,31
 438 446 438 446 456 499.5 c 128,-1,32
 474 553 474 553 474 574 c 0,33,34
 474 617 474 617 409 618 c 1,35,-1
 355 323 l 1,36,37
 390 305 390 305 411 292.5 c 128,-1,38
 432 280 432 280 457 258.5 c 128,-1,39
 482 237 482 237 494 209 c 128,-1,40
 506 181 506 181 506 146 c 0,41,42
 506 59 506 59 438.5 5.5 c 128,-1,43
 371 -48 371 -48 271 -57 c 1,44,45
 231 -162 231 -162 150 -162 c 1,46,47
 181 -122 181 -122 204 -57 c 1,48,49
 122 -50 122 -50 67.5 -10.5 c 128,-1,50
 13 29 13 29 13 98 c 0,0,1
218 455 m 0,51,52
 218 394 218 394 306 349 c 1,53,54
 348 567 348 567 356 612 c 1,55,56
 294 597 294 597 256 551 c 128,-1,57
 218 505 218 505 218 455 c 0,51,52
286 -10 m 1,58,59
 349 -2 349 -2 385 32 c 128,-1,60
 421 66 421 66 421 116 c 0,61,62
 421 154 421 154 399.5 181 c 128,-1,63
 378 208 378 208 338 232 c 1,64,65
 302 42 302 42 286 -10 c 1,58,59
EndSplineSet
EndChar

StartChar: percent
Encoding: 37 37 8
Width: 740
GlyphClass: 2
Flags: W
LayerCount: 2
Fore
SplineSet
88 -87 m 1,0,1
 161 -16 161 -16 320.5 257 c 128,-1,2
 480 530 480 530 534 671 c 0,3,4
 540 687 540 687 570 703.5 c 128,-1,5
 600 720 600 720 626 720 c 1,6,7
 614 671 614 671 490.5 436 c 128,-1,8
 367 201 367 201 300 97 c 0,9,10
 241 6 241 6 191.5 -40.5 c 128,-1,11
 142 -87 142 -87 88 -87 c 1,0,1
109 453 m 0,12,13
 109 528 109 528 152.5 599 c 128,-1,14
 196 670 196 670 262 670 c 0,15,16
 305 670 305 670 332 640 c 128,-1,17
 359 610 359 610 359 561 c 0,18,19
 359 488 359 488 314 413.5 c 128,-1,20
 269 339 269 339 203 339 c 0,21,22
 158 339 158 339 133.5 372 c 128,-1,23
 109 405 109 405 109 453 c 0,12,13
180 451 m 0,24,25
 180 391 180 391 209 391 c 0,26,27
 242 391 242 391 267 449.5 c 128,-1,28
 292 508 292 508 292 566 c 0,29,30
 292 620 292 620 264 620 c 0,31,32
 227 620 227 620 203.5 562.5 c 128,-1,33
 180 505 180 505 180 451 c 0,24,25
454 112 m 0,34,35
 454 188 454 188 497 258.5 c 128,-1,36
 540 329 540 329 607 329 c 0,37,38
 650 329 650 329 676.5 299 c 128,-1,39
 703 269 703 269 703 220 c 0,40,41
 703 175 703 175 685 125 c 128,-1,42
 667 75 667 75 630 37 c 128,-1,43
 593 -1 593 -1 548 -1 c 0,44,45
 502 -1 502 -1 478 31.5 c 128,-1,46
 454 64 454 64 454 112 c 0,34,35
524 108 m 0,47,48
 524 51 524 51 553 51 c 0,49,50
 586 51 586 51 611.5 109 c 128,-1,51
 637 167 637 167 637 225 c 0,52,53
 637 280 637 280 608 280 c 0,54,55
 570 280 570 280 547 221.5 c 128,-1,56
 524 163 524 163 524 108 c 0,47,48
EndSplineSet
EndChar

StartChar: ampersand
Encoding: 38 38 9
Width: 675
GlyphClass: 2
Flags: W
LayerCount: 2
Fore
SplineSet
17 99 m 0,0,1
 17 191 17 191 90 267.5 c 128,-1,2
 163 344 163 344 272 359 c 1,3,4
 200 423 200 423 200 509 c 0,5,6
 200 593 200 593 261.5 656 c 128,-1,7
 323 719 323 719 418 719 c 0,8,9
 478 719 478 719 509.5 690.5 c 128,-1,10
 541 662 541 662 541 608 c 0,11,12
 541 551 541 551 514 500.5 c 128,-1,13
 487 450 487 450 458 450 c 0,14,15
 433 450 433 450 410 491 c 1,16,17
 496 561 496 561 496 622 c 0,18,19
 496 651 496 651 479 668 c 128,-1,20
 462 685 462 685 429 685 c 0,21,22
 364 685 364 685 327 631.5 c 128,-1,23
 290 578 290 578 290 501 c 0,24,25
 290 396 290 396 363 339 c 1,26,27
 259 323 259 323 193 250.5 c 128,-1,28
 127 178 127 178 127 99 c 0,29,30
 127 45 127 45 159.5 3 c 128,-1,31
 192 -39 192 -39 257 -39 c 0,32,33
 362 -39 362 -39 448 52 c 128,-1,34
 534 143 534 143 549 258 c 1,35,36
 516 256 516 256 413 238 c 1,37,38
 414 323 414 323 526 323 c 0,39,40
 558 323 558 323 611 314.5 c 128,-1,41
 664 306 664 306 697 306 c 1,42,43
 683 276 683 276 671 268 c 128,-1,44
 659 260 659 260 644 260 c 0,45,46
 631 260 631 260 613.5 259.5 c 128,-1,47
 596 259 596 259 588 259 c 1,48,49
 574 121 574 121 468.5 17 c 128,-1,50
 363 -87 363 -87 231 -87 c 0,51,52
 136 -87 136 -87 76.5 -33 c 128,-1,53
 17 21 17 21 17 99 c 0,0,1
EndSplineSet
EndChar

StartChar: quotesingle
Encoding: 39 39 10
Width: 156
GlyphClass: 2
Flags: W
LayerCount: 2
Fore
SplineSet
151 620 m 0,0,1
 151 652 151 652 171 687 c 128,-1,2
 191 722 191 722 214 722 c 0,3,4
 226 722 226 722 236 712 c 128,-1,5
 246 702 246 702 246 689 c 1,6,-1
 245 683 l 1,7,8
 215 654 215 654 189 598 c 2,9,-1
 179 576 l 1,10,11
 151 590 151 590 151 620 c 0,0,1
EndSplineSet
EndChar

StartChar: parenleft
Encoding: 40 40 11
Width: 295
GlyphClass: 2
Flags: W
LayerCount: 2
Fore
SplineSet
77 192 m 0,0,1
 77 304 77 304 112 407 c 128,-1,2
 147 510 147 510 197.5 576 c 128,-1,3
 248 642 248 642 301 681 c 128,-1,4
 354 720 354 720 393 720 c 1,5,6
 272 626 272 626 211.5 480.5 c 128,-1,7
 151 335 151 335 151 181 c 0,8,9
 151 24 151 24 206 -58 c 1,10,11
 196 -78 196 -78 178 -87 c 1,12,13
 136 -64 136 -64 106.5 15.5 c 128,-1,14
 77 95 77 95 77 192 c 0,0,1
EndSplineSet
EndChar

StartChar: parenright
Encoding: 41 41 12
Width: 315
GlyphClass: 2
Flags: W
LayerCount: 2
Fore
SplineSet
-34 -53 m 1,0,1
 82 24 82 24 155 155 c 128,-1,2
 228 286 228 286 228 454 c 0,3,4
 228 529 228 529 209.5 593.5 c 128,-1,5
 191 658 191 658 139 725 c 1,6,7
 196 710 196 710 245.5 630 c 128,-1,8
 295 550 295 550 295 433 c 0,9,10
 295 348 295 348 272 264.5 c 128,-1,11
 249 181 249 181 214 119.5 c 128,-1,12
 179 58 179 58 138.5 10 c 128,-1,13
 98 -38 98 -38 61.5 -62.5 c 128,-1,14
 25 -87 25 -87 0 -87 c 0,15,16
 -14 -87 -14 -87 -34 -53 c 1,0,1
EndSplineSet
EndChar

StartChar: asterisk
Encoding: 42 42 13
Width: 416
GlyphClass: 2
Flags: W
LayerCount: 2
Fore
SplineSet
127 589 m 1,0,1
 216 592 216 592 242 594 c 1,2,3
 197 661 197 661 197 696 c 0,4,5
 197 709 197 709 207.5 720 c 128,-1,6
 218 731 218 731 218 733 c 1,7,8
 229 714 229 714 244.5 685 c 128,-1,9
 260 656 260 656 269 640.5 c 128,-1,10
 278 625 278 625 288 611 c 1,11,12
 322 715 322 715 394 731 c 1,13,14
 384 702 384 702 359 653 c 128,-1,15
 334 604 334 604 330 595 c 1,16,17
 425 595 425 595 475 555 c 1,18,-1
 340 544 l 1,19,20
 357 521 357 521 364.5 508.5 c 128,-1,21
 372 496 372 496 380.5 468 c 128,-1,22
 389 440 389 440 390 404 c 1,23,24
 351 446 351 446 291 531 c 1,25,26
 260 475 260 475 233.5 446 c 128,-1,27
 207 417 207 417 171 415 c 1,28,29
 185 435 185 435 197 455.5 c 128,-1,30
 209 476 209 476 223.5 504.5 c 128,-1,31
 238 533 238 533 243 543 c 1,32,33
 194 543 194 543 164.5 552 c 128,-1,34
 135 561 135 561 127 589 c 1,0,1
EndSplineSet
EndChar

StartChar: plus
Encoding: 43 43 14
Width: 441
GlyphClass: 2
Flags: W
LayerCount: 2
Fore
SplineSet
13 136 m 1,0,1
 33 196 33 196 177 199 c 1,2,-1
 177 240 l 2,3,4
 177 297 177 297 216 356 c 1,5,6
 228 260 228 260 230 199 c 1,7,8
 300 198 300 198 408 189 c 1,9,10
 350 148 350 148 282 148 c 2,11,-1
 231 148 l 1,12,13
 230 77 230 77 217.5 37 c 128,-1,14
 205 -3 205 -3 171 -7 c 1,15,16
 179 58 179 58 179 148 c 1,17,18
 96 148 96 148 13 136 c 1,0,1
EndSplineSet
EndChar

StartChar: hyphen
Encoding: 45 45 16
Width: 507
GlyphClass: 2
Flags: W
LayerCount: 2
Fore
SplineSet
55 142 m 1,0,1
 61 163 61 163 82 176.5 c 128,-1,2
 103 190 103 190 131 195.5 c 128,-1,3
 159 201 159 201 177.5 203 c 128,-1,4
 196 205 196 205 214 205 c 0,5,6
 304 205 304 205 430 198 c 1,7,8
 420 175 420 175 384.5 159.5 c 128,-1,9
 349 144 349 144 308 144 c 0,10,11
 297 144 297 144 254 147 c 128,-1,12
 211 150 211 150 183 150 c 0,13,14
 115 150 115 150 55 142 c 1,0,1
EndSplineSet
EndChar

StartChar: period
Encoding: 46 46 17
Width: 242
GlyphClass: 2
Flags: W
LayerCount: 2
Fore
SplineSet
28 28 m 0,0,1
 28 45 28 45 49.5 63 c 128,-1,2
 71 81 71 81 91 81 c 0,3,4
 124 81 124 81 124 50 c 0,5,6
 124 34 124 34 109.5 12 c 128,-1,7
 95 -10 95 -10 72 -10 c 0,8,9
 50 -10 50 -10 39 1.5 c 128,-1,10
 28 13 28 13 28 28 c 0,0,1
EndSplineSet
EndChar

StartChar: slash
Encoding: 47 47 18
Width: 355
GlyphClass: 2
Flags: W
LayerCount: 2
Fore
SplineSet
-63 -162 m 1,0,1
 46 -57 46 -57 329 671 c 0,2,3
 335 688 335 688 367 703.5 c 128,-1,4
 399 719 399 719 435 719 c 1,5,6
 410 653 410 653 140 24 c 0,7,8
 103 -63 103 -63 47 -112.5 c 128,-1,9
 -9 -162 -9 -162 -63 -162 c 1,0,1
EndSplineSet
EndChar

StartChar: zero
Encoding: 48 48 19
Width: 660
GlyphClass: 2
Flags: W
LayerCount: 2
Fore
SplineSet
63 185 m 0,0,1
 63 268 63 268 89.5 360.5 c 128,-1,2
 116 453 116 453 162 533.5 c 128,-1,3
 208 614 208 614 280.5 667 c 128,-1,4
 353 720 353 720 436 720 c 0,5,6
 535 720 535 720 594 647 c 128,-1,7
 653 574 653 574 653 442 c 0,8,9
 653 351 653 351 624 257 c 128,-1,10
 595 163 595 163 545.5 86.5 c 128,-1,11
 496 10 496 10 424 -38.5 c 128,-1,12
 352 -87 352 -87 273 -87 c 0,13,14
 171 -87 171 -87 117 -10.5 c 128,-1,15
 63 66 63 66 63 185 c 0,0,1
163 168 m 0,16,17
 163 73 163 73 196 17 c 128,-1,18
 229 -39 229 -39 287 -39 c 0,19,20
 359 -39 359 -39 424 47.5 c 128,-1,21
 489 134 489 134 525.5 253.5 c 128,-1,22
 562 373 562 373 562 481 c 0,23,24
 562 572 562 572 531.5 625.5 c 128,-1,25
 501 679 501 679 436 679 c 0,26,27
 373 679 373 679 318.5 625 c 128,-1,28
 264 571 264 571 231.5 490 c 128,-1,29
 199 409 199 409 181 324 c 128,-1,30
 163 239 163 239 163 168 c 0,16,17
EndSplineSet
EndChar

StartChar: one
Encoding: 49 49 20
Width: 392
GlyphClass: 2
Flags: W
LayerCount: 2
Fore
SplineSet
-34 -31 m 1,0,1
 -25 -31 -25 -31 -9 -32.5 c 128,-1,2
 7 -34 7 -34 18 -34 c 0,3,4
 52 -34 52 -34 122 -24 c 1,5,6
 148 35 148 35 173 147 c 128,-1,7
 198 259 198 259 221.5 391.5 c 128,-1,8
 245 524 245 524 254 564 c 1,9,10
 168 507 168 507 142 507 c 0,11,12
 113 507 113 507 113 548 c 1,13,14
 146 564 146 564 214 614.5 c 128,-1,15
 282 665 282 665 339 719 c 1,16,17
 352 707 352 707 352 680 c 0,18,19
 352 663 352 663 342.5 627.5 c 128,-1,20
 333 592 333 592 330 572 c 0,21,22
 311 450 311 450 298 376.5 c 128,-1,23
 285 303 285 303 254.5 187 c 128,-1,24
 224 71 224 71 187 -15 c 1,25,26
 211 -13 211 -13 222 -13 c 0,27,28
 313 -13 313 -13 329 -84 c 1,29,30
 280 -78 280 -78 237 -78 c 0,31,32
 205 -78 205 -78 145 -82.5 c 128,-1,33
 85 -87 85 -87 72 -87 c 0,34,35
 10 -87 10 -87 -34 -31 c 1,0,1
EndSplineSet
EndChar

StartChar: two
Encoding: 50 50 21
Width: 599
GlyphClass: 2
Flags: W
LayerCount: 2
Fore
SplineSet
-6 7 m 0,0,1
 -6 60 -6 60 78 60 c 0,2,3
 119 60 119 60 187 47 c 1,4,5
 286 133 286 133 369 278.5 c 128,-1,6
 452 424 452 424 452 541 c 0,7,8
 452 609 452 609 422.5 644 c 128,-1,9
 393 679 393 679 344 679 c 0,10,11
 280 679 280 679 245 625 c 128,-1,12
 210 571 210 571 210 501 c 0,13,14
 210 458 210 458 229 414 c 1,15,-1
 210 416 l 2,16,17
 133 424 133 424 133 512 c 0,18,19
 133 595 133 595 196.5 657.5 c 128,-1,20
 260 720 260 720 355 720 c 0,21,22
 442 720 442 720 489.5 665 c 128,-1,23
 537 610 537 610 537 523 c 0,24,25
 537 405 537 405 453 265.5 c 128,-1,26
 369 126 369 126 254 33 c 1,27,28
 403 0 403 0 460 0 c 0,29,30
 484 0 484 0 501.5 6.5 c 128,-1,31
 519 13 519 13 553 31 c 1,32,33
 537 -31 537 -31 509.5 -59 c 128,-1,34
 482 -87 482 -87 438 -87 c 0,35,36
 415 -87 415 -87 380.5 -78.5 c 128,-1,37
 346 -70 346 -70 323.5 -62 c 128,-1,38
 301 -54 301 -54 253 -36 c 2,39,-1
 192 -13 l 1,40,41
 123 -54 123 -54 73 -54 c 0,42,43
 38 -54 38 -54 16 -37 c 128,-1,44
 -6 -20 -6 -20 -6 7 c 0,0,1
39 4 m 1,45,46
 41 -13 41 -13 71 -13 c 0,47,48
 95 -13 95 -13 132 8 c 1,49,50
 94 20 94 20 69 20 c 0,51,52
 39 20 39 20 39 4 c 1,45,46
EndSplineSet
EndChar

StartChar: three
Encoding: 51 51 22
Width: 542
GlyphClass: 2
Flags: W
LayerCount: 2
Fore
SplineSet
19 62 m 0,0,1
 19 105 19 105 42.5 139 c 128,-1,2
 66 173 66 173 108 173 c 0,3,4
 122 173 122 173 143 169 c 1,5,6
 125 154 125 154 113 126.5 c 128,-1,7
 101 99 101 99 101 72 c 0,8,9
 101 28 101 28 132 -6.5 c 128,-1,10
 163 -41 163 -41 209 -41 c 0,11,12
 270 -41 270 -41 318.5 18 c 128,-1,13
 367 77 367 77 367 164 c 0,14,15
 367 228 367 228 335.5 279 c 128,-1,16
 304 330 304 330 232 349 c 1,17,18
 312 383 312 383 362 454.5 c 128,-1,19
 412 526 412 526 412 591 c 0,20,21
 412 636 412 636 386 657.5 c 128,-1,22
 360 679 360 679 322 679 c 0,23,24
 278 679 278 679 244.5 653 c 128,-1,25
 211 627 211 627 211 584 c 0,26,27
 211 552 211 552 231 515 c 1,28,29
 225 502 225 502 210.5 491 c 128,-1,30
 196 480 196 480 182 480 c 0,31,32
 161 480 161 480 148 507.5 c 128,-1,33
 135 535 135 535 135 568 c 0,34,35
 135 636 135 636 195 678 c 128,-1,36
 255 720 255 720 334 720 c 0,37,38
 403 720 403 720 453.5 682 c 128,-1,39
 504 644 504 644 504 579 c 0,40,41
 504 516 504 516 458.5 451.5 c 128,-1,42
 413 387 413 387 344 361 c 1,43,44
 417 336 417 336 451.5 282 c 128,-1,45
 486 228 486 228 486 169 c 0,46,47
 486 71 486 71 404 -8 c 128,-1,48
 322 -87 322 -87 201 -87 c 0,49,50
 110 -87 110 -87 64.5 -41.5 c 128,-1,51
 19 4 19 4 19 62 c 0,0,1
EndSplineSet
EndChar

StartChar: four
Encoding: 52 52 23
Width: 508
GlyphClass: 2
Flags: W
LayerCount: 2
Fore
SplineSet
3 216 m 1,0,1
 3 232 3 232 11 247.5 c 128,-1,2
 19 263 19 263 27 272 c 128,-1,3
 35 281 35 281 53 297 c 0,4,5
 344 568 344 568 453 720 c 1,6,7
 478 708 478 708 478 685 c 0,8,9
 478 661 478 661 458 630 c 1,10,11
 435 536 435 536 392 296 c 1,12,13
 468 296 468 296 508 307 c 1,14,15
 450 229 450 229 380 229 c 1,16,17
 341 8 341 8 341 -87 c 1,18,19
 296 -84 296 -84 271.5 -69.5 c 128,-1,20
 247 -55 247 -55 247 -33 c 0,21,22
 247 -17 247 -17 291 230 c 1,23,24
 255 234 255 234 221 234 c 0,25,26
 185 234 185 234 100 228.5 c 128,-1,27
 15 223 15 223 3 216 c 1,0,1
119 298 m 1,28,29
 158 301 158 301 209 301 c 0,30,31
 246 301 246 301 306 299 c 1,32,33
 337 446 337 446 359 519 c 1,34,-1
 245 416 l 2,35,36
 156 335 156 335 119 298 c 1,28,29
EndSplineSet
EndChar

StartChar: five
Encoding: 53 53 24
Width: 513
GlyphClass: 2
Flags: W
LayerCount: 2
Fore
SplineSet
9 61 m 0,0,1
 9 105 9 105 32 139 c 128,-1,2
 55 173 55 173 97 173 c 0,3,4
 112 173 112 173 133 169 c 1,5,6
 91 135 91 135 91 69 c 0,7,8
 91 24 91 24 117 -8.5 c 128,-1,9
 143 -41 143 -41 194 -41 c 0,10,11
 268 -41 268 -41 313.5 24.5 c 128,-1,12
 359 90 359 90 359 171 c 0,13,14
 359 237 359 237 325 280 c 128,-1,15
 291 323 291 323 223 323 c 0,16,17
 186 323 186 323 118 310 c 1,18,19
 125 359 125 359 146 440 c 128,-1,20
 167 521 167 521 193 611 c 2,21,-1
 223 715 l 1,22,23
 280 701 280 701 338 701 c 0,24,25
 399 701 399 701 504 721 c 1,26,27
 511 693 511 693 511 683 c 0,28,29
 511 643 511 643 471 624.5 c 128,-1,30
 431 606 431 606 377 606 c 0,31,32
 349 606 349 606 311.5 612 c 128,-1,33
 274 618 274 618 263 618 c 0,34,35
 248 618 248 618 230 565.5 c 128,-1,36
 212 513 212 513 195 440.5 c 128,-1,37
 178 368 178 368 174 357 c 1,38,39
 217 365 217 365 256 365 c 0,40,41
 361 365 361 365 416.5 311.5 c 128,-1,42
 472 258 472 258 472 169 c 0,43,44
 472 61 472 61 394.5 -13 c 128,-1,45
 317 -87 317 -87 195 -87 c 0,46,47
 99 -87 99 -87 54 -42.5 c 128,-1,48
 9 2 9 2 9 61 c 0,0,1
EndSplineSet
EndChar

StartChar: six
Encoding: 54 54 25
Width: 592
GlyphClass: 2
Flags: W
LayerCount: 2
Fore
SplineSet
58 168 m 0,0,1
 58 252 58 252 86 346.5 c 128,-1,2
 114 441 114 441 162.5 525.5 c 128,-1,3
 211 610 211 610 288.5 665 c 128,-1,4
 366 720 366 720 454 720 c 0,5,6
 502 720 502 720 531.5 704 c 128,-1,7
 561 688 561 688 561 656 c 0,8,9
 561 616 561 616 501 600 c 1,10,11
 503 620 503 620 503 633 c 0,12,13
 503 657 503 657 492 670 c 128,-1,14
 481 683 481 683 451 683 c 0,15,16
 392 683 392 683 337.5 628 c 128,-1,17
 283 573 283 573 246.5 495.5 c 128,-1,18
 210 418 210 418 188 327 c 1,19,20
 259 381 259 381 354 381 c 0,21,22
 440 381 440 381 497 330.5 c 128,-1,23
 554 280 554 280 554 181 c 0,24,25
 554 66 554 66 478.5 -10.5 c 128,-1,26
 403 -87 403 -87 282 -87 c 0,27,28
 168 -87 168 -87 113 -17.5 c 128,-1,29
 58 52 58 52 58 168 c 0,0,1
164 145 m 0,30,31
 164 114 164 114 169.5 85 c 128,-1,32
 175 56 175 56 187.5 26 c 128,-1,33
 200 -4 200 -4 226 -22.5 c 128,-1,34
 252 -41 252 -41 287 -41 c 0,35,36
 359 -41 359 -41 404.5 28 c 128,-1,37
 450 97 450 97 450 185 c 0,38,39
 450 259 450 259 413.5 296 c 128,-1,40
 377 333 377 333 316 333 c 0,41,42
 238 333 238 333 201 279.5 c 128,-1,43
 164 226 164 226 164 145 c 0,30,31
EndSplineSet
EndChar

StartChar: seven
Encoding: 55 55 26
Width: 439
GlyphClass: 2
Flags: W
LayerCount: 2
Fore
SplineSet
68 282 m 1,0,1
 68 306 68 306 82.5 322.5 c 128,-1,2
 97 339 97 339 124 347 c 128,-1,3
 151 355 151 355 179.5 358 c 128,-1,4
 208 361 208 361 247 361 c 1,5,6
 264 387 264 387 316 475 c 1,7,-1
 405 622 l 1,8,9
 381 622 381 622 329 619 c 128,-1,10
 277 616 277 616 254 616 c 0,11,12
 135 616 135 616 135 670 c 0,13,14
 135 691 135 691 152 719 c 1,15,16
 265 699 265 699 346 699 c 0,17,18
 459 699 459 699 540 725 c 1,19,20
 408 555 408 555 315 357 c 1,21,22
 350 353 350 353 393 353 c 0,23,24
 432 353 432 353 458 360 c 1,25,26
 407 292 407 292 360 292 c 2,27,-1
 285 292 l 1,28,29
 199 96 199 96 199 24 c 0,30,31
 199 -7 199 -7 215 -18 c 1,32,33
 198 -53 198 -53 171.5 -70 c 128,-1,34
 145 -87 145 -87 125 -87 c 0,35,36
 108 -87 108 -87 95 -73.5 c 128,-1,37
 82 -60 82 -60 82 -35 c 0,38,39
 82 36 82 36 210 292 c 1,40,41
 138 290 138 290 68 282 c 1,0,1
EndSplineSet
EndChar

StartChar: eight
Encoding: 56 56 27
Width: 561
GlyphClass: 2
Flags: W
LayerCount: 2
Fore
SplineSet
43 84 m 0,0,1
 43 112 43 112 53 138.5 c 128,-1,2
 63 165 63 165 76.5 184.5 c 128,-1,3
 90 204 90 204 116 227.5 c 128,-1,4
 142 251 142 251 159.5 264.5 c 128,-1,5
 177 278 177 278 210.5 301.5 c 128,-1,6
 244 325 244 325 259 337 c 1,7,8
 222 374 222 374 201 400 c 128,-1,9
 180 426 180 426 161 467.5 c 128,-1,10
 142 509 142 509 142 552 c 0,11,12
 142 635 142 635 200 677 c 128,-1,13
 258 719 258 719 338 719 c 0,14,15
 413 719 413 719 459 680.5 c 128,-1,16
 505 642 505 642 505 569 c 0,17,18
 505 503 505 503 468.5 451 c 128,-1,19
 432 399 432 399 364 348 c 1,20,21
 409 303 409 303 432 277.5 c 128,-1,22
 455 252 455 252 476 210 c 128,-1,23
 497 168 497 168 497 125 c 0,24,25
 497 32 497 32 419 -27.5 c 128,-1,26
 341 -87 341 -87 236 -87 c 0,27,28
 137 -87 137 -87 90 -34.5 c 128,-1,29
 43 18 43 18 43 84 c 0,0,1
120 85 m 0,30,31
 120 31 120 31 157.5 -1.5 c 128,-1,32
 195 -34 195 -34 245 -34 c 0,33,34
 303 -34 303 -34 350.5 10 c 128,-1,35
 398 54 398 54 398 120 c 0,36,37
 398 168 398 168 372.5 208 c 128,-1,38
 347 248 347 248 297 299 c 1,39,40
 254 269 254 269 230.5 251 c 128,-1,41
 207 233 207 233 177 204.5 c 128,-1,42
 147 176 147 176 133.5 146.5 c 128,-1,43
 120 117 120 117 120 85 c 0,30,31
236 564 m 0,44,45
 236 483 236 483 327 387 c 1,46,47
 432 475 432 475 432 568 c 0,48,49
 432 620 432 620 406 649 c 128,-1,50
 380 678 380 678 340 678 c 0,51,52
 301 678 301 678 268.5 649.5 c 128,-1,53
 236 621 236 621 236 564 c 0,44,45
EndSplineSet
EndChar

StartChar: nine
Encoding: 57 57 28
Width: 598
GlyphClass: 2
Flags: W
LayerCount: 2
Fore
SplineSet
96 460 m 0,0,1
 96 575 96 575 167.5 647.5 c 128,-1,2
 239 720 239 720 357 720 c 0,3,4
 477 720 477 720 533.5 642 c 128,-1,5
 590 564 590 564 590 441 c 0,6,7
 590 373 590 373 574 300 c 128,-1,8
 558 227 558 227 525.5 158 c 128,-1,9
 493 89 493 89 449 34.5 c 128,-1,10
 405 -20 405 -20 344 -53.5 c 128,-1,11
 283 -87 283 -87 215 -87 c 0,12,13
 166 -87 166 -87 135.5 -70 c 128,-1,14
 105 -53 105 -53 105 -21 c 0,15,16
 105 19 105 19 163 36 c 1,17,18
 163 -50 163 -50 217 -50 c 0,19,20
 276 -50 276 -50 328 4.5 c 128,-1,21
 380 59 380 59 413 137 c 128,-1,22
 446 215 446 215 465 306 c 1,23,24
 396 253 396 253 301 253 c 0,25,26
 212 253 212 253 154 307 c 128,-1,27
 96 361 96 361 96 460 c 0,0,1
199 457 m 0,28,29
 199 380 199 380 237 340.5 c 128,-1,30
 275 301 275 301 341 301 c 0,31,32
 412 301 412 301 447.5 346 c 128,-1,33
 483 391 483 391 483 471 c 0,34,35
 483 505 483 505 476.5 537.5 c 128,-1,36
 470 570 470 570 456.5 602 c 128,-1,37
 443 634 443 634 416 654 c 128,-1,38
 389 674 389 674 353 674 c 0,39,40
 284 674 284 674 241.5 608.5 c 128,-1,41
 199 543 199 543 199 457 c 0,28,29
EndSplineSet
EndChar

StartChar: colon
Encoding: 58 58 29
Width: 251
GlyphClass: 2
Flags: W
LayerCount: 2
Fore
SplineSet
32 23 m 0,0,1
 32 41 32 41 52.5 55.5 c 128,-1,2
 73 70 73 70 97 70 c 0,3,4
 130 70 130 70 130 39 c 0,5,6
 130 22 130 22 112 6 c 128,-1,7
 94 -10 94 -10 72 -10 c 0,8,9
 56 -10 56 -10 44 -1.5 c 128,-1,10
 32 7 32 7 32 23 c 0,0,1
88 261 m 0,11,12
 88 279 88 279 109 293.5 c 128,-1,13
 130 308 130 308 153 308 c 0,14,15
 186 308 186 308 186 277 c 0,16,17
 186 260 186 260 168 244 c 128,-1,18
 150 228 150 228 128 228 c 0,19,20
 112 228 112 228 100 236.5 c 128,-1,21
 88 245 88 245 88 261 c 0,11,12
EndSplineSet
EndChar

StartChar: semicolon
Encoding: 59 59 30
Width: 250
GlyphClass: 2
Flags: W
LayerCount: 2
Fore
SplineSet
23 -43 m 0,0,1
 23 -9 23 -9 44 29 c 128,-1,2
 65 67 65 67 90 67 c 0,3,4
 103 67 103 67 113.5 56.5 c 128,-1,5
 124 46 124 46 125 33 c 1,6,7
 86 -11 86 -11 51 -88 c 1,8,9
 23 -73 23 -73 23 -43 c 0,0,1
88 263 m 0,10,11
 88 281 88 281 108 295.5 c 128,-1,12
 128 310 128 310 152 310 c 0,13,14
 187 310 187 310 187 279 c 0,15,16
 187 262 187 262 168.5 245.5 c 128,-1,17
 150 229 150 229 128 229 c 0,18,19
 88 229 88 229 88 263 c 0,10,11
EndSplineSet
EndChar

StartChar: less
Encoding: 60 60 31
Width: 328
GlyphClass: 2
Flags: W
LayerCount: 2
Fore
SplineSet
30 165 m 1,0,1
 83 184 83 184 136 228 c 128,-1,2
 189 272 189 272 225 323 c 1,3,4
 230 319 230 319 234.5 307 c 128,-1,5
 239 295 239 295 239 287 c 0,6,7
 239 228 239 228 80 147 c 1,8,9
 138 108 138 108 244 70 c 1,10,11
 220 44 220 44 202 44 c 0,12,13
 165 44 165 44 102.5 88.5 c 128,-1,14
 40 133 40 133 30 165 c 1,0,1
EndSplineSet
EndChar

StartChar: equal
Encoding: 61 61 32
Width: 517
GlyphClass: 2
Flags: W
LayerCount: 2
Fore
SplineSet
62 206 m 1,0,1
 80 255 80 255 249 255 c 0,2,3
 335 255 335 255 434 244 c 1,4,5
 375 204 375 204 312 204 c 2,6,-1
 215 204 l 2,7,8
 134 204 134 204 70 194 c 1,9,-1
 62 206 l 1,0,1
64 118 m 1,10,11
 84 167 84 167 251 167 c 0,12,13
 337 167 337 167 436 156 c 1,14,15
 378 116 378 116 314 116 c 2,16,-1
 218 116 l 2,17,18
 137 116 137 116 73 106 c 1,19,-1
 64 118 l 1,10,11
EndSplineSet
EndChar

StartChar: greater
Encoding: 62 62 33
Width: 337
GlyphClass: 2
Flags: W
LayerCount: 2
Fore
SplineSet
66 287 m 0,0,1
 66 303 66 303 77 320 c 1,2,3
 111 277 111 277 170 231.5 c 128,-1,4
 229 186 229 186 282 166 c 1,5,6
 274 134 274 134 213.5 89 c 128,-1,7
 153 44 153 44 116 44 c 0,8,9
 96 44 96 44 72 70 c 1,10,11
 173 106 173 106 232 147 c 1,12,13
 68 228 68 228 66 287 c 0,0,1
EndSplineSet
EndChar

StartChar: question
Encoding: 63 63 34
Width: 462
GlyphClass: 2
Flags: W
LayerCount: 2
Fore
SplineSet
118 497 m 0,0,1
 118 586 118 586 179.5 653 c 128,-1,2
 241 720 241 720 339 720 c 0,3,4
 408 720 408 720 448.5 684 c 128,-1,5
 489 648 489 648 489 582 c 0,6,7
 489 541 489 541 473 504.5 c 128,-1,8
 457 468 457 468 432 439 c 2,9,-1
 381 382 l 2,10,11
 355 353 355 353 329.5 315.5 c 128,-1,12
 304 278 304 278 292 237 c 0,13,14
 286 216 286 216 280 179 c 128,-1,15
 274 142 274 142 265 119 c 1,16,17
 239 132 239 132 231 142.5 c 128,-1,18
 223 153 223 153 223 175 c 0,19,20
 223 218 223 218 242.5 259 c 128,-1,21
 262 300 262 300 290 334 c 2,22,-1
 346 403 l 2,23,24
 374 437 374 437 393.5 480 c 128,-1,25
 413 523 413 523 413 569 c 0,26,27
 413 622 413 622 391.5 651 c 128,-1,28
 370 680 370 680 336 680 c 0,29,30
 282 680 282 680 235.5 620 c 128,-1,31
 189 560 189 560 189 481 c 0,32,33
 189 449 189 449 200 413 c 1,34,35
 154 420 154 420 136 441 c 128,-1,36
 118 462 118 462 118 497 c 0,0,1
182 23 m 0,37,38
 182 42 182 42 203 56.5 c 128,-1,39
 224 71 224 71 247 71 c 0,40,41
 282 71 282 71 282 42 c 0,42,43
 282 22 282 22 263.5 6 c 128,-1,44
 245 -10 245 -10 222 -10 c 0,45,46
 205 -10 205 -10 193.5 -1.5 c 128,-1,47
 182 7 182 7 182 23 c 0,37,38
EndSplineSet
EndChar

StartChar: at
Encoding: 64 64 35
Width: 613
GlyphClass: 2
Flags: W
LayerCount: 2
Fore
SplineSet
13 92 m 0,0,1
 13 210 13 210 105.5 302.5 c 128,-1,2
 198 395 198 395 343 395 c 0,3,4
 453 395 453 395 512.5 340.5 c 128,-1,5
 572 286 572 286 572 210 c 128,-1,6
 572 134 572 134 518 69.5 c 128,-1,7
 464 5 464 5 391 5 c 0,8,9
 316 5 316 5 316 79 c 1,10,11
 242 -8 242 -8 188 -8 c 0,12,13
 160 -8 160 -8 140.5 11 c 128,-1,14
 121 30 121 30 121 64 c 0,15,16
 121 111 121 111 154.5 168.5 c 128,-1,17
 188 226 188 226 243 268 c 128,-1,18
 298 310 298 310 351 310 c 0,19,20
 387 310 387 310 410 291.5 c 128,-1,21
 433 273 433 273 433 243 c 0,22,23
 433 209 433 209 393 204 c 1,24,25
 418 195 418 195 418 180 c 0,26,27
 418 170 418 170 395 130 c 128,-1,28
 372 90 372 90 372 71 c 0,29,30
 372 46 372 46 402 46 c 0,31,32
 448 46 448 46 487 95.5 c 128,-1,33
 526 145 526 145 526 203 c 0,34,35
 526 263 526 263 480 308 c 128,-1,36
 434 353 434 353 344 353 c 0,37,38
 222 353 222 353 142.5 271.5 c 128,-1,39
 63 190 63 190 63 89 c 0,40,41
 63 17 63 17 109 -34 c 128,-1,42
 155 -85 155 -85 252 -85 c 0,43,44
 373 -85 373 -85 470 3 c 1,45,-1
 484 -15 l 1,46,47
 387 -121 387 -121 242 -121 c 0,48,49
 130 -121 130 -121 71.5 -59.5 c 128,-1,50
 13 2 13 2 13 92 c 0,0,1
187 61 m 0,51,52
 187 35 187 35 202 35 c 0,53,54
 232 35 232 35 307.5 114 c 128,-1,55
 383 193 383 193 383 233 c 0,56,57
 383 247 383 247 382 255.5 c 128,-1,58
 381 264 381 264 373.5 271.5 c 128,-1,59
 366 279 366 279 352 279 c 0,60,61
 298 279 298 279 242.5 198.5 c 128,-1,62
 187 118 187 118 187 61 c 0,51,52
EndSplineSet
EndChar

StartChar: B
Encoding: 66 66 37
Width: 650
GlyphClass: 2
Flags: W
LayerCount: 2
Fore
SplineSet
41 -1 m 0,0,1
 41 9 41 9 52 9 c 0,2,3
 55 9 55 9 65.5 6.5 c 128,-1,4
 76 4 76 4 98 2 c 128,-1,5
 120 0 120 0 150 0 c 0,6,7
 322 0 322 0 438.5 67 c 128,-1,8
 555 134 555 134 555 222 c 0,9,10
 555 341 555 341 298 341 c 0,11,12
 297 341 297 341 296 341 c 0,13,14
 283 341 283 341 258 340.5 c 128,-1,15
 233 340 233 340 222 340 c 1,16,17
 206 286 206 286 177.5 178.5 c 128,-1,18
 149 71 149 71 135 24 c 1,19,20
 105 24 105 24 83 40 c 128,-1,21
 61 56 61 56 61 79 c 0,22,23
 61 97 61 97 71 125 c 2,24,-1
 75 137 l 2,25,26
 77 142 77 142 95 198 c 2,27,-1
 131 306 l 1,28,-1
 174 428 l 2,29,30
 199 497 199 497 226 562.5 c 128,-1,31
 253 628 253 628 278 676 c 1,32,33
 243 668 243 668 214 655 c 128,-1,34
 185 642 185 642 169.5 633.5 c 128,-1,35
 154 625 154 625 148 625 c 0,36,37
 138 625 138 625 123 639.5 c 128,-1,38
 108 654 108 654 108 664 c 1,39,40
 154 683 154 683 182.5 692.5 c 128,-1,41
 211 702 211 702 259.5 711 c 128,-1,42
 308 720 308 720 360 720 c 0,43,44
 393 720 393 720 423 717 c 128,-1,45
 453 714 453 714 489 703.5 c 128,-1,46
 525 693 525 693 550.5 676 c 128,-1,47
 576 659 576 659 593.5 628.5 c 128,-1,48
 611 598 611 598 611 557 c 0,49,50
 611 418 611 418 402 368 c 1,51,52
 515 353 515 353 566 307 c 128,-1,53
 617 261 617 261 617 207 c 0,54,55
 617 138 617 138 569.5 79.5 c 128,-1,56
 522 21 522 21 451 -14 c 128,-1,57
 380 -49 380 -49 304.5 -68 c 128,-1,58
 229 -87 229 -87 165 -87 c 0,59,60
 42 -87 42 -87 41 -1 c 0,0,1
232 378 m 1,61,62
 292 380 292 380 343 391 c 128,-1,63
 394 402 394 402 439 423 c 128,-1,64
 484 444 484 444 509.5 480 c 128,-1,65
 535 516 535 516 535 565 c 0,66,67
 535 685 535 685 347 685 c 1,68,69
 291 577 291 577 232 378 c 1,61,62
EndSplineSet
EndChar

StartChar: C
Encoding: 67 67 38
Width: 570
GlyphClass: 2
Flags: W
LayerCount: 2
Fore
SplineSet
32 160 m 0,0,1
 32 289 32 289 95 420 c 128,-1,2
 158 551 158 551 257.5 635 c 128,-1,3
 357 719 357 719 457 719 c 0,4,5
 561 719 561 719 561 628 c 0,6,7
 561 563 561 563 521 487 c 128,-1,8
 481 411 481 411 438 411 c 0,9,10
 413 411 413 411 397 442 c 1,11,12
 435 484 435 484 470.5 542 c 128,-1,13
 506 600 506 600 506 636 c 0,14,15
 506 675 506 675 461 675 c 0,16,17
 391 675 391 675 312 590 c 128,-1,18
 233 505 233 505 181 381 c 128,-1,19
 129 257 129 257 129 151 c 0,20,21
 129 71 129 71 165 16 c 128,-1,22
 201 -39 201 -39 274 -39 c 0,23,24
 352 -39 352 -39 430.5 24 c 128,-1,25
 509 87 509 87 551 175 c 1,26,-1
 577 158 l 1,27,28
 520 50 520 50 435.5 -18.5 c 128,-1,29
 351 -87 351 -87 250 -87 c 0,30,31
 143 -87 143 -87 87.5 -14.5 c 128,-1,32
 32 58 32 58 32 160 c 0,0,1
EndSplineSet
EndChar

StartChar: D
Encoding: 68 68 39
Width: 687
GlyphClass: 2
Flags: W
LayerCount: 2
Fore
SplineSet
70 -37 m 1,0,1
 78 27 78 27 145 244.5 c 128,-1,2
 212 462 212 462 241 537 c 0,3,4
 248 555 248 555 256.5 573 c 128,-1,5
 265 591 265 591 285 612.5 c 128,-1,6
 305 634 305 634 326 634 c 0,7,8
 343 634 343 634 364 620 c 1,9,10
 304 483 304 483 243.5 293 c 128,-1,11
 183 103 183 103 151 -44 c 1,12,13
 168 -50 168 -50 201 -50 c 0,14,15
 279 -50 279 -50 353.5 -1 c 128,-1,16
 428 48 428 48 480.5 122 c 128,-1,17
 533 196 533 196 565 284 c 128,-1,18
 597 372 597 372 597 450 c 0,19,20
 597 566 597 566 539 622.5 c 128,-1,21
 481 679 481 679 384 679 c 0,22,23
 286 679 286 679 221 627.5 c 128,-1,24
 156 576 156 576 156 499 c 0,25,26
 156 472 156 472 165 451 c 1,27,28
 85 451 85 451 85 515 c 0,29,30
 85 589 85 589 184 654.5 c 128,-1,31
 283 720 283 720 417 720 c 0,32,33
 555 720 555 720 620.5 643 c 128,-1,34
 686 566 686 566 686 440 c 0,35,36
 686 336 686 336 643 237.5 c 128,-1,37
 600 139 600 139 530.5 68.5 c 128,-1,38
 461 -2 461 -2 371 -44.5 c 128,-1,39
 281 -87 281 -87 191 -87 c 0,40,41
 108 -87 108 -87 70 -37 c 1,0,1
EndSplineSet
EndChar

StartChar: E
Encoding: 69 69 40
Width: 533
GlyphClass: 2
Flags: W
LayerCount: 2
Fore
SplineSet
-4 101 m 0,0,1
 -4 191 -4 191 69.5 267.5 c 128,-1,2
 143 344 143 344 251 359 c 1,3,4
 179 422 179 422 179 510 c 0,5,6
 179 593 179 593 240.5 656 c 128,-1,7
 302 719 302 719 396 719 c 0,8,9
 457 719 457 719 490 689.5 c 128,-1,10
 523 660 523 660 523 604 c 0,11,12
 523 547 523 547 494.5 498.5 c 128,-1,13
 466 450 466 450 437 450 c 0,14,15
 412 450 412 450 389 491 c 1,16,17
 477 563 477 563 477 625 c 0,18,19
 477 654 477 654 457.5 670 c 128,-1,20
 438 686 438 686 405 686 c 0,21,22
 341 686 341 686 304.5 630.5 c 128,-1,23
 268 575 268 575 268 501 c 0,24,25
 268 396 268 396 342 339 c 1,26,27
 238 323 238 323 172 250.5 c 128,-1,28
 106 178 106 178 106 99 c 0,29,30
 106 45 106 45 138 1.5 c 128,-1,31
 170 -42 170 -42 236 -42 c 0,32,33
 315 -42 315 -42 392.5 22 c 128,-1,34
 470 86 470 86 513 175 c 1,35,-1
 540 158 l 1,36,37
 481 47 481 47 396 -20 c 128,-1,38
 311 -87 311 -87 209 -87 c 0,39,40
 115 -87 115 -87 55.5 -33 c 128,-1,41
 -4 21 -4 21 -4 101 c 0,0,1
EndSplineSet
EndChar

StartChar: F
Encoding: 70 70 41
Width: 522
GlyphClass: 2
Flags: W
LayerCount: 2
Fore
SplineSet
73 298 m 1,0,1
 80 377 80 377 220 381 c 1,2,3
 281 549 281 549 329 647 c 1,4,5
 313 649 313 649 293 649 c 0,6,7
 206 649 206 649 173 622.5 c 128,-1,8
 140 596 140 596 140 540 c 0,9,10
 140 499 140 499 160 450 c 1,11,12
 73 464 73 464 73 537 c 0,13,14
 73 614 73 614 156 664.5 c 128,-1,15
 239 715 239 715 363 715 c 0,16,17
 400 715 400 715 469.5 708 c 128,-1,18
 539 701 539 701 568 701 c 0,19,20
 614 701 614 701 669 716 c 1,21,22
 623 665 623 665 592.5 646 c 128,-1,23
 562 627 562 627 531 627 c 0,24,25
 515 627 515 627 465.5 634 c 128,-1,26
 416 641 416 641 387 643 c 1,27,28
 360 579 360 579 297 380 c 1,29,30
 321 378 321 378 383 371.5 c 128,-1,31
 445 365 445 365 484 364 c 1,32,33
 461 333 461 333 428.5 325.5 c 128,-1,34
 396 318 396 318 278 316 c 1,35,-1
 237 175 l 2,36,37
 188 5 188 5 188 -87 c 1,38,39
 138 -84 138 -84 120 -63.5 c 128,-1,40
 102 -43 102 -43 102 -6 c 0,41,42
 102 93 102 93 195 311 c 1,43,44
 98 302 98 302 73 298 c 1,0,1
EndSplineSet
Substitution2: "'salt' Stylistic Alternatives in Latin lookup 2 subtable" F.salt
EndChar

StartChar: G
Encoding: 71 71 42
Width: 585
GlyphClass: 2
Flags: W
LayerCount: 2
Fore
SplineSet
32 164 m 0,0,1
 32 258 32 258 70 358.5 c 128,-1,2
 108 459 108 459 167 538 c 128,-1,3
 226 617 226 617 303 668 c 128,-1,4
 380 719 380 719 454 719 c 0,5,6
 515 719 515 719 544 685.5 c 128,-1,7
 573 652 573 652 573 601 c 0,8,9
 573 546 573 546 545 498 c 128,-1,10
 517 450 517 450 479 450 c 0,11,12
 454 450 454 450 437 483 c 1,13,14
 461 500 461 500 489 547 c 128,-1,15
 517 594 517 594 517 628 c 0,16,17
 517 675 517 675 463 675 c 0,18,19
 390 675 390 675 310.5 589 c 128,-1,20
 231 503 231 503 179.5 380 c 128,-1,21
 128 257 128 257 128 153 c 0,22,23
 128 65 128 65 166.5 13 c 128,-1,24
 205 -39 205 -39 262 -39 c 0,25,26
 339 -39 339 -39 395.5 51 c 128,-1,27
 452 141 452 141 461 246 c 1,28,29
 412 256 412 256 354 256 c 0,30,31
 336 256 336 256 288 254 c 1,32,33
 305 322 305 322 368 322 c 0,34,35
 402 322 402 322 468 300 c 128,-1,36
 534 278 534 278 552 274 c 1,37,38
 508 138 508 138 496.5 92.5 c 128,-1,39
 485 47 485 47 485 1 c 0,40,41
 485 -14 485 -14 486.5 -45 c 128,-1,42
 488 -76 488 -76 488 -93 c 1,43,44
 420 -85 420 -85 420 -9 c 0,45,46
 420 4 420 4 421 11 c 1,47,48
 340 -87 340 -87 238 -87 c 0,49,50
 150 -87 150 -87 91 -19.5 c 128,-1,51
 32 48 32 48 32 164 c 0,0,1
EndSplineSet
EndChar

StartChar: H
Encoding: 72 72 43
Width: 663
GlyphClass: 2
Flags: W
LayerCount: 2
Fore
SplineSet
72 -87 m 1,0,1
 94 55 94 55 176 306 c 1,2,3
 121 300 121 300 111 300 c 1,4,5
 111 356 111 356 198 374 c 1,6,-1
 281 616 l 2,7,8
 293 652 293 652 293 664 c 0,9,10
 293 678 293 678 280 678 c 0,11,12
 242 678 242 678 203.5 616 c 128,-1,13
 165 554 165 554 165 505 c 0,14,15
 165 489 165 489 175 460 c 1,16,17
 96 460 96 460 96 525 c 0,18,19
 96 591 96 591 168.5 655.5 c 128,-1,20
 241 720 241 720 306 720 c 0,21,22
 362 720 362 720 362 666 c 0,23,24
 362 648 362 648 354 622 c 2,25,-1
 281 382 l 1,26,27
 297 383 297 383 331 383 c 0,28,29
 421 383 421 383 506 375 c 1,30,31
 566 577 566 577 604 665 c 0,32,33
 628 721 628 721 676 721 c 1,34,35
 623 576 623 576 571 370 c 1,36,37
 579 370 579 370 610.5 368.5 c 128,-1,38
 642 367 642 367 658 367 c 1,39,40
 612 321 612 321 559 321 c 1,41,42
 501 78 501 78 501 -34 c 0,43,44
 501 -60 501 -60 506 -87 c 1,45,46
 455 -82 455 -82 436.5 -62.5 c 128,-1,47
 418 -43 418 -43 418 6 c 0,48,49
 418 92 418 92 490 320 c 1,50,51
 327 319 327 319 259 313 c 1,52,53
 258 310 258 310 252 289.5 c 128,-1,54
 246 269 246 269 220 188 c 2,55,-1
 156 -19 l 2,56,57
 146 -52 146 -52 120.5 -69.5 c 128,-1,58
 95 -87 95 -87 72 -87 c 1,0,1
EndSplineSet
EndChar

StartChar: J
Encoding: 74 74 45
Width: 440
GlyphClass: 2
Flags: W
LayerCount: 2
Fore
SplineSet
-18 49 m 0,0,1
 -18 115 -18 115 4 168 c 128,-1,2
 26 221 26 221 64 221 c 0,3,4
 78 221 78 221 103 210 c 1,5,6
 65 118 65 118 65 49 c 0,7,8
 65 9 65 9 81.5 -14 c 128,-1,9
 98 -37 98 -37 127 -37 c 0,10,11
 152 -37 152 -37 172 -15 c 128,-1,12
 192 7 192 7 212 61 c 1,13,14
 246 158 246 158 290 344 c 128,-1,15
 334 530 334 530 356 654 c 1,16,17
 234 651 234 651 142 631 c 1,18,19
 149 678 149 678 191.5 698 c 128,-1,20
 234 718 234 718 322 718 c 0,21,22
 420 718 420 718 552 696 c 1,23,24
 527 655 527 655 461 655 c 0,25,26
 449 655 449 655 428 654.5 c 128,-1,27
 407 654 407 654 403 654 c 1,28,29
 416 637 416 637 416 615 c 0,30,31
 415 562 415 562 372.5 369.5 c 128,-1,32
 330 177 330 177 278 63 c 0,33,34
 211 -86 211 -86 104 -86 c 0,35,36
 -18 -86 -18 -86 -18 49 c 0,0,1
EndSplineSet
EndChar

StartChar: K
Encoding: 75 75 46
Width: 637
GlyphClass: 2
Flags: W
LayerCount: 2
Fore
SplineSet
43 -69 m 1,0,1
 64 -24 64 -24 86 40 c 2,2,-1
 165 267 l 1,3,-1
 288 616 l 2,4,5
 300 652 300 652 300 659 c 0,6,7
 300 678 300 678 280 678 c 0,8,9
 236 678 236 678 198.5 616.5 c 128,-1,10
 161 555 161 555 161 506 c 0,11,12
 161 483 161 483 171 460 c 1,13,14
 91 460 91 460 91 525 c 128,-1,15
 91 590 91 590 164 655 c 128,-1,16
 237 720 237 720 302 720 c 0,17,18
 357 720 357 720 357 662 c 0,19,20
 357 643 357 643 350 622 c 2,21,-1
 276 382 l 1,22,23
 288 389 288 389 345 433 c 0,24,25
 526 573 526 573 625 723 c 1,26,27
 645 704 645 704 645 669 c 0,28,29
 645 556 645 556 276 320 c 1,30,31
 329 238 329 238 360 194.5 c 128,-1,32
 391 151 391 151 454.5 86 c 128,-1,33
 518 21 518 21 604 -45 c 1,34,35
 595 -62 595 -62 577 -74.5 c 128,-1,36
 559 -87 559 -87 542 -87 c 0,37,38
 489 -87 489 -87 398.5 31.5 c 128,-1,39
 308 150 308 150 242 275 c 1,40,-1
 151 -19 l 2,41,42
 146 -36 146 -36 134.5 -47 c 128,-1,43
 123 -58 123 -58 105.5 -62.5 c 128,-1,44
 88 -67 88 -67 75 -68 c 128,-1,45
 62 -69 62 -69 43 -69 c 1,0,1
EndSplineSet
EndChar

StartChar: L
Encoding: 76 76 47
Width: 610
GlyphClass: 2
Flags: W
LayerCount: 2
Fore
SplineSet
-64 40 m 0,0,1
 -64 90 -64 90 18 90 c 0,2,3
 67 90 67 90 144 70 c 1,4,5
 160 98 160 98 177 141 c 128,-1,6
 194 184 194 184 205 217 c 2,7,-1
 235 310 l 2,8,9
 255 371 255 371 263 394 c 1,10,11
 214 410 214 410 186.5 440 c 128,-1,12
 159 470 159 470 159 503 c 0,13,14
 159 535 159 535 182.5 562 c 128,-1,15
 206 589 206 589 243 589 c 1,16,17
 223 563 223 563 223 521 c 0,18,19
 223 459 223 459 275 429 c 1,20,21
 296 493 296 493 316 539.5 c 128,-1,22
 336 586 336 586 363 630 c 128,-1,23
 390 674 390 674 423.5 697 c 128,-1,24
 457 720 457 720 496 720 c 0,25,26
 538 720 538 720 572.5 694.5 c 128,-1,27
 607 669 607 669 607 612 c 0,28,29
 607 575 607 575 591.5 536.5 c 128,-1,30
 576 498 576 498 546 462 c 128,-1,31
 516 426 516 426 462.5 403 c 128,-1,32
 409 380 409 380 341 380 c 1,33,34
 264 146 264 146 204 54 c 1,35,36
 398 -4 398 -4 469 -4 c 0,37,38
 512 -4 512 -4 557 18 c 1,39,40
 519 -87 519 -87 437 -87 c 0,41,42
 416 -87 416 -87 391 -82 c 128,-1,43
 366 -77 366 -77 334 -65.5 c 128,-1,44
 302 -54 302 -54 280.5 -45.5 c 128,-1,45
 259 -37 259 -37 219.5 -19.5 c 128,-1,46
 180 -2 180 -2 165 4 c 1,47,48
 111 -53 111 -53 49 -53 c 0,49,50
 0 -53 0 -53 -32 -22.5 c 128,-1,51
 -64 8 -64 8 -64 40 c 0,0,1
-8 -3.5 m 128,-1,53
 12 -16 12 -16 39 -16 c 0,54,55
 62 -16 62 -16 77.5 -6.5 c 128,-1,56
 93 3 93 3 113 24 c 1,57,58
 42 50 42 50 8 50 c 0,59,60
 -28 50 -28 50 -28 27 c 0,61,52
 -28 9 -28 9 -8 -3.5 c 128,-1,53
352 413 m 1,62,63
 406 417 406 417 450.5 458.5 c 128,-1,64
 495 500 495 500 516 548.5 c 128,-1,65
 537 597 537 597 537 636 c 0,66,67
 537 681 537 681 504 681 c 0,68,69
 483 681 483 681 463 661 c 128,-1,70
 443 641 443 641 423 599.5 c 128,-1,71
 403 558 403 558 388 518 c 128,-1,72
 373 478 373 478 352 413 c 1,62,63
EndSplineSet
EndChar

StartChar: M
Encoding: 77 77 48
Width: 806
GlyphClass: 2
Flags: W
LayerCount: 2
Fore
SplineSet
-5 -87 m 1,0,1
 1 -69 1 -69 38 10 c 2,2,-1
 158 270 l 1,3,-1
 316 614 l 2,4,5
 325 634 325 634 325 647 c 0,6,7
 325 669 325 669 296 669 c 0,8,9
 239 669 239 669 207.5 619 c 128,-1,10
 176 569 176 569 176 508 c 0,11,12
 176 487 176 487 180 460 c 1,13,14
 147 460 147 460 128 488.5 c 128,-1,15
 109 517 109 517 109 551 c 0,16,17
 109 614 109 614 175.5 667 c 128,-1,18
 242 720 242 720 315 720 c 0,19,20
 374 720 374 720 403 666.5 c 128,-1,21
 432 613 432 613 432 472 c 0,22,23
 432 400 432 400 422.5 276 c 128,-1,24
 413 152 413 152 413 117 c 1,25,26
 456 246 456 246 546.5 413.5 c 128,-1,27
 637 581 637 581 693 664 c 0,28,29
 709 689 709 689 720 698.5 c 128,-1,30
 731 708 731 708 748 708 c 0,31,32
 762 708 762 708 792 697 c 1,33,34
 759 626 759 626 710 384.5 c 128,-1,35
 661 143 661 143 661 10 c 0,36,37
 661 -3 661 -3 661.5 -13.5 c 128,-1,38
 662 -24 662 -24 663 -30.5 c 128,-1,39
 664 -37 664 -37 667 -46 c 2,40,-1
 670 -58 l 2,41,42
 671 -61 671 -61 675 -72 c 2,43,-1
 681 -87 l 1,44,45
 618 -87 618 -87 598 -59 c 128,-1,46
 578 -31 578 -31 578 43 c 0,47,48
 578 143 578 143 599.5 255 c 128,-1,49
 621 367 621 367 663 529 c 1,50,51
 600 439 600 439 525 274 c 128,-1,52
 450 109 450 109 414 3 c 1,53,-1
 407 1 l 2,54,55
 400 -2 400 -2 393 -2 c 0,56,57
 360 -2 360 -2 349.5 36 c 128,-1,58
 339 74 339 74 339 157 c 0,59,60
 339 208 339 208 343 331 c 128,-1,61
 347 454 347 454 347 512 c 0,62,63
 347 522 347 522 346.5 542 c 128,-1,64
 346 562 346 562 346 571 c 1,65,-1
 284 425 l 1,66,-1
 229 297 l 1,67,-1
 185 191 l 2,68,69
 161 135 161 135 146 101 c 1,70,-1
 112 32 l 2,71,72
 94 -3 94 -3 81 -22 c 128,-1,73
 68 -41 68 -41 53 -57.5 c 128,-1,74
 38 -74 38 -74 24 -80.5 c 128,-1,75
 10 -87 10 -87 -5 -87 c 1,0,1
EndSplineSet
Substitution2: "'salt' Stylistic Alternatives in Latin lookup 2 subtable" M.salt
EndChar

StartChar: P
Encoding: 80 80 51
Width: 559
GlyphClass: 2
Flags: W
LayerCount: 2
Fore
SplineSet
34 -30 m 0,0,1
 34 -13 34 -13 47 26 c 2,2,-1
 125 265 l 2,3,4
 150 341 150 341 194 456 c 128,-1,5
 238 571 238 571 286 677 c 1,6,7
 253 670 253 670 222.5 656.5 c 128,-1,8
 192 643 192 643 174.5 634 c 128,-1,9
 157 625 157 625 152 625 c 0,10,11
 143 625 143 625 128.5 639.5 c 128,-1,12
 114 654 114 654 114 664 c 1,13,14
 248 720 248 720 349 720 c 0,15,16
 415 720 415 720 477 699 c 128,-1,17
 539 678 539 678 583.5 631.5 c 128,-1,18
 628 585 628 585 628 524 c 0,19,20
 628 464 628 464 592.5 418.5 c 128,-1,21
 557 373 557 373 508.5 349.5 c 128,-1,22
 460 326 460 326 399 311 c 128,-1,23
 338 296 338 296 298 292.5 c 128,-1,24
 258 289 258 289 228 289 c 2,25,-1
 222 289 l 1,26,-1
 117 -87 l 1,27,28
 86 -87 86 -87 60 -70.5 c 128,-1,29
 34 -54 34 -54 34 -30 c 0,0,1
231 320 m 1,30,31
 311 325 311 325 379.5 349 c 128,-1,32
 448 373 448 373 496.5 423 c 128,-1,33
 545 473 545 473 545 540 c 0,34,35
 545 609 545 609 492 646 c 128,-1,36
 439 683 439 683 363 685 c 1,37,38
 303 569 303 569 231 320 c 1,30,31
EndSplineSet
EndChar

StartChar: Q
Encoding: 81 81 52
Width: 728
GlyphClass: 2
Flags: W
LayerCount: 2
Fore
SplineSet
44 201 m 0,0,1
 44 326 44 326 96.5 444.5 c 128,-1,2
 149 563 149 563 245 641.5 c 128,-1,3
 341 720 341 720 454 720 c 0,4,5
 557 720 557 720 617 654 c 128,-1,6
 677 588 677 588 677 472 c 0,7,8
 677 349 677 349 613.5 214.5 c 128,-1,9
 550 80 550 80 455 2 c 1,10,11
 533 -37 533 -37 598 -37 c 0,12,13
 614 -37 614 -37 624.5 -35 c 128,-1,14
 635 -33 635 -33 647.5 -28.5 c 128,-1,15
 660 -24 660 -24 669 -22 c 1,16,17
 640 -119 640 -119 559 -119 c 0,18,19
 516 -119 516 -119 477 -98 c 128,-1,20
 438 -77 438 -77 390 -39 c 1,21,22
 338 -64 338 -64 283 -64 c 0,23,24
 247 -64 247 -64 221.5 -53.5 c 128,-1,25
 196 -43 196 -43 184.5 -27.5 c 128,-1,26
 173 -12 173 -12 168.5 1 c 128,-1,27
 164 14 164 14 164 26 c 0,28,29
 164 50 164 50 184 69 c 128,-1,30
 204 88 204 88 246 88 c 0,31,32
 272 88 272 88 302.5 78 c 128,-1,33
 333 68 333 68 353 58 c 128,-1,34
 373 48 373 48 411 26 c 1,35,36
 492 99 492 99 541.5 240.5 c 128,-1,37
 591 382 591 382 591 496 c 0,38,39
 591 581 591 581 557.5 630 c 128,-1,40
 524 679 524 679 454 679 c 0,41,42
 363 679 363 679 286 594 c 128,-1,43
 209 509 209 509 169.5 390.5 c 128,-1,44
 130 272 130 272 130 157 c 0,45,46
 130 103 130 103 142 57 c 1,47,48
 44 57 44 57 44 201 c 0,0,1
194 19 m 0,49,50
 194 -1 194 -1 211.5 -17.5 c 128,-1,51
 229 -34 229 -34 265 -34 c 0,52,53
 304 -34 304 -34 354 -10 c 1,54,55
 281 50 281 50 236 50 c 2,56,57
 236 50 236 50 235 50 c 0,58,59
 194 50 194 50 194 19 c 0,49,50
EndSplineSet
EndChar

StartChar: R
Encoding: 82 82 53
Width: 616
GlyphClass: 2
Flags: W
LayerCount: 2
Fore
SplineSet
31 -30 m 0,0,1
 31 -19 31 -19 45 25 c 0,2,3
 122 259 122 259 165.5 376.5 c 128,-1,4
 209 494 209 494 290 679 c 1,5,6
 256 672 256 672 223 658.5 c 128,-1,7
 190 645 190 645 171.5 635 c 128,-1,8
 153 625 153 625 148 625 c 0,9,10
 139 625 139 625 123.5 639 c 128,-1,11
 108 653 108 653 108 664 c 1,12,13
 248 720 248 720 349 720 c 0,14,15
 397 720 397 720 443 709 c 128,-1,16
 489 698 489 698 530.5 676 c 128,-1,17
 572 654 572 654 597 615.5 c 128,-1,18
 622 577 622 577 622 527 c 0,19,20
 622 473 622 473 591 432 c 128,-1,21
 560 391 560 391 517 369 c 128,-1,22
 474 347 474 347 417 332.5 c 128,-1,23
 360 318 360 318 320 314 c 128,-1,24
 280 310 280 310 243 309 c 1,25,-1
 278 254 l 2,26,27
 309 205 309 205 316 195 c 2,28,-1
 351 144 l 2,29,30
 379 103 379 103 396 85 c 2,31,-1
 441 34 l 2,32,33
 470 2 470 2 500 -24 c 128,-1,34
 530 -50 530 -50 566 -77 c 1,35,36
 562 -96 562 -96 542.5 -108.5 c 128,-1,37
 523 -121 523 -121 505 -121 c 0,38,39
 468 -121 468 -121 408 -52.5 c 128,-1,40
 348 16 348 16 298 98 c 128,-1,41
 248 180 248 180 209 259 c 1,42,-1
 111 -88 l 1,43,44
 80 -88 80 -88 55.5 -71.5 c 128,-1,45
 31 -55 31 -55 31 -30 c 0,0,1
232 339 m 1,46,47
 312 345 312 345 378.5 367 c 128,-1,48
 445 389 445 389 492 436 c 128,-1,49
 539 483 539 483 539 547 c 0,50,51
 539 618 539 618 488 650.5 c 128,-1,52
 437 683 437 683 360 685 c 1,53,54
 304 573 304 573 232 339 c 1,46,47
EndSplineSet
EndChar

StartChar: S
Encoding: 83 83 54
Width: 567
GlyphClass: 2
Flags: W
LayerCount: 2
Fore
SplineSet
4 96 m 0,0,1
 4 170 4 170 50 202.5 c 128,-1,2
 96 235 96 235 158 235 c 1,3,4
 93 167 93 167 93 96 c 0,5,6
 93 42 93 42 134.5 4 c 128,-1,7
 176 -34 176 -34 250 -34 c 0,8,9
 323 -34 323 -34 379 2 c 128,-1,10
 435 38 435 38 435 101 c 0,11,12
 435 146 435 146 401.5 182 c 128,-1,13
 368 218 368 218 321 243 c 2,14,-1
 226 295 l 2,15,16
 179 321 179 321 145 361.5 c 128,-1,17
 111 402 111 402 111 453 c 0,18,19
 111 510 111 510 145.5 570.5 c 128,-1,20
 180 631 180 631 249.5 675.5 c 128,-1,21
 319 720 319 720 402 720 c 0,22,23
 527 720 527 720 527 615 c 0,24,25
 527 564 527 564 502.5 501.5 c 128,-1,26
 478 439 478 439 447 391 c 1,27,28
 403 400 403 400 403 442 c 0,29,30
 403 470 403 470 431.5 543.5 c 128,-1,31
 460 617 460 617 460 644 c 0,32,33
 460 663 460 663 448.5 672.5 c 128,-1,34
 437 682 437 682 407 682 c 0,35,36
 319 682 319 682 253.5 612 c 128,-1,37
 188 542 188 542 188 476 c 0,38,39
 188 437 188 437 221 405.5 c 128,-1,40
 254 374 254 374 301 350.5 c 128,-1,41
 348 327 348 327 394.5 300 c 128,-1,42
 441 273 441 273 474 229.5 c 128,-1,43
 507 186 507 186 507 129 c 0,44,45
 507 31 507 31 423.5 -28 c 128,-1,46
 340 -87 340 -87 233 -87 c 0,47,48
 138 -87 138 -87 71 -39 c 128,-1,49
 4 9 4 9 4 96 c 0,0,1
EndSplineSet
EndChar

StartChar: T
Encoding: 84 84 55
Width: 540
GlyphClass: 2
Flags: W
LayerCount: 2
Fore
SplineSet
76 615 m 1,0,1
 80 655 80 655 116.5 679 c 128,-1,2
 153 703 153 703 207 711.5 c 128,-1,3
 261 720 261 720 341 720 c 0,4,5
 422 720 422 720 542 708 c 0,6,7
 647 698 647 698 696 698 c 1,8,9
 668 672 668 672 617.5 658 c 128,-1,10
 567 644 567 644 528 641.5 c 128,-1,11
 489 639 489 639 430 639 c 1,12,13
 348 437 348 437 268 143 c 0,14,15
 252 82 252 82 246 58 c 128,-1,16
 240 34 240 34 235 2.5 c 128,-1,17
 230 -29 230 -29 230 -58 c 0,18,19
 230 -72 230 -72 233 -87 c 1,20,21
 137 -87 137 -87 135 -10 c 1,22,23
 135 30 135 30 170 137 c 0,24,25
 192 203 192 203 221.5 280.5 c 128,-1,26
 251 358 251 358 271 406 c 2,27,-1
 325 535 l 1,28,-1
 369 639 l 1,29,30
 203 637 203 637 76 615 c 1,0,1
EndSplineSet
EndChar

StartChar: U
Encoding: 85 85 56
Width: 750
GlyphClass: 2
Flags: W
LayerCount: 2
Fore
SplineSet
33 536 m 0,0,1
 33 601 33 601 93 660 c 128,-1,2
 153 719 153 719 235 719 c 0,3,4
 351 719 351 719 351 590 c 0,5,6
 351 515 351 515 291 322 c 0,7,8
 234 141 234 141 234 75 c 0,9,10
 234 -34 234 -34 317 -34 c 0,11,12
 368 -34 368 -34 413 11.5 c 128,-1,13
 458 57 458 57 483 112.5 c 128,-1,14
 508 168 508 168 522 227 c 2,15,-1
 549 334 l 1,16,-1
 576 440 l 2,17,18
 595 511 595 511 608 550 c 1,19,-1
 638 633 l 2,20,21
 655 678 655 678 670.5 698.5 c 128,-1,22
 686 719 686 719 700 719 c 0,23,24
 722 719 722 719 764 680 c 1,25,26
 745 666 745 666 701 552 c 128,-1,27
 657 438 657 438 618 287 c 128,-1,28
 579 136 579 136 579 44 c 0,29,30
 579 -17 579 -17 599.5 -37.5 c 128,-1,31
 620 -58 620 -58 673 -58 c 1,32,33
 662 -76 662 -76 636.5 -87.5 c 128,-1,34
 611 -99 611 -99 588 -99 c 0,35,36
 551 -99 551 -99 524.5 -66.5 c 128,-1,37
 498 -34 498 -34 498 13 c 0,38,39
 498 21 498 21 500 65 c 1,40,41
 417 -88 417 -88 287 -88 c 0,42,43
 220 -88 220 -88 182.5 -48 c 128,-1,44
 145 -8 145 -8 145 64 c 128,-1,45
 145 136 145 136 205 321 c 128,-1,46
 265 506 265 506 265 588 c 0,47,48
 265 678 265 678 211 678 c 0,49,50
 164 678 164 678 136.5 624 c 128,-1,51
 109 570 109 570 109 523 c 0,52,53
 109 492 109 492 122 459 c 1,54,55
 33 459 33 459 33 536 c 0,0,1
EndSplineSet
Substitution2: "'salt' Stylistic Alternatives in Latin lookup 2 subtable" U.salt
EndChar

StartChar: V
Encoding: 86 86 57
Width: 669
GlyphClass: 2
Flags: W
LayerCount: 2
Fore
SplineSet
34 540 m 0,0,1
 34 604 34 604 92 662 c 128,-1,2
 150 720 150 720 228 720 c 0,3,4
 295 720 295 720 330.5 671 c 128,-1,5
 366 622 366 622 366 535 c 0,6,7
 366 457 366 457 335 346.5 c 128,-1,8
 304 236 304 236 273.5 138 c 128,-1,9
 243 40 243 40 243 -8 c 0,10,11
 243 -26 243 -26 248 -34 c 128,-1,12
 253 -42 253 -42 267 -42 c 0,13,14
 308 -42 308 -42 369 18 c 128,-1,15
 430 78 430 78 484.5 163.5 c 128,-1,16
 539 249 539 249 577.5 351 c 128,-1,17
 616 453 616 453 616 530 c 0,18,19
 616 627 616 627 549 649 c 1,20,21
 562 677 562 677 582 691.5 c 128,-1,22
 602 706 602 706 620 706 c 0,23,24
 649 706 649 706 672 670 c 128,-1,25
 695 634 695 634 695 576 c 0,26,27
 695 470 695 470 620.5 312 c 128,-1,28
 546 154 546 154 437.5 33.5 c 128,-1,29
 329 -87 329 -87 245 -87 c 0,30,31
 210 -87 210 -87 179.5 -67 c 128,-1,32
 149 -47 149 -47 149 2 c 0,33,34
 149 41 149 41 179 132.5 c 128,-1,35
 209 224 209 224 239 341 c 128,-1,36
 269 458 269 458 269 559 c 0,37,38
 269 617 269 617 256 647.5 c 128,-1,39
 243 678 243 678 208 678 c 0,40,41
 161 678 161 678 136.5 629 c 128,-1,42
 112 580 112 580 112 525 c 0,43,44
 112 489 112 489 127 460 c 1,45,46
 80 460 80 460 57 482 c 128,-1,47
 34 504 34 504 34 540 c 0,0,1
EndSplineSet
EndChar

StartChar: W
Encoding: 87 87 58
Width: 953
GlyphClass: 2
Flags: W
LayerCount: 2
Fore
SplineSet
34 540 m 0,0,1
 34 604 34 604 92 662 c 128,-1,2
 150 720 150 720 227 720 c 0,3,4
 294 720 294 720 330 670 c 128,-1,5
 366 620 366 620 366 528 c 0,6,7
 366 428 366 428 301 222 c 0,8,9
 297 208 297 208 284 171.5 c 128,-1,10
 271 135 271 135 264 111.5 c 128,-1,11
 257 88 257 88 250 54 c 128,-1,12
 243 20 243 20 243 -8 c 0,13,14
 243 -27 243 -27 247.5 -34.5 c 128,-1,15
 252 -42 252 -42 265 -42 c 0,16,17
 315 -42 315 -42 382 42 c 128,-1,18
 449 126 449 126 498 230.5 c 128,-1,19
 547 335 547 335 557 404 c 1,20,21
 592 404 592 404 614.5 384 c 128,-1,22
 637 364 637 364 637 343 c 0,23,24
 637 324 637 324 600 238 c 0,25,26
 527 68 527 68 527 -4 c 0,27,28
 527 -25 527 -25 532.5 -33.5 c 128,-1,29
 538 -42 538 -42 553 -42 c 0,30,31
 594 -42 594 -42 654.5 19 c 128,-1,32
 715 80 715 80 769 166.5 c 128,-1,33
 823 253 823 253 862 354.5 c 128,-1,34
 901 456 901 456 901 530 c 0,35,36
 901 618 901 618 833 641 c 1,37,38
 867 697 867 697 907 697 c 2,39,40
 907 697 907 697 908 697 c 0,41,42
 935 697 935 697 957.5 665 c 128,-1,43
 980 633 980 633 980 575 c 0,44,45
 980 497 980 497 934.5 382 c 128,-1,46
 889 267 889 267 823 164 c 128,-1,47
 757 61 757 61 673.5 -13 c 128,-1,48
 590 -87 590 -87 523 -87 c 0,49,50
 484 -87 484 -87 458.5 -63.5 c 128,-1,51
 433 -40 433 -40 433 -1 c 0,52,53
 433 20 433 20 443 50 c 1,54,55
 334 -87 334 -87 247 -87 c 2,56,57
 247 -87 247 -87 246 -87 c 0,58,59
 233 -87 233 -87 219.5 -84 c 128,-1,60
 206 -81 206 -81 188.5 -73 c 128,-1,61
 171 -65 171 -65 160 -45.5 c 128,-1,62
 149 -26 149 -26 149 2 c 0,63,64
 149 43 149 43 193 186 c 0,65,66
 197 199 197 199 208.5 235 c 128,-1,67
 220 271 220 271 225 287 c 2,68,-1
 238 335 l 2,69,70
 247 367 247 367 251 388 c 2,71,-1
 260 438 l 2,72,73
 265 467 265 467 267 496 c 128,-1,74
 269 525 269 525 269 554 c 0,75,76
 269 618 269 618 255.5 649 c 128,-1,77
 242 680 242 680 208 680 c 0,78,79
 163 680 163 680 137.5 635 c 128,-1,80
 112 590 112 590 112 533 c 0,81,82
 112 488 112 488 127 460 c 1,83,84
 80 460 80 460 57 482 c 128,-1,85
 34 504 34 504 34 540 c 0,0,1
EndSplineSet
EndChar

StartChar: X
Encoding: 88 88 59
Width: 706
GlyphClass: 2
Flags: W
LayerCount: 2
Fore
SplineSet
45 -112 m 1,0,1
 49 -70 49 -70 59.5 -50 c 128,-1,2
 70 -30 70 -30 97 -3 c 0,3,4
 212 117 212 117 327 257 c 1,5,6
 318 335 318 335 313.5 416 c 128,-1,7
 309 497 309 497 307.5 539.5 c 128,-1,8
 306 582 306 582 301.5 619 c 128,-1,9
 297 656 297 656 285.5 670 c 128,-1,10
 274 684 274 684 251 684 c 0,11,12
 206 684 206 684 180 635.5 c 128,-1,13
 154 587 154 587 154 532 c 0,14,15
 154 497 154 497 167 468 c 1,16,17
 78 468 78 468 78 544 c 0,18,19
 78 609 78 609 138 666 c 128,-1,20
 198 723 198 723 273 723 c 0,21,22
 306 723 306 723 331 710 c 128,-1,23
 356 697 356 697 370.5 672.5 c 128,-1,24
 385 648 385 648 394 621.5 c 128,-1,25
 403 595 403 595 407 557.5 c 128,-1,26
 411 520 411 520 412 492 c 128,-1,27
 413 464 413 464 413.5 426 c 128,-1,28
 414 388 414 388 415 370 c 1,29,30
 550 552 550 552 637 728 c 1,31,32
 646 722 646 722 655.5 705.5 c 128,-1,33
 665 689 665 689 665 675 c 0,34,35
 665 636 665 636 595.5 531.5 c 128,-1,36
 526 427 526 427 417 294 c 1,37,38
 434 -29 434 -29 513 -29 c 0,39,40
 543 -29 543 -29 584 22.5 c 128,-1,41
 625 74 625 74 689 182 c 1,42,-1
 711 164 l 1,43,44
 644 32 644 32 596 -24 c 128,-1,45
 548 -80 548 -80 488 -80 c 0,46,47
 447 -80 447 -80 417.5 -56 c 128,-1,48
 388 -32 388 -32 371.5 12 c 128,-1,49
 355 56 355 56 346.5 96.5 c 128,-1,50
 338 137 338 137 333 191 c 1,51,52
 248 91 248 91 166 5 c 128,-1,53
 84 -81 84 -81 45 -112 c 1,0,1
EndSplineSet
EndChar

StartChar: Y
Encoding: 89 89 60
Width: 706
GlyphClass: 2
Flags: W
LayerCount: 2
Fore
SplineSet
32 536 m 0,0,1
 32 601 32 601 91.5 660.5 c 128,-1,2
 151 720 151 720 234 720 c 0,3,4
 291 720 291 720 321 689 c 128,-1,5
 351 658 351 658 351 610 c 0,6,7
 351 575 351 575 323 475 c 0,8,9
 287 346 287 346 287 293 c 0,10,11
 287 199 287 199 357 199 c 2,12,13
 357 199 357 199 358 199 c 0,14,15
 422 199 422 199 477 267.5 c 128,-1,16
 532 336 532 336 567 439 c 1,17,-1
 587 505 l 1,18,-1
 611 582 l 2,19,20
 621 614 621 614 634.5 648.5 c 128,-1,21
 648 683 648 683 663 701.5 c 128,-1,22
 678 720 678 720 693 720 c 0,23,24
 723 720 723 720 761 682 c 1,25,26
 709 602 709 602 683 523.5 c 128,-1,27
 657 445 657 445 596 193 c 0,28,29
 581 131 581 131 567 86 c 128,-1,30
 553 41 553 41 527 -14 c 128,-1,31
 501 -69 501 -69 470.5 -104 c 128,-1,32
 440 -139 440 -139 392 -163 c 128,-1,33
 344 -187 344 -187 286 -187 c 0,34,35
 222 -187 222 -187 182 -161 c 128,-1,36
 142 -135 142 -135 142 -88 c 0,37,38
 142 -56 142 -56 162 -31.5 c 128,-1,39
 182 -7 182 -7 218 1 c 1,40,41
 207 -48 207 -48 207 -67 c 0,42,43
 207 -152 207 -152 298 -152 c 0,44,45
 354 -152 354 -152 394.5 -119 c 128,-1,46
 435 -86 435 -86 457 -29.5 c 128,-1,47
 479 27 479 27 492 80 c 128,-1,48
 505 133 505 133 515.5 197.5 c 128,-1,49
 526 262 526 262 534 287 c 1,50,51
 446 145 446 145 325 145 c 0,52,53
 262 145 262 145 232 180 c 128,-1,54
 202 215 202 215 202 273 c 0,55,56
 202 323 202 323 234 443 c 128,-1,57
 266 563 266 563 266 606 c 0,58,59
 266 678 266 678 212 678 c 0,60,61
 163 678 163 678 136 626.5 c 128,-1,62
 109 575 109 575 109 515 c 0,63,64
 109 491 109 491 121 459 c 1,65,66
 32 459 32 459 32 536 c 0,0,1
EndSplineSet
EndChar

StartChar: Z
Encoding: 90 90 61
Width: 680
GlyphClass: 2
Flags: W
LayerCount: 2
Fore
SplineSet
-8 33 m 0,0,1
 -8 58 -8 58 12 74 c 128,-1,2
 32 90 32 90 77 90 c 0,3,4
 125 90 125 90 218 65 c 1,5,6
 303 150 303 150 406 314 c 1,7,8
 343 311 343 311 241 297 c 1,9,10
 245 382 245 382 399 382 c 0,11,12
 415 382 415 382 445 380 c 1,13,14
 522 511 522 511 557 600 c 1,15,16
 523 610 523 610 477 627 c 0,17,18
 337 678 337 678 275 678 c 0,19,20
 165 678 165 678 165 544 c 1,21,22
 169 510 169 510 174 501 c 1,23,24
 100 514 100 514 100 580 c 0,25,26
 100 648 100 648 152.5 684 c 128,-1,27
 205 720 205 720 305 720 c 0,28,29
 383 720 383 720 500 688.5 c 128,-1,30
 617 657 617 657 667 657 c 0,31,32
 700 657 700 657 717 661 c 1,33,34
 682 626 682 626 654 612 c 1,35,36
 606 500 606 500 530 373 c 1,37,38
 630 365 630 365 644 365 c 1,39,40
 620 333 620 333 595 325.5 c 128,-1,41
 570 318 570 318 496 316 c 1,42,43
 388 146 388 146 285 47 c 1,44,45
 454 -4 454 -4 524 -4 c 0,46,47
 569 -4 569 -4 614 18 c 1,48,49
 592 -40 592 -40 563.5 -63.5 c 128,-1,50
 535 -87 535 -87 490 -87 c 0,51,52
 466 -87 466 -87 440 -82 c 128,-1,53
 414 -77 414 -77 381 -65 c 128,-1,54
 348 -53 348 -53 331 -46 c 128,-1,55
 314 -39 314 -39 274.5 -21 c 128,-1,56
 235 -3 235 -3 229 0 c 1,57,58
 154 -54 154 -54 96 -54 c 0,59,60
 50 -54 50 -54 21 -26.5 c 128,-1,61
 -8 1 -8 1 -8 33 c 0,0,1
25 27 m 0,62,63
 25 10 25 10 43.5 -5.5 c 128,-1,64
 62 -21 62 -21 88 -21 c 0,65,66
 113 -21 113 -21 171 23 c 1,67,68
 94 53 94 53 65 53 c 0,69,70
 25 53 25 53 25 27 c 0,62,63
EndSplineSet
EndChar

StartChar: bracketleft
Encoding: 91 91 62
Width: 438
GlyphClass: 2
Flags: W
LayerCount: 2
Fore
SplineSet
48 -65 m 1,0,1
 55 -53 55 -53 61.5 -26 c 128,-1,2
 68 1 68 1 90 119 c 2,3,-1
 158 496 l 2,4,5
 178 612 178 612 215.5 658 c 128,-1,6
 253 704 253 704 295 704 c 0,7,8
 303 704 303 704 329 702.5 c 128,-1,9
 355 701 355 701 371 701 c 0,10,11
 439 701 439 701 482 725 c 1,12,13
 480 664 480 664 450.5 645.5 c 128,-1,14
 421 627 421 627 367 627 c 0,15,16
 341 627 341 627 259 643 c 1,17,18
 227 549 227 549 181 283 c 128,-1,19
 135 17 135 17 125 -18 c 1,20,21
 236 -17 236 -17 279.5 -13.5 c 128,-1,22
 323 -10 323 -10 370 3 c 1,23,24
 370 -44 370 -44 337.5 -65.5 c 128,-1,25
 305 -87 305 -87 233 -87 c 0,26,27
 152 -87 152 -87 48 -65 c 1,0,1
EndSplineSet
EndChar

StartChar: backslash
Encoding: 92 92 63
Width: 604
GlyphClass: 2
Flags: W
LayerCount: 2
Fore
SplineSet
173 724 m 1,0,1
 199 724 199 724 223 707.5 c 128,-1,2
 247 691 247 691 255 671 c 0,3,4
 284 596 284 596 333 395 c 1,5,-1
 425 26 l 2,6,7
 467 -142 467 -142 488 -167 c 1,8,9
 458 -162 458 -162 435 -144 c 128,-1,10
 412 -126 412 -126 391.5 -86.5 c 128,-1,11
 371 -47 371 -47 355.5 -3.5 c 128,-1,12
 340 40 340 40 319.5 121 c 128,-1,13
 299 202 299 202 281 278 c 2,14,-1
 233 482 l 1,15,-1
 173 724 l 1,0,1
EndSplineSet
EndChar

StartChar: bracketright
Encoding: 93 93 64
Width: 457
GlyphClass: 2
Flags: W
LayerCount: 2
Fore
SplineSet
14 -88 m 1,0,1
 20 -2 20 -2 132 -2 c 0,2,3
 152 -2 152 -2 196.5 -5.5 c 128,-1,4
 241 -9 241 -9 255 -10 c 1,5,6
 288 84 288 84 340.5 367 c 128,-1,7
 393 650 393 650 396 663 c 1,8,9
 211 663 211 663 125 640 c 1,10,11
 125 688 125 688 157 705 c 128,-1,12
 189 722 189 722 256 722 c 0,13,14
 341 722 341 722 443 701 c 1,15,16
 438 643 438 643 409 448.5 c 128,-1,17
 380 254 380 254 357 136 c 2,18,-1
 348 90 l 2,19,20
 345 72 345 72 333 38 c 128,-1,21
 321 4 321 4 308 -16 c 128,-1,22
 295 -36 295 -36 272 -52.5 c 128,-1,23
 249 -69 249 -69 221 -69 c 0,24,25
 75 -69 75 -69 14 -88 c 1,0,1
EndSplineSet
EndChar

StartChar: asciicircum
Encoding: 94 94 65
Width: 210
GlyphClass: 2
Flags: W
LayerCount: 2
Fore
SplineSet
1 464 m 0,0,1
 1 491 1 491 45.5 520.5 c 128,-1,2
 90 550 90 550 115 550 c 128,-1,3
 140 550 140 550 175 512 c 128,-1,4
 210 474 210 474 210 444 c 0,5,6
 210 418 210 418 185 406 c 1,7,8
 162 445 162 445 114 488 c 1,9,10
 59 470 59 470 14 440 c 1,11,12
 1 448 1 448 1 464 c 0,0,1
EndSplineSet
EndChar

StartChar: underscore
Encoding: 95 95 66
Width: 887
GlyphClass: 2
Flags: W
LayerCount: 2
Fore
SplineSet
-2 -73 m 1,0,1
 6 -18 6 -18 84.5 1.5 c 128,-1,2
 163 21 163 21 316 21 c 0,3,4
 421 21 421 21 567 12 c 128,-1,5
 713 3 713 3 756 2 c 1,6,7
 661 -60 661 -60 586 -60 c 0,8,9
 507 -60 507 -60 387.5 -55 c 128,-1,10
 268 -50 268 -50 247 -50 c 0,11,12
 155 -50 155 -50 110 -54.5 c 128,-1,13
 65 -59 65 -59 -2 -73 c 1,0,1
EndSplineSet
EndChar

StartChar: grave
Encoding: 96 96 67
Width: 138
GlyphClass: 2
Flags: W
LayerCount: 2
Fore
SplineSet
-4 519 m 1,0,1
 -3 538 -3 538 6.5 548 c 128,-1,2
 16 558 16 558 28 558 c 0,3,4
 56 558 56 558 97 512 c 128,-1,5
 138 466 138 466 138 445 c 0,6,7
 138 436 138 436 131 425 c 128,-1,8
 124 414 124 414 113 409 c 1,9,10
 64 467 64 467 -4 519 c 1,0,1
EndSplineSet
EndChar

StartChar: b
Encoding: 98 98 69
Width: 409
GlyphClass: 2
Flags: W
LayerCount: 2
Fore
SplineSet
-11 60 m 0,0,1
 -11 154 -11 154 49 312.5 c 128,-1,2
 109 471 109 471 186 592.5 c 128,-1,3
 263 714 263 714 307 714 c 0,4,5
 326 714 326 714 336.5 693 c 128,-1,6
 347 672 347 672 348 645 c 1,7,8
 348 597 348 597 316.5 522 c 128,-1,9
 285 447 285 447 230 373.5 c 128,-1,10
 175 300 175 300 116 266 c 1,11,12
 102 240 102 240 86.5 180.5 c 128,-1,13
 71 121 71 121 71 66 c 0,14,15
 71 -31 71 -31 123 -31 c 0,16,17
 149 -31 149 -31 179 -7.5 c 128,-1,18
 209 16 209 16 228 51 c 1,19,20
 192 71 192 71 172.5 106.5 c 128,-1,21
 153 142 153 142 153 183 c 0,22,23
 153 231 153 231 179 261.5 c 128,-1,24
 205 292 205 292 244 292 c 0,25,26
 278 292 278 292 298 266.5 c 128,-1,27
 318 241 318 241 318 192 c 0,28,29
 318 130 318 130 288 66 c 1,30,31
 291 66 291 66 296.5 65.5 c 128,-1,32
 302 65 302 65 306 65 c 0,33,34
 381 65 381 65 435 176 c 1,35,-1
 450 155 l 1,36,37
 423 93 423 93 386.5 63.5 c 128,-1,38
 350 34 350 34 293 34 c 0,39,40
 279 34 279 34 272 35 c 1,41,42
 204 -73 204 -73 105 -73 c 0,43,44
 49 -73 49 -73 19 -38 c 128,-1,45
 -11 -3 -11 -3 -11 60 c 0,0,1
135 329 m 1,46,47
 195 384 195 384 247.5 482 c 128,-1,48
 300 580 300 580 301 620 c 1,49,50
 279 612 279 612 222.5 518.5 c 128,-1,51
 166 425 166 425 135 329 c 1,46,47
202 178 m 0,52,53
 202 114 202 114 245 84 c 1,54,55
 263 124 263 124 263 169 c 0,56,57
 263 239 263 239 234 239 c 0,58,59
 221 239 221 239 211.5 221 c 128,-1,60
 202 203 202 203 202 178 c 0,52,53
EndSplineSet
EndChar

StartChar: c
Encoding: 99 99 70
Width: 333
GlyphClass: 2
Flags: W
LayerCount: 2
Fore
SplineSet
-6 76 m 0,0,1
 -6 174 -6 174 64 256 c 128,-1,2
 134 338 134 338 216 338 c 0,3,4
 256 338 256 338 275.5 318 c 128,-1,5
 295 298 295 298 295 268 c 128,-1,6
 295 238 295 238 280.5 212.5 c 128,-1,7
 266 187 266 187 245 187 c 0,8,9
 226 187 226 187 214 206 c 1,10,11
 246 228 246 228 246 281 c 0,12,13
 246 298 246 298 227 298 c 0,14,15
 178 298 178 298 124.5 218 c 128,-1,16
 71 138 71 138 71 70 c 0,17,18
 71 -5 71 -5 141 -5 c 2,19,20
 141 -5 141 -5 142 -5 c 0,21,22
 201 -5 201 -5 262.5 44.5 c 128,-1,23
 324 94 324 94 356 173 c 1,24,-1
 376 155 l 1,25,26
 340 64 340 64 265 4 c 128,-1,27
 190 -56 190 -56 113 -56 c 0,28,29
 59 -56 59 -56 26.5 -22.5 c 128,-1,30
 -6 11 -6 11 -6 76 c 0,0,1
EndSplineSet
EndChar

StartChar: d
Encoding: 100 100 71
Width: 491
GlyphClass: 2
Flags: W
LayerCount: 2
Fore
SplineSet
-16 60 m 0,0,1
 -16 116 -16 116 25 187.5 c 128,-1,2
 66 259 66 259 134 313 c 128,-1,3
 202 367 202 367 268 367 c 0,4,5
 317 367 317 367 317 335 c 0,6,7
 317 319 317 319 305 312 c 1,8,9
 297 323 297 323 270 323 c 0,10,11
 219 323 219 323 170.5 276 c 128,-1,12
 122 229 122 229 96 171.5 c 128,-1,13
 70 114 70 114 70 74 c 0,14,15
 70 32 70 32 102 32 c 0,16,17
 145 32 145 32 207 105 c 128,-1,18
 269 178 269 178 315 297 c 2,19,-1
 354 396 l 1,20,-1
 393 490 l 2,21,22
 417 548 417 548 434 581.5 c 128,-1,23
 451 615 451 615 471.5 651 c 128,-1,24
 492 687 492 687 509 703.5 c 128,-1,25
 526 720 526 720 541 720 c 0,26,27
 552 720 552 720 560.5 711.5 c 128,-1,28
 569 703 569 703 569 690 c 0,29,30
 569 669 569 669 533 594 c 2,31,-1
 456 434 l 1,32,33
 414 350 414 350 378 246 c 128,-1,34
 342 142 342 142 342 69 c 0,35,36
 342 45 342 45 346.5 36.5 c 128,-1,37
 351 28 351 28 362 28 c 0,38,39
 396 28 396 28 440 68 c 128,-1,40
 484 108 484 108 517 176 c 1,41,-1
 536 160 l 1,42,43
 503 78 503 78 445 26 c 128,-1,44
 387 -26 387 -26 330 -26 c 0,45,46
 257 -26 257 -26 257 61 c 0,47,48
 257 84 257 84 265 126 c 1,49,50
 216 55 216 55 164 12.5 c 128,-1,51
 112 -30 112 -30 69 -30 c 0,52,53
 36 -30 36 -30 10 -7 c 128,-1,54
 -16 16 -16 16 -16 60 c 0,0,1
EndSplineSet
EndChar

StartChar: e
Encoding: 101 101 72
Width: 341
GlyphClass: 2
Flags: W
LayerCount: 2
Fore
SplineSet
-17 77 m 0,0,1
 -17 168 -17 168 67.5 264.5 c 128,-1,2
 152 361 152 361 242 361 c 0,3,4
 315 361 315 361 315 294 c 0,5,6
 315 222 315 222 237 166 c 128,-1,7
 159 110 159 110 63 100 c 1,8,9
 61 90 61 90 61 77 c 0,10,11
 61 67 61 67 62.5 58 c 128,-1,12
 64 49 64 49 70.5 33.5 c 128,-1,13
 77 18 77 18 94.5 8.5 c 128,-1,14
 112 -1 112 -1 138 -1 c 0,15,16
 199 -1 199 -1 262.5 48.5 c 128,-1,17
 326 98 326 98 365 172 c 1,18,-1
 385 156 l 1,19,20
 345 66 345 66 270.5 11 c 128,-1,21
 196 -44 196 -44 116 -44 c 0,22,23
 53 -44 53 -44 18 -10 c 128,-1,24
 -17 24 -17 24 -17 77 c 0,0,1
74 137 m 1,25,26
 132 144 132 144 196.5 195 c 128,-1,27
 261 246 261 246 261 299 c 0,28,29
 261 318 261 318 244 318 c 0,30,31
 200 318 200 318 148 260 c 128,-1,32
 96 202 96 202 74 137 c 1,25,26
EndSplineSet
EndChar

StartChar: f
Encoding: 102 102 73
Width: 330
GlyphClass: 2
Flags: W
LayerCount: 2
Fore
SplineSet
-66 -184 m 0,0,1
 -66 -108 -66 -108 -22.5 42 c 128,-1,2
 21 192 21 192 83.5 343 c 128,-1,3
 146 494 146 494 226 607 c 128,-1,4
 306 720 306 720 370 720 c 0,5,6
 412 720 412 720 412 669 c 0,7,8
 412 586 412 586 328.5 476 c 128,-1,9
 245 366 245 366 139 296 c 1,10,-1
 123 256 l 1,11,12
 144 247 144 247 148 221 c 0,13,14
 155 180 155 180 159.5 160 c 128,-1,15
 164 140 164 140 174 116 c 128,-1,16
 184 92 184 92 199 82.5 c 128,-1,17
 214 73 214 73 236 73 c 0,18,19
 269 73 269 73 295.5 97 c 128,-1,20
 322 121 322 121 353 172 c 1,21,-1
 375 156 l 1,22,23
 345 95 345 95 305.5 64 c 128,-1,24
 266 33 266 33 231 33 c 0,25,26
 197 33 197 33 160 60 c 1,27,28
 159 -21 159 -21 136 -100 c 128,-1,29
 113 -179 113 -179 75.5 -229.5 c 128,-1,30
 38 -280 38 -280 -1 -280 c 0,31,32
 -25 -280 -25 -280 -45.5 -259 c 128,-1,33
 -66 -238 -66 -238 -66 -184 c 0,0,1
27 -218 m 0,34,35
 54 -218 54 -218 86.5 -117 c 128,-1,36
 119 -16 119 -16 119 60 c 0,37,38
 119 110 119 110 90 162 c 1,39,40
 11 -70 11 -70 11 -174 c 0,41,42
 11 -218 11 -218 27 -218 c 0,34,35
168 366 m 1,43,44
 253 445 253 445 306.5 523 c 128,-1,45
 360 601 360 601 360 631 c 0,46,47
 360 639 360 639 352 639 c 0,48,49
 317 639 317 639 268 563.5 c 128,-1,50
 219 488 219 488 168 366 c 1,43,44
EndSplineSet
EndChar

StartChar: g
Encoding: 103 103 74
Width: 403
GlyphClass: 2
Flags: W
LayerCount: 2
Fore
SplineSet
-18 -216 m 0,0,1
 -18 -192 -18 -192 -4 -168.5 c 128,-1,2
 10 -145 10 -145 26 -129.5 c 128,-1,3
 42 -114 42 -114 75.5 -94 c 128,-1,4
 109 -74 109 -74 126 -66 c 2,5,-1
 183 -38 l 1,6,7
 208 25 208 25 223 87 c 1,8,9
 142 -15 142 -15 71 -15 c 0,10,11
 31 -15 31 -15 7.5 13 c 128,-1,12
 -16 41 -16 41 -16 87 c 0,13,14
 -16 187 -16 187 76 267 c 128,-1,15
 168 347 168 347 261 347 c 0,16,17
 292 347 292 347 308.5 336 c 128,-1,18
 325 325 325 325 325 309 c 0,19,20
 325 299 325 299 319 291 c 128,-1,21
 313 283 313 283 309 282 c 1,22,23
 291 300 291 300 266 300 c 0,24,25
 265 300 265 300 264 300 c 0,26,27
 190 300 190 300 128 224.5 c 128,-1,28
 66 149 66 149 66 83 c 0,29,30
 66 42 66 42 97 42 c 0,31,32
 124 42 124 42 163.5 77 c 128,-1,33
 203 112 203 112 242 167 c 1,34,35
 253 223 253 223 268 247.5 c 128,-1,36
 283 272 283 272 311 272 c 0,37,38
 324 272 324 272 340 268 c 1,39,40
 340 242 340 242 318 164 c 128,-1,41
 296 86 296 86 265 2 c 1,42,43
 315 23 315 23 361.5 67.5 c 128,-1,44
 408 112 408 112 428 170 c 1,45,-1
 446 152 l 1,46,47
 424 89 424 89 367.5 38 c 128,-1,48
 311 -13 311 -13 252 -40 c 1,49,50
 153 -280 153 -280 50 -280 c 0,51,52
 22 -280 22 -280 2 -263.5 c 128,-1,53
 -18 -247 -18 -247 -18 -216 c 0,0,1
27 -206 m 0,54,55
 27 -234 27 -234 46 -234 c 0,56,57
 66 -234 66 -234 98 -197 c 128,-1,58
 130 -160 130 -160 164 -85 c 1,59,60
 99 -117 99 -117 63 -145.5 c 128,-1,61
 27 -174 27 -174 27 -206 c 0,54,55
EndSplineSet
EndChar

StartChar: h
Encoding: 104 104 75
Width: 494
GlyphClass: 2
Flags: W
LayerCount: 2
Fore
SplineSet
5 75 m 0,0,1
 5 165 5 165 60.5 319 c 128,-1,2
 116 473 116 473 190 593.5 c 128,-1,3
 264 714 264 714 310 714 c 0,4,5
 330 714 330 714 341.5 692 c 128,-1,6
 353 670 353 670 353 643 c 0,7,8
 353 569 353 569 279.5 443 c 128,-1,9
 206 317 206 317 119 266 c 1,10,11
 85 176 85 176 85 96 c 0,12,13
 85 92 85 92 85.5 85 c 128,-1,14
 86 78 86 78 86 75 c 1,15,16
 88 78 88 78 98.5 106 c 128,-1,17
 109 134 109 134 124 165 c 128,-1,18
 139 196 139 196 161 229.5 c 128,-1,19
 183 263 183 263 216 284.5 c 128,-1,20
 249 306 249 306 287 306 c 0,21,22
 333 306 333 306 354 276.5 c 128,-1,23
 375 247 375 247 375 207 c 0,24,25
 375 172 375 172 354 120 c 128,-1,26
 333 68 333 68 333 48 c 0,27,28
 333 16 333 16 359 16 c 2,29,30
 359 16 359 16 360 16 c 0,31,32
 393 16 393 16 441.5 64 c 128,-1,33
 490 112 490 112 521 177 c 1,34,-1
 537 160 l 1,35,36
 500 78 500 78 447.5 27 c 128,-1,37
 395 -24 395 -24 335 -24 c 0,38,39
 298 -24 298 -24 277.5 -4.5 c 128,-1,40
 257 15 257 15 257 46 c 0,41,42
 257 66 257 66 271.5 118 c 128,-1,43
 286 170 286 170 286 191 c 0,44,45
 286 233 286 233 250 233 c 0,46,47
 216 233 216 233 186.5 190.5 c 128,-1,48
 157 148 157 148 139.5 97.5 c 128,-1,49
 122 47 122 47 97 4.5 c 128,-1,50
 72 -38 72 -38 46 -38 c 0,51,52
 25 -38 25 -38 15 -6 c 128,-1,53
 5 26 5 26 5 75 c 0,0,1
140 330 m 1,54,55
 200 385 200 385 252.5 483 c 128,-1,56
 305 581 305 581 305 620 c 1,57,58
 284 612 284 612 228.5 520.5 c 128,-1,59
 173 429 173 429 140 330 c 1,54,55
EndSplineSet
EndChar

StartChar: i
Encoding: 105 105 76
Width: 244
GlyphClass: 2
Flags: W
LayerCount: 2
Fore
SplineSet
-8 59 m 0,0,1
 -8 99 -8 99 13 164.5 c 128,-1,2
 34 230 34 230 70 285 c 128,-1,3
 106 340 106 340 141 340 c 0,4,5
 154 340 154 340 162.5 332.5 c 128,-1,6
 171 325 171 325 171 311 c 0,7,8
 171 298 171 298 145.5 256.5 c 128,-1,9
 120 215 120 215 94 162.5 c 128,-1,10
 68 110 68 110 68 72 c 0,11,12
 68 41 68 41 79 30 c 128,-1,13
 90 19 90 19 113 19 c 0,14,15
 192 19 192 19 270 172 c 1,16,-1
 285 156 l 1,17,18
 250 68 250 68 196 19 c 128,-1,19
 142 -30 142 -30 80 -30 c 0,20,21
 38 -30 38 -30 15 -5 c 128,-1,22
 -8 20 -8 20 -8 59 c 0,0,1
148 460 m 0,23,24
 148 483 148 483 173.5 500.5 c 128,-1,25
 199 518 199 518 228 518 c 0,26,27
 271 518 271 518 271 481 c 0,28,29
 271 460 271 460 248 440.5 c 128,-1,30
 225 421 225 421 198 421 c 0,31,32
 177 421 177 421 162.5 431 c 128,-1,33
 148 441 148 441 148 460 c 0,23,24
EndSplineSet
EndChar

StartChar: j
Encoding: 106 106 77
Width: 227
GlyphClass: 2
Flags: W
LayerCount: 2
Fore
SplineSet
-197 -221 m 0,0,1
 -197 -172 -197 -172 -141 -119.5 c 128,-1,2
 -85 -67 -85 -67 0 -33 c 1,3,4
 36 56 36 56 57 170 c 1,5,-1
 40 143 l 2,6,7
 28 124 28 124 22 113 c 1,8,-1
 5 140 l 1,9,10
 22 171 22 171 44.5 230 c 128,-1,11
 67 289 67 289 84.5 319.5 c 128,-1,12
 102 350 102 350 124 350 c 0,13,14
 137 350 137 350 146 339.5 c 128,-1,15
 155 329 155 329 155 313 c 0,16,17
 155 286 155 286 134.5 192 c 128,-1,18
 114 98 114 98 83 6 c 1,19,20
 119 26 119 26 140.5 41 c 128,-1,21
 162 56 162 56 193 88.5 c 128,-1,22
 224 121 224 121 250 166 c 1,23,-1
 268 154 l 1,24,25
 250 117 250 117 230 89 c 128,-1,26
 210 61 210 61 186.5 40.5 c 128,-1,27
 163 20 163 20 148 9.5 c 128,-1,28
 133 -1 133 -1 104.5 -17 c 128,-1,29
 76 -33 76 -33 67 -39 c 1,30,31
 28 -143 28 -143 -23.5 -211.5 c 128,-1,32
 -75 -280 -75 -280 -134 -280 c 0,33,34
 -163 -280 -163 -280 -180 -264 c 128,-1,35
 -197 -248 -197 -248 -197 -221 c 0,0,1
-157 -215 m 0,36,37
 -157 -232 -157 -232 -145 -232 c 0,38,39
 -125 -232 -125 -232 -91 -193 c 128,-1,40
 -57 -154 -57 -154 -23 -85 c 1,41,42
 -88 -118 -88 -118 -122.5 -152.5 c 128,-1,43
 -157 -187 -157 -187 -157 -215 c 0,36,37
89 462 m 0,44,45
 89 486 89 486 115.5 504 c 128,-1,46
 142 522 142 522 171 522 c 0,47,48
 212 522 212 522 212 487 c 0,49,50
 212 462 212 462 190 443 c 128,-1,51
 168 424 168 424 139 424 c 0,52,53
 119 424 119 424 104 434 c 128,-1,54
 89 444 89 444 89 462 c 0,44,45
EndSplineSet
EndChar

StartChar: k
Encoding: 107 107 78
Width: 462
GlyphClass: 2
Flags: W
LayerCount: 2
Fore
SplineSet
2 44 m 0,0,1
 2 131 2 131 39.5 251.5 c 128,-1,2
 77 372 77 372 127 472 c 128,-1,3
 177 572 177 572 230 643 c 128,-1,4
 283 714 283 714 312 714 c 0,5,6
 329 714 329 714 340.5 693 c 128,-1,7
 352 672 352 672 352 641 c 0,8,9
 352 570 352 570 293 479 c 128,-1,10
 234 388 234 388 145 336 c 1,11,12
 92 211 92 211 83 95 c 1,13,14
 191 343 191 343 305 343 c 0,15,16
 345 343 345 343 375 314.5 c 128,-1,17
 405 286 405 286 405 245 c 0,18,19
 405 208 405 208 377 179.5 c 128,-1,20
 349 151 349 151 318 139.5 c 128,-1,21
 287 128 287 128 261 127 c 1,22,23
 287 10 287 10 340 10 c 0,24,25
 376 10 376 10 416 57.5 c 128,-1,26
 456 105 456 105 489 178 c 1,27,-1
 503 161 l 1,28,29
 475 80 475 80 423 21 c 128,-1,30
 371 -38 371 -38 317 -38 c 0,31,32
 278 -38 278 -38 249.5 -3.5 c 128,-1,33
 221 31 221 31 209.5 72 c 128,-1,34
 198 113 198 113 198 148 c 1,35,36
 327 177 327 177 327 237 c 0,37,38
 327 255 327 255 315.5 266 c 128,-1,39
 304 277 304 277 283 277 c 0,40,41
 187 277 187 277 91 20 c 0,42,43
 80 -10 80 -10 70 -20.5 c 128,-1,44
 60 -31 60 -31 41 -31 c 0,45,46
 2 -31 2 -31 2 44 c 0,0,1
174 404 m 1,47,48
 223 447 223 447 263.5 507.5 c 128,-1,49
 304 568 304 568 305 620 c 1,50,51
 289 613 289 613 250 550 c 128,-1,52
 211 487 211 487 174 404 c 1,47,48
EndSplineSet
EndChar

StartChar: l
Encoding: 108 108 79
Width: 245
GlyphClass: 2
Flags: W
LayerCount: 2
Fore
SplineSet
2 76 m 0,0,1
 2 168 2 168 65.5 325.5 c 128,-1,2
 129 483 129 483 206 601.5 c 128,-1,3
 283 720 283 720 320 720 c 0,4,5
 337 720 337 720 349 693.5 c 128,-1,6
 361 667 361 667 362 640 c 1,7,8
 362 594 362 594 327.5 509.5 c 128,-1,9
 293 425 293 425 228 330 c 128,-1,10
 163 235 163 235 92 179 c 1,11,12
 81 120 81 120 81 88 c 0,13,14
 81 87 81 87 81 85 c 0,15,16
 81 16 81 16 124 16 c 0,17,18
 159 16 159 16 198.5 62.5 c 128,-1,19
 238 109 238 109 269 175 c 1,20,-1
 293 162 l 1,21,22
 249 71 249 71 196 20.5 c 128,-1,23
 143 -30 143 -30 86 -30 c 0,24,25
 2 -30 2 -30 2 76 c 0,0,1
110 241 m 1,26,27
 190 328 190 328 253 451.5 c 128,-1,28
 316 575 316 575 316 629 c 1,29,30
 303 629 303 629 265 571 c 128,-1,31
 227 513 227 513 182 419.5 c 128,-1,32
 137 326 137 326 110 241 c 1,26,27
EndSplineSet
EndChar

StartChar: m
Encoding: 109 109 80
Width: 660
GlyphClass: 2
Flags: W
LayerCount: 2
Fore
SplineSet
-35 0 m 1,0,1
 25 241 25 241 29 256 c 0,2,3
 32 267 32 267 50.5 275.5 c 128,-1,4
 69 284 69 284 84 284 c 128,-1,5
 99 284 99 284 108.5 275 c 128,-1,6
 118 266 118 266 118 251 c 0,7,8
 118 235 118 235 104 179 c 1,9,10
 216 332 216 332 299 332 c 0,11,12
 362 332 362 332 362 248 c 0,13,14
 362 219 362 219 345 168 c 1,15,16
 415 271 415 271 490 271 c 0,17,18
 526 271 526 271 542.5 249.5 c 128,-1,19
 559 228 559 228 559 196 c 0,20,21
 559 168 559 168 542 113.5 c 128,-1,22
 525 59 525 59 525 44 c 0,23,24
 525 17 525 17 550 17 c 0,25,26
 613 17 613 17 685 173 c 1,27,-1
 702 152 l 1,28,29
 673 77 673 77 627.5 23 c 128,-1,30
 582 -31 582 -31 523 -31 c 0,31,32
 486 -31 486 -31 466 -9 c 128,-1,33
 446 13 446 13 446 47 c 0,34,35
 446 70 446 70 460 116 c 128,-1,36
 474 162 474 162 474 179 c 0,37,38
 474 209 474 209 451 209 c 0,39,40
 429 209 429 209 400 177 c 128,-1,41
 371 145 371 145 322 72 c 0,42,43
 309 54 309 54 290.5 19.5 c 128,-1,44
 272 -15 272 -15 267 -23 c 1,45,46
 249 -23 249 -23 228 -16 c 128,-1,47
 207 -9 207 -9 207 3 c 0,48,49
 207 10 207 10 240 98.5 c 128,-1,50
 273 187 273 187 273 223 c 0,51,52
 273 253 273 253 252 253 c 0,53,54
 211 253 211 253 139.5 162.5 c 128,-1,55
 68 72 68 72 32 -27 c 1,56,57
 14 -27 14 -27 -10.5 -17 c 128,-1,58
 -35 -7 -35 -7 -35 0 c 1,0,1
EndSplineSet
EndChar

StartChar: n
Encoding: 110 110 81
Width: 473
GlyphClass: 2
Flags: W
LayerCount: 2
Fore
SplineSet
-38 14 m 0,0,1
 -38 15 -38 15 -20 59 c 128,-1,2
 -2 103 -2 103 14 158 c 128,-1,3
 30 213 30 213 30 251 c 1,4,5
 52 275 52 275 82 275 c 0,6,7
 117 275 117 275 117 245 c 0,8,9
 117 218 117 218 100 156 c 1,10,11
 202 292 202 292 289 292 c 0,12,13
 329 292 329 292 351 264.5 c 128,-1,14
 373 237 373 237 373 199 c 0,15,16
 373 166 373 166 353.5 117.5 c 128,-1,17
 334 69 334 69 334 49 c 0,18,19
 334 20 334 20 358 20 c 0,20,21
 391 20 391 20 429.5 65.5 c 128,-1,22
 468 111 468 111 499 173 c 1,23,-1
 516 159 l 1,24,25
 437 -20 437 -20 337 -20 c 0,26,27
 299 -20 299 -20 278 -1 c 128,-1,28
 257 18 257 18 257 49 c 0,29,30
 257 69 257 69 271 114 c 128,-1,31
 285 159 285 159 285 181 c 0,32,33
 285 220 285 220 250 220 c 0,34,35
 222 220 222 220 190.5 197.5 c 128,-1,36
 159 175 159 175 125.5 131 c 128,-1,37
 92 87 92 87 74 60 c 2,38,-1
 27 -15 l 1,39,40
 -16 -15 -16 -15 -38 14 c 0,0,1
EndSplineSet
EndChar

StartChar: p
Encoding: 112 112 83
Width: 413
GlyphClass: 2
Flags: W
LayerCount: 2
Fore
SplineSet
-96 -255 m 1,0,1
 -34 -75 -34 -75 -13 19 c 128,-1,2
 8 113 8 113 38 350 c 0,3,4
 39 360 39 360 40.5 363.5 c 128,-1,5
 42 367 42 367 47 370 c 128,-1,6
 52 373 52 373 62 373 c 0,7,8
 91 373 91 373 106 357.5 c 128,-1,9
 121 342 121 342 121 320 c 0,10,11
 121 296 121 296 107 226 c 1,12,13
 181 340 181 340 270 340 c 0,14,15
 319 340 319 340 351 306.5 c 128,-1,16
 383 273 383 273 383 220 c 128,-1,17
 383 167 383 167 353.5 109.5 c 128,-1,18
 324 52 324 52 266 10 c 128,-1,19
 208 -32 208 -32 140 -32 c 0,20,21
 109 -32 109 -32 89.5 -24 c 128,-1,22
 70 -16 70 -16 70 -6 c 128,-1,23
 70 4 70 4 94 4 c 0,24,25
 183 6 183 6 243.5 70.5 c 128,-1,26
 304 135 304 135 304 208 c 0,27,28
 304 240 304 240 290 261 c 128,-1,29
 276 282 276 282 248 282 c 0,30,31
 202 282 202 282 155 231 c 128,-1,32
 108 180 108 180 85 128 c 1,33,34
 71 79 71 79 54 11 c 2,35,-1
 27 -103 l 2,36,37
 16 -148 16 -148 2.5 -192 c 128,-1,38
 -11 -236 -11 -236 -25.5 -258 c 128,-1,39
 -40 -280 -40 -280 -56 -280 c 0,40,41
 -68 -280 -68 -280 -81.5 -271 c 128,-1,42
 -95 -262 -95 -262 -96 -255 c 1,0,1
EndSplineSet
EndChar

StartChar: q
Encoding: 113 113 84
Width: 417
GlyphClass: 2
Flags: W
LayerCount: 2
Fore
SplineSet
-14 56 m 0,0,1
 -14 115 -14 115 28 185.5 c 128,-1,2
 70 256 70 256 139.5 306.5 c 128,-1,3
 209 357 209 357 277 357 c 0,4,5
 315 357 315 357 341 341 c 128,-1,6
 367 325 367 325 367 301 c 0,7,8
 367 274 367 274 346 263 c 1,9,10
 366 259 366 259 366 237 c 0,11,12
 366 219 366 219 330 156.5 c 128,-1,13
 294 94 294 94 279 29 c 1,14,15
 374 41 374 41 442 169 c 1,16,-1
 460 153 l 1,17,18
 393 18 393 18 279 -1 c 1,19,20
 296 -50 296 -50 296 -106 c 0,21,22
 296 -181 296 -181 274 -230.5 c 128,-1,23
 252 -280 252 -280 216 -280 c 0,24,25
 173 -280 173 -280 173 -201 c 0,26,27
 173 -153 173 -153 185.5 -72.5 c 128,-1,28
 198 8 198 8 218 77 c 1,29,30
 127 -36 127 -36 69 -36 c 0,31,32
 39 -36 39 -36 12.5 -12.5 c 128,-1,33
 -14 11 -14 11 -14 56 c 0,0,1
69 69 m 0,34,35
 69 50 69 50 77.5 37.5 c 128,-1,36
 86 25 86 25 102 25 c 0,37,38
 120 25 120 25 142.5 42 c 128,-1,39
 165 59 165 59 192.5 95 c 128,-1,40
 220 131 220 131 238 157 c 2,41,-1
 287 230 l 2,42,43
 311 267 311 267 326 267 c 1,44,45
 326 289 326 289 311 302 c 128,-1,46
 296 315 296 315 271 315 c 0,47,48
 231 315 231 315 192 287 c 128,-1,49
 153 259 153 259 127 219 c 128,-1,50
 101 179 101 179 85 138 c 128,-1,51
 69 97 69 97 69 69 c 0,34,35
233 -194 m 0,52,53
 233 -215 233 -215 237 -215 c 0,54,55
 253 -215 253 -215 253 -100 c 0,56,57
 253 -72 253 -72 250 -53 c 1,58,59
 233 -135 233 -135 233 -194 c 0,52,53
EndSplineSet
EndChar

StartChar: r
Encoding: 114 114 85
Width: 363
GlyphClass: 2
Flags: W
LayerCount: 2
Fore
SplineSet
0 130 m 1,0,1
 46 212 46 212 81 311 c 1,2,3
 71 321 71 321 71 338 c 0,4,5
 71 364 71 364 87 387 c 128,-1,6
 103 410 103 410 118 410 c 0,7,8
 128 410 128 410 134.5 398 c 128,-1,9
 141 386 141 386 141 378 c 0,10,11
 141 374 141 374 135.5 358.5 c 128,-1,12
 130 343 130 343 130 341 c 0,13,14
 131 332 131 332 148 319.5 c 128,-1,15
 165 307 165 307 185 295 c 128,-1,16
 205 283 205 283 221.5 259.5 c 128,-1,17
 238 236 238 236 238 207 c 0,18,19
 238 175 238 175 212 119 c 128,-1,20
 186 63 186 63 186 47 c 0,21,22
 186 24 186 24 211 24 c 0,23,24
 255 24 255 24 309 73.5 c 128,-1,25
 363 123 363 123 385 171 c 1,26,-1
 409 153 l 1,27,28
 378 83 378 83 313.5 28.5 c 128,-1,29
 249 -26 249 -26 185 -26 c 0,30,31
 148 -26 148 -26 125 -6.5 c 128,-1,32
 102 13 102 13 102 46 c 0,33,34
 102 75 102 75 130.5 138 c 128,-1,35
 159 201 159 201 159 224 c 0,36,37
 159 262 159 262 109 288 c 1,38,39
 70 192 70 192 15 101 c 1,40,-1
 0 130 l 1,0,1
EndSplineSet
Substitution2: "Single Substitution lookup 6 subtable" r.init
Substitution2: "'init' Initial Forms in Latin lookup 4 subtable" r.init
EndChar

StartChar: s
Encoding: 115 115 86
Width: 351
GlyphClass: 2
Flags: W
LayerCount: 2
Fore
SplineSet
-20 86 m 0,0,1
 -20 121 -20 121 -7.5 139 c 128,-1,2
 5 157 5 157 24.5 165 c 128,-1,3
 44 173 44 173 46 175 c 0,4,5
 110 241 110 241 143 312 c 1,6,-1
 143 322 l 2,7,8
 143 395 143 395 188 395 c 0,9,10
 210 395 210 395 212 375 c 0,11,12
 212 372 212 372 209.5 360.5 c 128,-1,13
 207 349 207 349 207 339 c 0,14,15
 207 312 207 312 236 230.5 c 128,-1,16
 265 149 265 149 265 101 c 0,17,18
 265 84 265 84 261 60 c 1,19,20
 329 77 329 77 379 173 c 1,21,-1
 391 164 l 1,22,23
 350 45 350 45 252 30 c 1,24,25
 236 -10 236 -10 200 -30.5 c 128,-1,26
 164 -51 164 -51 117 -51 c 0,27,28
 47 -51 47 -51 13.5 -10.5 c 128,-1,29
 -20 30 -20 30 -20 86 c 0,0,1
35 84 m 0,30,31
 35 48 35 48 55 20.5 c 128,-1,32
 75 -7 75 -7 110 -7 c 0,33,34
 154 -7 154 -7 174 32 c 1,35,36
 135 40 135 40 102 62.5 c 128,-1,37
 69 85 69 85 49 111 c 1,38,39
 35 108 35 108 35 84 c 0,30,31
64 147 m 1,40,41
 81 118 81 118 112 94.5 c 128,-1,42
 143 71 143 71 182 62 c 1,43,44
 185 71 185 71 185 93 c 0,45,46
 185 114 185 114 181 139.5 c 128,-1,47
 177 165 177 165 174 179.5 c 128,-1,48
 171 194 171 194 162 228.5 c 128,-1,49
 153 263 153 263 151 272 c 1,50,51
 102 187 102 187 64 147 c 1,40,41
EndSplineSet
Substitution2: "'fina' Terminal Forms in Latin lookup 5 subtable" s.salt
EndChar

StartChar: t
Encoding: 116 116 87
Width: 288
GlyphClass: 2
Flags: W
LayerCount: 2
Fore
SplineSet
-7 59 m 0,0,1
 -7 137 -7 137 48 287 c 1,2,3
 22 292 22 292 13 296 c 1,4,-1
 13 327 l 1,5,6
 37 324 37 324 61 322 c 1,7,8
 106 435 106 435 157.5 516 c 128,-1,9
 209 597 209 597 241 597 c 0,10,11
 252 597 252 597 260.5 589 c 128,-1,12
 269 581 269 581 269 568 c 0,13,14
 269 550 269 550 250 514.5 c 128,-1,15
 231 479 231 479 196 420 c 128,-1,16
 161 361 161 361 140 319 c 1,17,18
 255 319 255 319 323 326 c 1,19,-1
 323 293 l 1,20,21
 204 281 204 281 122 281 c 1,22,23
 70 158 70 158 70 80 c 0,24,25
 70 39 70 39 83 22 c 128,-1,26
 96 5 96 5 124 5 c 0,27,28
 174 5 174 5 226.5 50.5 c 128,-1,29
 279 96 279 96 318 174 c 1,30,-1
 332 164 l 1,31,32
 291 71 291 71 226 12.5 c 128,-1,33
 161 -46 161 -46 91 -46 c 0,34,35
 45 -46 45 -46 19 -19.5 c 128,-1,36
 -7 7 -7 7 -7 59 c 0,0,1
EndSplineSet
EndChar

StartChar: u
Encoding: 117 117 88
Width: 441
GlyphClass: 2
Flags: W
LayerCount: 2
Fore
SplineSet
-1 74 m 0,0,1
 -1 131 -1 131 32 214.5 c 128,-1,2
 65 298 65 298 90 298 c 0,3,4
 111 298 111 298 137 272 c 1,5,6
 116 241 116 241 93.5 183 c 128,-1,7
 71 125 71 125 71 83 c 0,8,9
 71 23 71 23 101 23 c 0,10,11
 127 23 127 23 165 72.5 c 128,-1,12
 203 122 203 122 229.5 173 c 128,-1,13
 256 224 256 224 278 273 c 1,14,15
 338 263 338 263 338 239 c 0,16,17
 338 237 338 237 322 201.5 c 128,-1,18
 306 166 306 166 290.5 120 c 128,-1,19
 275 74 275 74 275 46 c 0,20,21
 275 11 275 11 301 11 c 2,22,23
 301 11 301 11 302 11 c 0,24,25
 335 11 335 11 383.5 55.5 c 128,-1,26
 432 100 432 100 467 171 c 1,27,-1
 482 159 l 1,28,29
 448 78 448 78 388 24 c 128,-1,30
 328 -30 328 -30 272 -30 c 0,31,32
 253 -30 253 -30 239.5 -22.5 c 128,-1,33
 226 -15 226 -15 219 -5 c 128,-1,34
 212 5 212 5 208 22 c 128,-1,35
 204 39 204 39 203.5 51 c 128,-1,36
 203 63 203 63 203 82 c 1,37,38
 181 48 181 48 165 27.5 c 128,-1,39
 149 7 149 7 124 -11.5 c 128,-1,40
 99 -30 99 -30 76 -30 c 0,41,42
 43 -30 43 -30 21 1 c 128,-1,43
 -1 32 -1 32 -1 74 c 0,0,1
EndSplineSet
EndChar

StartChar: v
Encoding: 118 118 89
Width: 410
GlyphClass: 2
Flags: W
LayerCount: 2
Fore
SplineSet
8 81 m 0,0,1
 8 109 8 109 12 200 c 0,2,3
 13 232 13 232 19 242 c 128,-1,4
 25 252 25 252 50 252 c 0,5,6
 73 252 73 252 78 243.5 c 128,-1,7
 83 235 83 235 83 204 c 0,8,9
 83 184 83 184 80.5 140 c 128,-1,10
 78 96 78 96 78 74 c 0,11,12
 78 40 78 40 81.5 27 c 128,-1,13
 85 14 85 14 96 14 c 0,14,15
 128 14 128 14 173.5 77.5 c 128,-1,16
 219 141 219 141 253 218 c 1,17,18
 255 282 255 282 268 307 c 128,-1,19
 281 332 281 332 305 332 c 0,20,21
 327 332 327 332 337.5 318 c 128,-1,22
 348 304 348 304 348 288 c 0,23,24
 348 279 348 279 332 246 c 128,-1,25
 316 213 316 213 316 164 c 0,26,27
 316 94 316 94 359 94 c 0,28,29
 399 94 399 94 437 168 c 1,30,-1
 448 159 l 1,31,32
 406 60 406 60 342 60 c 0,33,34
 281 60 281 60 257 153 c 1,35,36
 152 -39 152 -39 74 -39 c 0,37,38
 8 -39 8 -39 8 81 c 0,0,1
EndSplineSet
EndChar

StartChar: w
Encoding: 119 119 90
Width: 631
GlyphClass: 2
Flags: W
LayerCount: 2
Fore
SplineSet
-1 74 m 0,0,1
 -1 132 -1 132 32.5 215.5 c 128,-1,2
 66 299 66 299 90 299 c 0,3,4
 99 299 99 299 115.5 290 c 128,-1,5
 132 281 132 281 136 270 c 1,6,7
 115 240 115 240 93 182 c 128,-1,8
 71 124 71 124 71 82 c 0,9,10
 71 23 71 23 102 23 c 0,11,12
 153 23 153 23 245 202 c 1,13,14
 257 263 257 263 265 278 c 128,-1,15
 273 293 273 293 288 293 c 0,16,17
 328 293 328 293 328 264 c 0,18,19
 328 261 328 261 323 246 c 0,20,21
 301 175 301 175 301 65 c 0,22,23
 301 14 301 14 319 14 c 0,24,25
 345 14 345 14 387.5 72.5 c 128,-1,26
 430 131 430 131 466 205 c 1,27,28
 466 332 466 332 521 332 c 0,29,30
 543 332 543 332 554 317.5 c 128,-1,31
 565 303 565 303 565 289 c 0,32,33
 565 284 565 284 552 255 c 1,34,35
 532 215 532 215 532 166 c 0,36,37
 532 92 532 92 576 92 c 0,38,39
 614 92 614 92 653 168 c 1,40,-1
 672 153 l 1,41,42
 634 62 634 62 568 62 c 0,43,44
 506 62 506 62 476 145 c 1,45,46
 371 -38 371 -38 291 -38 c 0,47,48
 236 -38 236 -38 232 62 c 0,49,50
 232 67 232 67 233 93 c 128,-1,51
 234 119 234 119 235 130 c 1,52,53
 147 -30 147 -30 78 -30 c 2,54,55
 78 -30 78 -30 77 -30 c 0,56,57
 44 -30 44 -30 21.5 0.5 c 128,-1,58
 -1 31 -1 31 -1 74 c 0,0,1
EndSplineSet
EndChar

StartChar: x
Encoding: 120 120 91
Width: 430
GlyphClass: 2
Flags: W
LayerCount: 2
Fore
SplineSet
8 144 m 1,0,1
 16 158 16 158 28.5 185.5 c 128,-1,2
 41 213 41 213 51 232 c 128,-1,3
 61 251 61 251 75.5 270.5 c 128,-1,4
 90 290 90 290 111 300.5 c 128,-1,5
 132 311 132 311 159 311 c 0,6,7
 197 311 197 311 218 289.5 c 128,-1,8
 239 268 239 268 251 226 c 1,9,10
 357 332 357 332 384 332 c 0,11,12
 392 332 392 332 402 325 c 128,-1,13
 412 318 412 318 417 306 c 1,14,15
 398 306 398 306 354.5 269 c 128,-1,16
 311 232 311 232 259 175 c 1,17,18
 260 168 260 168 262.5 145.5 c 128,-1,19
 265 123 265 123 268 104.5 c 128,-1,20
 271 86 271 86 276.5 66 c 128,-1,21
 282 46 282 46 292 34 c 128,-1,22
 302 22 302 22 316 22 c 0,23,24
 347 22 347 22 389.5 72 c 128,-1,25
 432 122 432 122 455 171 c 1,26,-1
 471 156 l 1,27,28
 443 83 443 83 390.5 28 c 128,-1,29
 338 -27 338 -27 285 -27 c 0,30,31
 214 -27 214 -27 194 96 c 1,32,33
 133 27 133 27 72 -50 c 0,34,35
 64 -59 64 -59 55 -59 c 0,36,37
 47 -59 47 -59 42 -52.5 c 128,-1,38
 37 -46 37 -46 37 -39 c 0,39,40
 37 0 37 0 186 158 c 1,41,42
 181 188 181 188 178.5 202 c 128,-1,43
 176 216 176 216 171 232 c 128,-1,44
 166 248 166 248 159 253.5 c 128,-1,45
 152 259 152 259 141 259 c 0,46,47
 128 259 128 259 116 251 c 128,-1,48
 104 243 104 243 92 226.5 c 128,-1,49
 80 210 80 210 70.5 194.5 c 128,-1,50
 61 179 61 179 47.5 154.5 c 128,-1,51
 34 130 34 130 25 116 c 1,52,-1
 8 144 l 1,0,1
EndSplineSet
EndChar

StartChar: y
Encoding: 121 121 92
Width: 400
GlyphClass: 2
Flags: W
LayerCount: 2
Fore
SplineSet
-20 -215 m 0,0,1
 -20 -191 -20 -191 -6 -168 c 128,-1,2
 8 -145 8 -145 24 -129 c 128,-1,3
 40 -113 40 -113 73.5 -93.5 c 128,-1,4
 107 -74 107 -74 125 -66 c 2,5,-1
 179 -39 l 1,6,7
 196 4 196 4 227 117 c 1,8,9
 150 8 150 8 83 8 c 0,10,11
 50 8 50 8 24 28 c 128,-1,12
 -2 48 -2 48 -2 91 c 0,13,14
 -2 145 -2 145 32 227 c 128,-1,15
 66 309 66 309 90 309 c 0,16,17
 100 309 100 309 120 298.5 c 128,-1,18
 140 288 140 288 144 276 c 1,19,20
 125 250 125 250 102.5 189 c 128,-1,21
 80 128 80 128 80 93 c 0,22,23
 80 56 80 56 108 56 c 2,24,25
 108 56 108 56 109 56 c 0,26,27
 165 56 165 56 241 177 c 0,28,29
 242 179 242 179 245.5 199.5 c 128,-1,30
 249 220 249 220 253 234 c 128,-1,31
 257 248 257 248 271 261.5 c 128,-1,32
 285 275 285 275 305 275 c 0,33,34
 309 275 309 275 337 271 c 1,35,36
 336 246 336 246 313.5 162 c 128,-1,37
 291 78 291 78 261 -2 c 1,38,39
 375 45 375 45 422 167 c 1,40,-1
 439 153 l 1,41,42
 401 28 401 28 248 -40 c 1,43,44
 147 -280 147 -280 48 -280 c 0,45,46
 20 -280 20 -280 0 -263.5 c 128,-1,47
 -20 -247 -20 -247 -20 -215 c 0,0,1
19 -215 m 0,48,49
 19 -243 19 -243 38 -243 c 0,50,51
 59 -243 59 -243 93 -200.5 c 128,-1,52
 127 -158 127 -158 160 -83 c 1,53,54
 19 -154 19 -154 19 -215 c 0,48,49
EndSplineSet
EndChar

StartChar: z
Encoding: 122 122 93
Width: 331
GlyphClass: 2
Flags: W
LayerCount: 2
Fore
SplineSet
-55 -173.5 m 128,-1,1
 -42 -151 -42 -151 -14 -129 c 128,-1,2
 14 -107 14 -107 41 -91 c 2,3,-1
 111 -50 l 2,4,5
 155 -24 155 -24 182 -6 c 1,6,7
 179 59 179 59 98 117 c 1,8,9
 153 132 153 132 186 174 c 128,-1,10
 219 216 219 216 219 257 c 0,11,12
 219 304 219 304 178 304 c 0,13,14
 161 304 161 304 143.5 293.5 c 128,-1,15
 126 283 126 283 112 267.5 c 128,-1,16
 98 252 98 252 82 226.5 c 128,-1,17
 66 201 66 201 54 178 c 2,18,-1
 27 123 l 1,19,-1
 8 139 l 1,20,21
 46 243 46 243 87.5 298 c 128,-1,22
 129 353 129 353 193 353 c 0,23,24
 236 353 236 353 264 329.5 c 128,-1,25
 292 306 292 306 292 263 c 0,26,27
 292 217 292 217 260 175 c 128,-1,28
 228 133 228 133 179 108 c 1,29,30
 222 74 222 74 244 26 c 1,31,32
 325 88 325 88 355 166 c 1,33,-1
 368 150 l 1,34,35
 338 62 338 62 254 0 c 1,36,37
 258 -18 258 -18 258 -33 c 0,38,39
 258 -123 258 -123 181.5 -201.5 c 128,-1,40
 105 -280 105 -280 8 -280 c 0,41,42
 -68 -280 -68 -280 -68 -223 c 0,43,0
 -68 -196 -68 -196 -55 -173.5 c 128,-1,1
-33 -215 m 0,44,45
 -33 -242 -33 -242 -6 -242 c 0,46,47
 39 -242 39 -242 103.5 -185 c 128,-1,48
 168 -128 168 -128 180 -46 c 1,49,50
 158 -60 158 -60 121 -82 c 2,51,-1
 61 -116 l 2,52,53
 39 -129 39 -129 14.5 -147 c 128,-1,54
 -10 -165 -10 -165 -21.5 -181.5 c 128,-1,55
 -33 -198 -33 -198 -33 -215 c 0,44,45
EndSplineSet
EndChar

StartChar: braceleft
Encoding: 123 123 94
Width: 304
GlyphClass: 2
Flags: W
LayerCount: 2
Fore
SplineSet
62 -15 m 0,0,1
 62 19 62 19 98.5 106 c 128,-1,2
 135 193 135 193 135 237 c 0,3,4
 135 297 135 297 83 337 c 1,5,6
 131 341 131 341 154 382.5 c 128,-1,7
 177 424 177 424 181 479 c 2,8,-1
 190 590 l 2,9,10
 194 644 194 644 218 682 c 128,-1,11
 242 720 242 720 291 720 c 0,12,13
 353 720 353 720 353 681 c 0,14,15
 353 667 353 667 345 652 c 1,16,17
 317 667 317 667 306 667 c 0,18,19
 297 667 297 667 289.5 661.5 c 128,-1,20
 282 656 282 656 276.5 643.5 c 128,-1,21
 271 631 271 631 267 619.5 c 128,-1,22
 263 608 263 608 260 586 c 2,23,-1
 255 551 l 2,24,25
 253 537 253 537 250 511 c 0,26,27
 243 452 243 452 238.5 422.5 c 128,-1,28
 234 393 234 393 220 361 c 128,-1,29
 206 329 206 329 184 321 c 1,30,31
 205 297 205 297 205 253 c 0,32,33
 205 192 205 192 168.5 101 c 128,-1,34
 132 10 132 10 132 -23 c 0,35,36
 132 -49 132 -49 162 -49 c 0,37,38
 179 -49 179 -49 194 -39 c 1,39,40
 191 -87 191 -87 140 -87 c 0,41,42
 99 -87 99 -87 80.5 -66.5 c 128,-1,43
 62 -46 62 -46 62 -15 c 0,0,1
EndSplineSet
EndChar

StartChar: bar
Encoding: 124 124 95
Width: 294
GlyphClass: 2
Flags: W
LayerCount: 2
Fore
SplineSet
78 -132 m 1,0,1
 105 -61 105 -61 122.5 124 c 128,-1,2
 140 309 140 309 152 484 c 128,-1,3
 164 659 164 659 176 698 c 1,4,5
 216 682 216 682 216 610 c 0,6,7
 215 503 215 503 208 320 c 128,-1,8
 201 137 201 137 193 55 c 0,9,10
 177 -132 177 -132 78 -132 c 1,0,1
EndSplineSet
EndChar

StartChar: braceright
Encoding: 125 125 96
Width: 301
GlyphClass: 2
Flags: W
LayerCount: 2
Fore
SplineSet
4 -35 m 0,0,1
 4 -22 4 -22 6 -14 c 1,2,3
 33 -32 33 -32 49 -32 c 0,4,5
 74 -32 74 -32 86 12 c 128,-1,6
 98 56 98 56 107 134 c 0,7,8
 114 192 114 192 119 224 c 128,-1,9
 124 256 124 256 140 294.5 c 128,-1,10
 156 333 156 333 180 349 c 1,11,12
 157 376 157 376 157 417 c 0,13,14
 157 464 157 464 191.5 554 c 128,-1,15
 226 644 226 644 226 659 c 0,16,17
 226 680 226 680 204 680 c 0,18,19
 189 680 189 680 173 669 c 1,20,21
 172 672 172 672 172 678 c 0,22,23
 172 700 172 700 189 714.5 c 128,-1,24
 206 729 206 729 239 729 c 0,25,26
 301 729 301 729 301 682 c 0,27,28
 301 660 301 660 265 573.5 c 128,-1,29
 229 487 229 487 229 433 c 0,30,31
 229 366 229 366 279 336 c 1,32,33
 229 324 229 324 205 275.5 c 128,-1,34
 181 227 181 227 177 167 c 2,35,-1
 169 50 l 2,36,37
 165 -8 165 -8 142 -47.5 c 128,-1,38
 119 -87 119 -87 70 -87 c 0,39,40
 4 -87 4 -87 4 -35 c 0,0,1
EndSplineSet
EndChar

StartChar: asciitilde
Encoding: 126 126 97
Width: 477
GlyphClass: 2
Flags: W
LayerCount: 2
Fore
SplineSet
59 159 m 1,0,1
 102 208 102 208 145 208 c 0,2,3
 166 208 166 208 238 188.5 c 128,-1,4
 310 169 310 169 335 169 c 0,5,6
 346 169 346 169 394 177 c 1,7,8
 341 123 341 123 301 123 c 0,9,10
 278 123 278 123 208 144.5 c 128,-1,11
 138 166 138 166 113 166 c 128,-1,12
 88 166 88 166 59 159 c 1,0,1
EndSplineSet
EndChar

StartChar: exclamdown
Encoding: 161 161 98
Width: 297
GlyphClass: 2
Flags: W
LayerCount: 2
Fore
SplineSet
-60 -219 m 0,0,1
 -60 -179 -60 -179 58 51.5 c 128,-1,2
 176 282 176 282 236 367 c 1,3,-1
 248 363 l 1,4,5
 248 314 248 314 194 174 c 1,6,-1
 155 75 l 1,7,-1
 117 -19 l 2,8,9
 93 -78 93 -78 76 -111 c 128,-1,10
 59 -144 59 -144 38.5 -180 c 128,-1,11
 18 -216 18 -216 0.5 -232.5 c 128,-1,12
 -17 -249 -17 -249 -32 -249 c 0,13,14
 -43 -249 -43 -249 -51.5 -240 c 128,-1,15
 -60 -231 -60 -231 -60 -219 c 0,0,1
210 431 m 0,16,17
 210 449 210 449 228.5 465 c 128,-1,18
 247 481 247 481 269 481 c 0,19,20
 309 481 309 481 309 447 c 0,21,22
 309 429 309 429 288.5 414.5 c 128,-1,23
 268 400 268 400 244 400 c 0,24,25
 210 400 210 400 210 431 c 0,16,17
EndSplineSet
EndChar

StartChar: cent
Encoding: 162 162 99
Width: 426
GlyphClass: 2
Flags: W
LayerCount: 2
Fore
SplineSet
60 241 m 0,0,1
 60 328 60 328 123 405 c 128,-1,2
 186 482 186 482 266 505 c 1,3,4
 282 587 282 587 294 670 c 0,5,6
 296 682 296 682 299.5 690 c 128,-1,7
 303 698 303 698 317 707.5 c 128,-1,8
 331 717 331 717 355 722 c 1,9,-1
 317 512 l 1,10,11
 356 512 356 512 378 490.5 c 128,-1,12
 400 469 400 469 400 429 c 0,13,14
 400 401 400 401 388.5 379.5 c 128,-1,15
 377 358 377 358 355 358 c 0,16,17
 337 358 337 358 322 377 c 1,18,19
 331 381 331 381 338 399 c 128,-1,20
 345 417 345 417 345 435 c 0,21,22
 345 450 345 450 335 460 c 128,-1,23
 325 470 325 470 309 470 c 1,24,25
 266 234 266 234 252 166 c 1,26,27
 317 179 317 179 369 224 c 1,28,-1
 391 200 l 1,29,30
 319 135 319 135 243 117 c 1,31,32
 210 -33 210 -33 176.5 -97.5 c 128,-1,33
 143 -162 143 -162 75 -162 c 1,34,35
 119 -115 119 -115 177 110 c 1,36,37
 125 112 125 112 92.5 146.5 c 128,-1,38
 60 181 60 181 60 241 c 0,0,1
138 236 m 0,39,40
 138 173 138 173 190 162 c 1,41,42
 218 271 218 271 255 449 c 1,43,44
 205 416 205 416 171.5 353.5 c 128,-1,45
 138 291 138 291 138 236 c 0,39,40
EndSplineSet
EndChar

StartChar: sterling
Encoding: 163 163 100
Width: 691
GlyphClass: 2
Flags: W
LayerCount: 2
Fore
SplineSet
-10 40 m 0,0,1
 -10 90 -10 90 72 90 c 0,2,3
 121 90 121 90 198 70 c 1,4,5
 226 120 226 120 242 165 c 1,6,7
 134 152 134 152 123 150 c 1,8,9
 127 230 127 230 266 234 c 1,10,-1
 275 263 l 1,11,12
 251 266 251 266 202 266 c 0,13,14
 163 266 163 266 135 263 c 1,15,16
 135 291 135 291 184 311.5 c 128,-1,17
 233 332 233 332 296 332 c 1,18,-1
 317 394 l 1,19,20
 269 410 269 410 241 439.5 c 128,-1,21
 213 469 213 469 213 502 c 0,22,23
 213 534 213 534 236 561.5 c 128,-1,24
 259 589 259 589 296 589 c 1,25,26
 277 564 277 564 277 524 c 0,27,28
 277 460 277 460 329 429 c 1,29,30
 350 494 350 494 370.5 541.5 c 128,-1,31
 391 589 391 589 418 632 c 128,-1,32
 445 675 445 675 478 697.5 c 128,-1,33
 511 720 511 720 550 720 c 0,34,35
 592 720 592 720 626 695 c 128,-1,36
 660 670 660 670 660 612 c 0,37,38
 660 576 660 576 644.5 537 c 128,-1,39
 629 498 629 498 599 462 c 128,-1,40
 569 426 569 426 515.5 403 c 128,-1,41
 462 380 462 380 395 380 c 1,42,43
 384 351 384 351 378 329 c 1,44,-1
 428 323 l 2,45,46
 461 319 461 319 488 317.5 c 128,-1,47
 515 316 515 316 545 316 c 1,48,49
 521 284 521 284 491 277 c 128,-1,50
 461 270 461 270 357 268 c 1,51,52
 344 236 344 236 343 232 c 1,53,54
 354 231 354 231 419.5 224.5 c 128,-1,55
 485 218 485 218 526 217 c 1,56,57
 502 185 502 185 470 178 c 128,-1,58
 438 171 438 171 318 169 c 1,59,60
 284 91 284 91 258 54 c 1,61,62
 452 -4 452 -4 522 -4 c 0,63,64
 566 -4 566 -4 611 18 c 1,65,66
 573 -87 573 -87 491 -87 c 0,67,68
 470 -87 470 -87 445 -82 c 128,-1,69
 420 -77 420 -77 388 -65.5 c 128,-1,70
 356 -54 356 -54 334.5 -45.5 c 128,-1,71
 313 -37 313 -37 273.5 -19.5 c 128,-1,72
 234 -2 234 -2 219 4 c 1,73,74
 165 -53 165 -53 103 -53 c 0,75,76
 54 -53 54 -53 22 -22.5 c 128,-1,77
 -10 8 -10 8 -10 40 c 0,0,1
21 31 m 0,78,79
 21 18 21 18 42.5 0 c 128,-1,80
 64 -18 64 -18 89 -18 c 0,81,82
 129 -18 129 -18 167 24 c 1,83,84
 96 50 96 50 61 50 c 0,85,86
 21 50 21 50 21 31 c 0,78,79
406 413 m 1,87,88
 460 417 460 417 504.5 458.5 c 128,-1,89
 549 500 549 500 570 548.5 c 128,-1,90
 591 597 591 597 591 636 c 0,91,92
 591 681 591 681 558 681 c 0,93,94
 537 681 537 681 517 661 c 128,-1,95
 497 641 497 641 477 599.5 c 128,-1,96
 457 558 457 558 442 518 c 128,-1,97
 427 478 427 478 406 413 c 1,87,88
EndSplineSet
EndChar

StartChar: currency
Encoding: 164 164 101
Width: 735
GlyphClass: 2
Flags: W
LayerCount: 2
Fore
SplineSet
90 47 m 1,0,1
 112 67 112 67 142.5 88 c 128,-1,2
 173 109 173 109 198.5 131.5 c 128,-1,3
 224 154 224 154 250 189 c 1,4,5
 240 222 240 222 240 253 c 0,6,7
 240 345 240 345 283 425 c 1,8,9
 225 483 225 483 161 537 c 0,10,11
 141 554 141 554 139 602 c 0,12,13
 139 623 139 623 149 646 c 1,14,15
 197 603 197 603 317 480 c 1,16,17
 377 552 377 552 449 552 c 0,18,19
 524 552 524 552 561 490 c 1,20,-1
 586 525 l 2,21,22
 603 548 603 548 611.5 558 c 128,-1,23
 620 568 620 568 636 581.5 c 128,-1,24
 652 595 652 595 670.5 600.5 c 128,-1,25
 689 606 689 606 713 606 c 0,26,27
 720 606 720 606 744 602 c 1,28,29
 739 594 739 594 729.5 582 c 128,-1,30
 720 570 720 570 704 552 c 2,31,-1
 673 517 l 1,32,-1
 631 470 l 1,33,-1
 582 416 l 1,34,35
 584 398 584 398 584 390 c 0,36,37
 584 315 584 315 533 220 c 1,38,39
 652 117 652 117 653 53 c 0,40,41
 653 40 653 40 647 20 c 1,42,43
 633 42 633 42 611.5 63 c 128,-1,44
 590 84 590 84 554 115.5 c 128,-1,45
 518 147 518 147 497 167 c 1,46,47
 438 98 438 98 369 98 c 0,48,49
 314 98 314 98 282 135 c 1,50,51
 197 47 197 47 90 47 c 1,0,1
312 245 m 0,52,53
 312 211 312 211 332.5 188 c 128,-1,54
 353 165 353 165 376 165 c 0,55,56
 408 165 408 165 441 205.5 c 128,-1,57
 474 246 474 246 494.5 303 c 128,-1,58
 515 360 515 360 515 410 c 0,59,60
 515 443 515 443 496 466 c 128,-1,61
 477 489 477 489 453 489 c 0,62,63
 415 489 415 489 381 444.5 c 128,-1,64
 347 400 347 400 329.5 344.5 c 128,-1,65
 312 289 312 289 312 245 c 0,52,53
EndSplineSet
EndChar

StartChar: yen
Encoding: 165 165 102
Width: 868
GlyphClass: 2
Flags: W
LayerCount: 2
Fore
SplineSet
119 536 m 0,0,1
 119 601 119 601 179 660.5 c 128,-1,2
 239 720 239 720 321 720 c 0,3,4
 379 720 379 720 409 688 c 128,-1,5
 439 656 439 656 439 612 c 0,6,7
 439 581 439 581 407 465.5 c 128,-1,8
 375 350 375 350 375 294 c 0,9,10
 375 199 375 199 444 199 c 0,11,12
 488 199 488 199 531 238 c 128,-1,13
 574 277 574 277 602 327 c 128,-1,14
 630 377 630 377 655 439 c 1,15,16
 720 720 720 720 781 720 c 0,17,18
 793 720 793 720 813 709 c 128,-1,19
 833 698 833 698 848 682 c 1,20,21
 800 607 800 607 769.5 515 c 128,-1,22
 739 423 739 423 711.5 303 c 128,-1,23
 684 183 684 183 665 122 c 1,24,25
 691 121 691 121 734 117.5 c 128,-1,26
 777 114 777 114 784 114 c 1,27,28
 724 73 724 73 652 73 c 1,29,-1
 635 25 l 1,30,31
 671 24 671 24 756 18 c 2,32,-1
 786 16 l 1,33,34
 726 -26 726 -26 659 -26 c 2,35,-1
 613 -26 l 1,36,37
 536 -187 536 -187 382 -187 c 0,38,39
 317 -187 317 -187 273 -160.5 c 128,-1,40
 229 -134 229 -134 229 -87 c 0,41,42
 229 -29 229 -29 306 -2 c 1,43,44
 296 -40 296 -40 296 -70 c 0,45,46
 296 -105 296 -105 319.5 -126.5 c 128,-1,47
 343 -148 343 -148 384 -148 c 0,48,49
 478 -148 478 -148 540 -26 c 1,50,51
 463 -26 463 -26 383 -38 c 1,52,53
 406 22 406 22 561 26 c 1,54,-1
 577 73 l 1,55,56
 456 71 456 71 381 60 c 1,57,58
 394 97 394 97 447 110.5 c 128,-1,59
 500 124 500 124 590 125 c 1,60,61
 595 144 595 144 605 205.5 c 128,-1,62
 615 267 615 267 621 298 c 1,63,64
 528 145 528 145 413 145 c 0,65,66
 351 145 351 145 320.5 179 c 128,-1,67
 290 213 290 213 290 272 c 0,68,69
 290 324 290 324 322 443.5 c 128,-1,70
 354 563 354 563 354 605 c 0,71,72
 354 681 354 681 299 681 c 0,73,74
 251 681 251 681 223.5 628.5 c 128,-1,75
 196 576 196 576 196 521 c 0,76,77
 196 488 196 488 209 459 c 1,78,79
 119 459 119 459 119 536 c 0,0,1
EndSplineSet
EndChar

StartChar: brokenbar
Encoding: 166 166 103
Width: 295
GlyphClass: 2
Flags: W
LayerCount: 2
Fore
SplineSet
79 -132 m 1,0,1
 109 -54 109 -54 131 199 c 1,2,3
 153 225 153 225 185 225 c 0,4,5
 204 225 204 225 204 195 c 0,6,7
 204 114 204 114 198.5 57 c 128,-1,8
 193 0 193 0 179.5 -44.5 c 128,-1,9
 166 -89 166 -89 141 -110.5 c 128,-1,10
 116 -132 116 -132 79 -132 c 1,0,1
137 282 m 1,11,-1
 145 388 l 2,12,13
 150 456 150 456 152.5 493 c 128,-1,14
 155 530 155 530 159.5 576.5 c 128,-1,15
 164 623 164 623 168 652 c 128,-1,16
 172 681 172 681 177 699 c 1,17,18
 217 683 217 683 217 627 c 0,19,20
 217 607 217 607 214 520.5 c 128,-1,21
 211 434 211 434 211 380 c 0,22,23
 211 333 211 333 177 310 c 2,24,-1
 137 282 l 1,11,-1
EndSplineSet
EndChar

StartChar: section
Encoding: 167 167 104
Width: 443
GlyphClass: 2
Flags: W
LayerCount: 2
Fore
SplineSet
20 33 m 0,0,1
 20 81 20 81 52 102.5 c 128,-1,2
 84 124 84 124 127 124 c 1,3,4
 81 78 81 78 81 32 c 0,5,6
 81 -1 81 -1 107.5 -24.5 c 128,-1,7
 134 -48 134 -48 181 -48 c 0,8,9
 227 -48 227 -48 261 -25.5 c 128,-1,10
 295 -3 295 -3 295 35 c 0,11,12
 295 63 295 63 273 87 c 128,-1,13
 251 111 251 111 220 130 c 2,14,-1
 158 170 l 2,15,16
 127 191 127 191 105 222 c 128,-1,17
 83 253 83 253 83 291 c 0,18,19
 83 349 83 349 127 391.5 c 128,-1,20
 171 434 171 434 250 435 c 1,21,22
 208 459 208 459 185 483.5 c 128,-1,23
 162 508 162 508 162 545 c 0,24,25
 162 605 162 605 216.5 662 c 128,-1,26
 271 719 271 719 352 719 c 0,27,28
 432 719 432 719 432 649 c 0,29,30
 432 582 432 582 381 504 c 1,31,32
 349 509 349 509 349 539 c 0,33,34
 349 558 349 558 367 606 c 128,-1,35
 385 654 385 654 385 670 c 0,36,37
 385 690 385 690 355 690 c 0,38,39
 299 690 299 690 257.5 646 c 128,-1,40
 216 602 216 602 216 560 c 0,41,42
 216 536 216 536 236 516.5 c 128,-1,43
 256 497 256 497 284 482 c 128,-1,44
 312 467 312 467 340 448.5 c 128,-1,45
 368 430 368 430 388 397 c 128,-1,46
 408 364 408 364 408 320 c 0,47,48
 408 255 408 255 367.5 220.5 c 128,-1,49
 327 186 327 186 261 186 c 0,50,51
 248 186 248 186 244 187 c 1,52,53
 275 170 275 170 295 156 c 128,-1,54
 315 142 315 142 334 114.5 c 128,-1,55
 353 87 353 87 353 55 c 0,56,57
 353 -8 353 -8 296 -47.5 c 128,-1,58
 239 -87 239 -87 168 -87 c 0,59,60
 107 -87 107 -87 63.5 -55.5 c 128,-1,61
 20 -24 20 -24 20 33 c 0,0,1
148 315 m 0,62,63
 148 303 148 303 151.5 291.5 c 128,-1,64
 155 280 155 280 163.5 265 c 128,-1,65
 172 250 172 250 192.5 241 c 128,-1,66
 213 232 213 232 242 232 c 0,67,68
 287 232 287 232 312 253.5 c 128,-1,69
 337 275 337 275 337 314 c 0,70,71
 337 350 337 350 315 373 c 128,-1,72
 293 396 293 396 250 396 c 0,73,74
 208 396 208 396 178 374 c 128,-1,75
 148 352 148 352 148 315 c 0,62,63
EndSplineSet
EndChar

StartChar: dieresis
Encoding: 168 168 105
Width: 230
GlyphClass: 2
Flags: W
LayerCount: 2
Fore
SplineSet
-4 469 m 0,0,1
 -4 487 -4 487 18 502 c 128,-1,2
 40 517 40 517 63 517 c 0,3,4
 99 517 99 517 99 485 c 0,5,6
 99 467 99 467 80 451 c 128,-1,7
 61 435 61 435 39 435 c 0,8,9
 21 435 21 435 8.5 443.5 c 128,-1,10
 -4 452 -4 452 -4 469 c 0,0,1
141 449 m 0,11,12
 141 468 141 468 162.5 482.5 c 128,-1,13
 184 497 184 497 208 497 c 0,14,15
 245 497 245 497 245 464 c 0,16,17
 245 446 245 446 225.5 430.5 c 128,-1,18
 206 415 206 415 183 415 c 0,19,20
 166 415 166 415 153.5 424 c 128,-1,21
 141 433 141 433 141 449 c 0,11,12
EndSplineSet
EndChar

StartChar: copyright
Encoding: 169 169 106
Width: 620
GlyphClass: 2
Flags: W
LayerCount: 2
Fore
SplineSet
88 358 m 1,0,1
 88 443 88 443 128.5 504.5 c 128,-1,2
 169 566 169 566 226 593 c 128,-1,3
 283 620 283 620 346 620 c 0,4,5
 392 620 392 620 438 603.5 c 128,-1,6
 484 587 484 587 523 556.5 c 128,-1,7
 562 526 562 526 586 475 c 128,-1,8
 610 424 610 424 610 362 c 0,9,10
 610 277 610 277 567.5 215.5 c 128,-1,11
 525 154 525 154 466.5 127 c 128,-1,12
 408 100 408 100 344 100 c 0,13,14
 245 100 245 100 168 168 c 128,-1,15
 91 236 91 236 88 358 c 1,0,1
129 362 m 0,16,17
 129 265 129 265 188 203.5 c 128,-1,18
 247 142 247 142 344 142 c 0,19,20
 442 142 442 142 505.5 203.5 c 128,-1,21
 569 265 569 265 569 362 c 0,22,23
 569 456 569 456 506.5 517 c 128,-1,24
 444 578 444 578 347 578 c 0,25,26
 251 578 251 578 190 518 c 128,-1,27
 129 458 129 458 129 362 c 0,16,17
259 300 m 2,28,-1
 259 429 l 2,29,30
 259 524 259 524 347 524 c 0,31,32
 392 524 392 524 416 498.5 c 128,-1,33
 440 473 440 473 440 448 c 0,34,35
 440 424 440 424 418 424 c 0,36,37
 405 424 405 424 399 433 c 128,-1,38
 393 442 393 442 392 453.5 c 128,-1,39
 391 465 391 465 380.5 474 c 128,-1,40
 370 483 370 483 349 483 c 0,41,42
 303 483 303 483 303 429 c 2,43,-1
 303 300 l 2,44,45
 303 271 303 271 314 258.5 c 128,-1,46
 325 246 325 246 354 246 c 0,47,48
 375 246 375 246 385 255 c 128,-1,49
 395 264 395 264 396 275.5 c 128,-1,50
 397 287 397 287 402 296 c 128,-1,51
 407 305 407 305 418 305 c 0,52,53
 442 305 442 305 442 284 c 0,54,55
 442 251 442 251 418 228.5 c 128,-1,56
 394 206 394 206 353 206 c 0,57,58
 311 206 311 206 285 229 c 128,-1,59
 259 252 259 252 259 300 c 2,28,-1
EndSplineSet
EndChar

StartChar: ordfeminine
Encoding: 170 170 107
Width: 410
GlyphClass: 2
Flags: W
LayerCount: 2
Fore
SplineSet
125 511 m 0,0,1
 125 575 125 575 188.5 647.5 c 128,-1,2
 252 720 252 720 321 720 c 0,3,4
 352 720 352 720 373 704 c 128,-1,5
 394 688 394 688 394 663 c 0,6,7
 394 633 394 633 364 629 c 1,8,9
 379 621 379 621 380 610 c 0,10,11
 380 601 380 601 360.5 568.5 c 128,-1,12
 341 536 341 536 341 520 c 0,13,14
 341 497 341 497 359 497 c 0,15,16
 378 497 378 497 406.5 524.5 c 128,-1,17
 435 552 435 552 466 603 c 1,18,-1
 476 587 l 1,19,20
 454 530 454 530 415 494.5 c 128,-1,21
 376 459 376 459 339 459 c 0,22,23
 294 459 294 459 292 522 c 1,24,25
 228 447 228 447 182 447 c 0,26,27
 158 447 158 447 141.5 463.5 c 128,-1,28
 125 480 125 480 125 511 c 0,0,1
187 510 m 0,29,30
 187 490 187 490 200 490 c 0,31,32
 242 490 242 490 338 631 c 1,33,-1
 345 634 l 1,34,35
 350 649 350 649 350 659 c 0,36,37
 350 688 350 688 320 688 c 0,38,39
 276 688 276 688 231.5 624 c 128,-1,40
 187 560 187 560 187 510 c 0,29,30
EndSplineSet
EndChar

StartChar: guillemotleft
Encoding: 171 171 108
Width: 479
GlyphClass: 2
Flags: W
LayerCount: 2
Fore
SplineSet
27 165 m 1,0,1
 81 186 81 186 135.5 229 c 128,-1,2
 190 272 190 272 225 319 c 1,3,4
 227 317 227 317 232 304.5 c 128,-1,5
 237 292 237 292 237 287 c 0,6,7
 237 228 237 228 77 147 c 1,8,9
 138 107 138 107 241 70 c 1,10,11
 217 44 217 44 200 44 c 0,12,13
 162 44 162 44 99.5 88.5 c 128,-1,14
 37 133 37 133 27 165 c 1,0,1
180 165 m 1,15,16
 234 186 234 186 288.5 229 c 128,-1,17
 343 272 343 272 378 319 c 1,18,19
 380 317 380 317 385 304.5 c 128,-1,20
 390 292 390 292 390 287 c 0,21,22
 390 228 390 228 230 147 c 1,23,24
 291 107 291 107 394 70 c 1,25,26
 370 44 370 44 353 44 c 0,27,28
 315 44 315 44 252.5 88.5 c 128,-1,29
 190 133 190 133 180 165 c 1,15,16
EndSplineSet
EndChar

StartChar: logicalnot
Encoding: 172 172 109
Width: 676
GlyphClass: 2
Flags: W
LayerCount: 2
Fore
SplineSet
44 170 m 1,0,1
 65 208 65 208 145.5 222 c 128,-1,2
 226 236 226 236 358 236 c 0,3,4
 442 236 442 236 511 233 c 1,5,6
 520 262 520 262 549 289 c 1,7,8
 549 281 549 281 557 231 c 1,9,10
 627 229 627 229 634 227 c 1,11,12
 609 201 609 201 560 191 c 1,13,14
 560 172 560 172 562 164 c 1,15,16
 562 125 562 125 558.5 101.5 c 128,-1,17
 555 78 555 78 539.5 56.5 c 128,-1,18
 524 35 524 35 495 26 c 1,19,20
 510 96 510 96 510 115 c 0,21,22
 510 123 510 123 509.5 147.5 c 128,-1,23
 509 172 509 172 509 186 c 1,24,25
 494 185 494 185 466 185 c 0,26,27
 409 184 409 184 331 183 c 128,-1,28
 253 182 253 182 225 181.5 c 128,-1,29
 197 181 197 181 149.5 178 c 128,-1,30
 102 175 102 175 44 170 c 1,0,1
EndSplineSet
EndChar

StartChar: uni00AD
Encoding: 173 173 110
Width: 484
GlyphClass: 2
Flags: W
LayerCount: 2
Fore
SplineSet
43 142 m 1,0,1
 49 163 49 163 70 176.5 c 128,-1,2
 91 190 91 190 119 195.5 c 128,-1,3
 147 201 147 201 165.5 203 c 128,-1,4
 184 205 184 205 202 205 c 0,5,6
 292 205 292 205 418 198 c 1,7,8
 408 175 408 175 372.5 159.5 c 128,-1,9
 337 144 337 144 296 144 c 0,10,11
 285 144 285 144 242 147 c 128,-1,12
 199 150 199 150 171 150 c 0,13,14
 103 150 103 150 43 142 c 1,0,1
EndSplineSet
EndChar

StartChar: registered
Encoding: 174 174 111
Width: 619
GlyphClass: 2
Flags: W
LayerCount: 2
Fore
SplineSet
88 358 m 0,0,1
 88 443 88 443 129.5 504.5 c 128,-1,2
 171 566 171 566 229 593 c 128,-1,3
 287 620 287 620 350 620 c 0,4,5
 414 620 414 620 471.5 592.5 c 128,-1,6
 529 565 529 565 569.5 504.5 c 128,-1,7
 610 444 610 444 610 362 c 0,8,9
 610 278 610 278 567 216 c 128,-1,10
 524 154 524 154 464.5 127 c 128,-1,11
 405 100 405 100 342 100 c 128,-1,12
 279 100 279 100 222.5 127.5 c 128,-1,13
 166 155 166 155 127 215.5 c 128,-1,14
 88 276 88 276 88 358 c 0,0,1
129 359 m 0,15,16
 129 265 129 265 187 203.5 c 128,-1,17
 245 142 245 142 342 142 c 128,-1,18
 439 142 439 142 504 203.5 c 128,-1,19
 569 265 569 265 569 363 c 0,20,21
 569 457 569 457 509 517.5 c 128,-1,22
 449 578 449 578 352 578 c 128,-1,23
 255 578 255 578 192 517.5 c 128,-1,24
 129 457 129 457 129 359 c 0,15,16
263 503 m 2,25,26
 263 511 263 511 269 517 c 128,-1,27
 275 523 275 523 284 523 c 2,28,-1
 349 523 l 2,29,30
 391 523 391 523 419.5 502 c 128,-1,31
 448 481 448 481 448 434 c 0,32,33
 448 365 448 365 390 350 c 1,34,-1
 415 302 l 1,35,-1
 439 258 l 2,36,37
 449 240 449 240 449 238 c 0,38,39
 452 232 452 232 452 227 c 0,40,41
 452 220 452 220 444.5 213.5 c 128,-1,42
 437 207 437 207 429 207 c 0,43,44
 414 207 414 207 399 238 c 2,45,-1
 344 346 l 1,46,-1
 312 346 l 1,47,-1
 312 228 l 2,48,49
 312 218 312 218 305 212.5 c 128,-1,50
 298 207 298 207 290 207 c 0,51,52
 281 207 281 207 274 212.5 c 128,-1,53
 267 218 267 218 267 228 c 2,54,-1
 263 503 l 2,25,26
310 386 m 1,55,-1
 352 386 l 2,56,57
 403 386 403 386 403 434 c 0,58,59
 403 483 403 483 351 483 c 2,60,-1
 310 483 l 1,61,-1
 310 386 l 1,55,-1
EndSplineSet
EndChar

StartChar: degree
Encoding: 176 176 112
Width: 293
GlyphClass: 2
Flags: W
LayerCount: 2
Fore
SplineSet
112 453 m 0,0,1
 112 490 112 490 149 526 c 128,-1,2
 186 562 186 562 236 562 c 0,3,4
 277 562 277 562 297.5 546 c 128,-1,5
 318 530 318 530 318 505 c 0,6,7
 318 467 318 467 280 431.5 c 128,-1,8
 242 396 242 396 191 396 c 0,9,10
 152 396 152 396 132 412 c 128,-1,11
 112 428 112 428 112 453 c 0,0,1
158 454 m 0,12,13
 158 428 158 428 195 428 c 0,14,15
 222 428 222 428 248 454 c 128,-1,16
 274 480 274 480 274 505 c 0,17,18
 274 529 274 529 236 529 c 0,19,20
 207 529 207 529 182.5 504 c 128,-1,21
 158 479 158 479 158 454 c 0,12,13
EndSplineSet
EndChar

StartChar: plusminus
Encoding: 177 177 113
Width: 485
GlyphClass: 2
Flags: W
LayerCount: 2
Fore
SplineSet
56 73 m 1,0,1
 64 130 64 130 244 130 c 0,2,3
 341 130 341 130 424 121 c 1,4,5
 384 99 384 99 352.5 94 c 128,-1,6
 321 89 321 89 245 87 c 0,7,8
 155 85 155 85 56 73 c 1,0,1
58 283 m 1,9,10
 77 332 77 332 208 337 c 1,11,-1
 208 368 l 2,12,13
 208 417 208 417 242 461 c 1,14,15
 251 411 251 411 256 337 c 1,16,17
 316 336 316 336 420 328 c 1,18,19
 361 292 361 292 301 292 c 2,20,-1
 256 292 l 1,21,22
 255 235 255 235 243.5 201.5 c 128,-1,23
 232 168 232 168 197 156 c 1,24,25
 208 218 208 218 208 292 c 1,26,27
 122 292 122 292 58 283 c 1,9,10
EndSplineSet
EndChar

StartChar: uni00B2
Encoding: 178 178 114
Width: 397
GlyphClass: 2
Flags: W
LayerCount: 2
Fore
SplineSet
92 353 m 0,0,1
 92 385 92 385 140 385 c 0,2,3
 162 385 162 385 192 379 c 1,4,5
 240 420 240 420 279 490 c 128,-1,6
 318 560 318 560 318 618 c 0,7,8
 318 681 318 681 272 681 c 0,9,10
 246 681 246 681 230 657 c 128,-1,11
 214 633 214 633 214 595 c 0,12,13
 214 575 214 575 226 550 c 1,14,-1
 207 550 l 1,15,16
 160 561 160 561 160 602 c 0,17,18
 160 646 160 646 194 679 c 128,-1,19
 228 712 228 712 280 712 c 0,20,21
 322 712 322 712 349 684 c 128,-1,22
 376 656 376 656 376 615 c 0,23,24
 376 553 376 553 338 485 c 128,-1,25
 300 417 300 417 243 369 c 1,26,27
 311 355 311 355 331 355 c 0,28,29
 345 355 345 355 387 380 c 1,30,31
 376 339 376 339 360.5 320 c 128,-1,32
 345 301 345 301 319 301 c 0,33,34
 270 301 270 301 198 337 c 1,35,36
 164 317 164 317 139 317 c 0,37,38
 119 317 119 317 105.5 327 c 128,-1,39
 92 337 92 337 92 353 c 0,0,1
129 352 m 0,40,41
 129 349 129 349 137 349 c 0,42,43
 143 349 143 349 151 353 c 1,44,45
 145 354 145 354 137 354 c 128,-1,46
 129 354 129 354 129 352 c 0,40,41
EndSplineSet
EndChar

StartChar: uni00B3
Encoding: 179 179 115
Width: 334
GlyphClass: 2
Flags: W
LayerCount: 2
Fore
SplineSet
103 392 m 0,0,1
 103 415 103 415 117 433.5 c 128,-1,2
 131 452 131 452 155 452 c 0,3,4
 164 452 164 452 185 445 c 1,5,6
 160 426 160 426 160 399 c 0,7,8
 160 377 160 377 171.5 360 c 128,-1,9
 183 343 183 343 203 343 c 0,10,11
 229 343 229 343 251 371.5 c 128,-1,12
 273 400 273 400 273 439 c 0,13,14
 273 511 273 511 195 530 c 1,15,16
 240 549 240 549 267.5 584 c 128,-1,17
 295 619 295 619 295 649 c 0,18,19
 295 669 295 669 284 681 c 128,-1,20
 273 693 273 693 259 693 c 0,21,22
 240 693 240 693 226 678 c 128,-1,23
 212 663 212 663 212 642 c 0,24,25
 212 632 212 632 222 612 c 1,26,27
 217 603 217 603 207 596 c 128,-1,28
 197 589 197 589 190 589 c 0,29,30
 177 589 177 589 169 604.5 c 128,-1,31
 161 620 161 620 161 636 c 0,32,33
 161 673 161 673 192 695.5 c 128,-1,34
 223 718 223 718 265 718 c 0,35,36
 301 718 301 718 328 699 c 128,-1,37
 355 680 355 680 355 647 c 0,38,39
 355 617 355 617 336 585 c 128,-1,40
 317 553 317 553 286 537 c 1,41,42
 346 507 346 507 346 444 c 0,43,44
 346 394 346 394 304 354 c 128,-1,45
 262 314 262 314 199 314 c 0,46,47
 152 314 152 314 127.5 338 c 128,-1,48
 103 362 103 362 103 392 c 0,0,1
EndSplineSet
EndChar

StartChar: acute
Encoding: 180 180 116
Width: 141
GlyphClass: 2
Flags: W
LayerCount: 2
Fore
SplineSet
93 443 m 0,0,1
 93 463 93 463 130.5 510.5 c 128,-1,2
 168 558 168 558 196 558 c 0,3,4
 222 558 222 558 226 523 c 1,5,6
 141 441 141 441 117 410 c 1,7,8
 106 415 106 415 99.5 425.5 c 128,-1,9
 93 436 93 436 93 443 c 0,0,1
EndSplineSet
EndChar

StartChar: uni00B5
Encoding: 181 181 117
Width: 615
GlyphClass: 2
Flags: W
LayerCount: 2
Fore
SplineSet
-29 -234 m 1,0,1
 -16 -191 -16 -191 7 -131 c 1,2,-1
 44 -27 l 2,3,4
 59 17 59 17 78 115.5 c 128,-1,5
 97 214 97 214 111 350 c 0,6,7
 112 360 112 360 113.5 363.5 c 128,-1,8
 115 367 115 367 120.5 370 c 128,-1,9
 126 373 126 373 137 373 c 0,10,11
 190 373 190 373 194 321 c 1,12,13
 149 114 149 114 149 60 c 0,14,15
 149 18 149 18 174 18 c 0,16,17
 192 18 192 18 212.5 37 c 128,-1,18
 233 56 233 56 254 89.5 c 128,-1,19
 275 123 275 123 291.5 152.5 c 128,-1,20
 308 182 308 182 328 222 c 2,21,-1
 355 274 l 1,22,23
 414 265 414 265 414 241 c 1,24,25
 350 112 350 112 350 42 c 0,26,27
 350 8 350 8 378 8 c 0,28,29
 412 8 412 8 461.5 52.5 c 128,-1,30
 511 97 511 97 546 169 c 1,31,-1
 570 153 l 1,32,33
 537 71 537 71 476 17.5 c 128,-1,34
 415 -36 415 -36 357 -36 c 0,35,36
 320 -36 320 -36 298 -14 c 128,-1,37
 276 8 276 8 276 44 c 0,38,39
 276 54 276 54 277 60 c 1,40,41
 216 -36 216 -36 155 -36 c 0,42,43
 131 -36 131 -36 113 -18 c 1,44,45
 39 -280 39 -280 11 -280 c 0,46,47
 -3 -280 -3 -280 -15 -261.5 c 128,-1,48
 -27 -243 -27 -243 -29 -234 c 1,0,1
EndSplineSet
EndChar

StartChar: paragraph
Encoding: 182 182 118
Width: 686
GlyphClass: 2
Flags: W
LayerCount: 2
Fore
SplineSet
71 336 m 0,0,1
 71 406 71 406 121 461.5 c 128,-1,2
 171 517 171 517 241 545.5 c 128,-1,3
 311 574 311 574 390 581 c 1,4,5
 387 647 387 647 378 706 c 1,6,7
 398 716 398 716 415 716 c 0,8,9
 431 716 431 716 441 703.5 c 128,-1,10
 451 691 451 691 455 667.5 c 128,-1,11
 459 644 459 644 460 626.5 c 128,-1,12
 461 609 461 609 461 583 c 1,13,14
 463 583 463 583 480.5 580.5 c 128,-1,15
 498 578 498 578 504 576 c 1,16,17
 499 671 499 671 494 705 c 1,18,19
 510 716 510 716 528 716 c 0,20,21
 564 716 564 716 575 559 c 1,22,23
 613 548 613 548 665 525 c 1,24,25
 661 515 661 515 641 501.5 c 128,-1,26
 621 488 621 488 614 488 c 0,27,28
 611 488 611 488 577 504 c 1,29,30
 582 445 582 445 582 371 c 0,31,32
 582 1 582 1 571 -34 c 0,33,34
 564 -58 564 -58 539.5 -72.5 c 128,-1,35
 515 -87 515 -87 486 -87 c 1,36,37
 488 -81 488 -81 492.5 0 c 128,-1,38
 497 81 497 81 501 209.5 c 128,-1,39
 505 338 505 338 505 444 c 0,40,41
 505 460 505 460 504.5 490.5 c 128,-1,42
 504 521 504 521 504 535 c 1,43,44
 500 536 500 536 493 537.5 c 128,-1,45
 486 539 486 539 477.5 540 c 128,-1,46
 469 541 469 541 465 542 c 1,47,48
 473 402 473 402 473 234 c 0,49,50
 473 0 473 0 462 -33 c 0,51,52
 454 -55 454 -55 422 -71 c 128,-1,53
 390 -87 390 -87 358 -87 c 1,54,55
 364 19 364 19 375 152 c 1,56,57
 348 154 348 154 321 157.5 c 128,-1,58
 294 161 294 161 257.5 168.5 c 128,-1,59
 221 176 221 176 190 190 c 128,-1,60
 159 204 159 204 131 222.5 c 128,-1,61
 103 241 103 241 87 270.5 c 128,-1,62
 71 300 71 300 71 336 c 0,0,1
EndSplineSet
EndChar

StartChar: periodcentered
Encoding: 183 183 119
Width: 241
GlyphClass: 2
Flags: W
LayerCount: 2
Fore
SplineSet
58 152 m 0,0,1
 58 168 58 168 79.5 184.5 c 128,-1,2
 101 201 101 201 122 201 c 0,3,4
 155 201 155 201 155 172 c 0,5,6
 155 157 155 157 138.5 136 c 128,-1,7
 122 115 122 115 99 115 c 0,8,9
 58 115 58 115 58 152 c 0,0,1
EndSplineSet
EndChar

StartChar: cedilla
Encoding: 184 184 120
Width: 232
GlyphClass: 2
Flags: W
LayerCount: 2
Fore
SplineSet
13 -145 m 0,0,1
 13 -124 13 -124 45 -102 c 1,2,3
 58 -147 58 -147 85 -147 c 0,4,5
 109 -147 109 -147 137.5 -117 c 128,-1,6
 166 -87 166 -87 166 -64 c 0,7,8
 166 -48 166 -48 150 -48 c 0,9,10
 137 -48 137 -48 108 -66.5 c 128,-1,11
 79 -85 79 -85 71 -85 c 128,-1,12
 63 -85 63 -85 56.5 -76.5 c 128,-1,13
 50 -68 50 -68 50 -60 c 0,14,15
 50 -57 50 -57 72 -27.5 c 128,-1,16
 94 2 94 2 105 12 c 1,17,-1
 150 47 l 1,18,-1
 103 -28 l 1,19,20
 136 -16 136 -16 157 -16 c 0,21,22
 181 -16 181 -16 196 -29 c 128,-1,23
 211 -42 211 -42 211 -66 c 0,24,25
 211 -108 211 -108 170.5 -147 c 128,-1,26
 130 -186 130 -186 79 -186 c 0,27,28
 51 -186 51 -186 32 -173 c 128,-1,29
 13 -160 13 -160 13 -145 c 0,0,1
EndSplineSet
EndChar

StartChar: uni00B9
Encoding: 185 185 121
Width: 307
GlyphClass: 2
Flags: W
LayerCount: 2
Fore
SplineSet
87 352 m 1,0,1
 141 352 141 352 169 355 c 1,2,3
 185 393 185 393 205 502.5 c 128,-1,4
 225 612 225 612 227 620 c 1,5,6
 195 602 195 602 185 602 c 0,7,8
 163 602 163 602 163 632 c 1,9,10
 199 650 199 650 284 717 c 1,11,12
 294 707 294 707 294 694 c 0,13,14
 294 685 294 685 254 487 c 2,15,-1
 242 427 l 2,16,17
 232 382 232 382 222 361 c 1,18,19
 274 361 274 361 284 315 c 1,20,21
 245 318 245 318 232 318 c 0,22,23
 212 318 212 318 185.5 316 c 128,-1,24
 159 314 159 314 146 314 c 128,-1,25
 133 314 133 314 116.5 324 c 128,-1,26
 100 334 100 334 87 352 c 1,0,1
EndSplineSet
EndChar

StartChar: ordmasculine
Encoding: 186 186 122
Width: 310
GlyphClass: 2
Flags: W
LayerCount: 2
Fore
SplineSet
127 517 m 0,0,1
 127 576 127 576 182 647.5 c 128,-1,2
 237 719 237 719 301 719 c 0,3,4
 324 719 324 719 335 706 c 1,5,6
 351 705 351 705 359.5 695 c 128,-1,7
 368 685 368 685 368 674 c 0,8,9
 368 665 368 665 354.5 636 c 128,-1,10
 341 607 341 607 341 594 c 0,11,12
 341 583 341 583 354 583 c 0,13,14
 362 583 362 583 374 585 c 0,15,16
 379 585 379 585 381 586 c 1,17,18
 381 569 381 569 369.5 560 c 128,-1,19
 358 551 358 551 342 551 c 0,20,21
 328 551 328 551 317 559 c 1,22,23
 294 510 294 510 261 481 c 128,-1,24
 228 452 228 452 191 452 c 0,25,26
 162 452 162 452 144.5 470 c 128,-1,27
 127 488 127 488 127 517 c 0,0,1
183 524 m 0,28,29
 183 510 183 510 190 501 c 128,-1,30
 197 492 197 492 208 492 c 0,31,32
 229 492 229 492 255.5 521.5 c 128,-1,33
 282 551 282 551 298 589 c 1,34,35
 294 605 294 605 294 626 c 0,36,37
 294 662 294 662 300 677 c 1,38,39
 254 670 254 670 218.5 616 c 128,-1,40
 183 562 183 562 183 524 c 0,28,29
EndSplineSet
EndChar

StartChar: guillemotright
Encoding: 187 187 123
Width: 491
GlyphClass: 2
Flags: W
LayerCount: 2
Fore
SplineSet
67 70 m 1,0,1
 170 107 170 107 231 147 c 1,2,3
 71 228 71 228 71 287 c 0,4,5
 71 292 71 292 76 304.5 c 128,-1,6
 81 317 81 317 83 319 c 1,7,8
 118 272 118 272 172.5 229 c 128,-1,9
 227 186 227 186 281 165 c 1,10,11
 271 133 271 133 208.5 88.5 c 128,-1,12
 146 44 146 44 108 44 c 0,13,14
 91 44 91 44 67 70 c 1,0,1
220 70 m 1,15,16
 323 107 323 107 384 147 c 1,17,18
 224 228 224 228 224 287 c 0,19,20
 224 292 224 292 229 304.5 c 128,-1,21
 234 317 234 317 236 319 c 1,22,23
 271 272 271 272 325.5 229 c 128,-1,24
 380 186 380 186 434 165 c 1,25,26
 424 133 424 133 361.5 88.5 c 128,-1,27
 299 44 299 44 261 44 c 0,28,29
 244 44 244 44 220 70 c 1,15,16
EndSplineSet
EndChar

StartChar: onequarter
Encoding: 188 188 124
Width: 686
GlyphClass: 2
Flags: W
LayerCount: 2
Fore
SplineSet
52 -87 m 1,0,1
 124 -17 124 -17 283 256.5 c 128,-1,2
 442 530 442 530 497 671 c 0,3,4
 503 685 503 685 527 698.5 c 128,-1,5
 551 712 551 712 577 712 c 0,6,7
 584 712 584 712 596 710 c 1,8,9
 577 663 577 663 451 427.5 c 128,-1,10
 325 192 325 192 264 97 c 0,11,12
 205 6 205 6 155 -40.5 c 128,-1,13
 105 -87 105 -87 52 -87 c 1,0,1
75 345 m 1,14,15
 137 345 137 345 159 349 c 1,16,17
 175 388 175 388 196 501 c 128,-1,18
 217 614 217 614 218 620 c 1,19,20
 188 602 188 602 176 602 c 0,21,22
 154 602 154 602 154 628 c 0,23,24
 154 629 154 629 173 643 c 2,25,-1
 224 679 l 2,26,27
 255 701 255 701 275 717 c 1,28,29
 285 708 285 708 285 694 c 0,30,31
 285 668 285 668 233 423 c 0,32,33
 223 374 223 374 212 355 c 1,34,35
 265 355 265 355 275 308 c 1,36,37
 233 311 233 311 222 311 c 0,38,39
 204 311 204 311 177 309 c 128,-1,40
 150 307 150 307 134 307 c 0,41,42
 105 307 105 307 75 345 c 1,14,15
377 121 m 1,43,44
 377 149 377 149 389 159 c 0,45,46
 557 300 557 300 607 383 c 1,47,48
 627 381 627 381 628 362 c 0,49,50
 628 358 628 358 622.5 339 c 128,-1,51
 617 320 617 320 606 275 c 128,-1,52
 595 230 595 230 585 174 c 1,53,-1
 595 174 l 2,54,55
 598 174 598 174 648 182 c 1,56,57
 609 130 609 130 577 130 c 1,58,59
 560 7 560 7 560 -27 c 1,60,61
 497 -24 497 -24 497 8 c 0,62,63
 497 28 497 28 518 131 c 1,64,65
 507 132 507 132 485 132 c 0,66,67
 421 132 421 132 377 121 c 1,43,44
459 177 m 1,68,69
 465 177 465 177 488.5 176.5 c 128,-1,70
 512 176 512 176 529 176 c 1,71,72
 540 236 540 236 547 258 c 1,73,-1
 519 233 l 1,74,75
 502 216 502 216 485 201.5 c 128,-1,76
 468 187 468 187 459 177 c 1,68,69
EndSplineSet
EndChar

StartChar: onehalf
Encoding: 189 189 125
Width: 743
GlyphClass: 2
Flags: W
LayerCount: 2
Fore
SplineSet
60 -87 m 1,0,1
 132 -16 132 -16 292 257.5 c 128,-1,2
 452 531 452 531 506 671 c 0,3,4
 512 687 512 687 542 703.5 c 128,-1,5
 572 720 572 720 598 720 c 1,6,7
 586 672 586 672 463 437.5 c 128,-1,8
 340 203 340 203 272 97 c 0,9,10
 213 6 213 6 163.5 -40.5 c 128,-1,11
 114 -87 114 -87 60 -87 c 1,0,1
77 345 m 1,12,13
 139 345 139 345 161 349 c 1,14,15
 177 388 177 388 198 501 c 128,-1,16
 219 614 219 614 220 620 c 1,17,18
 190 602 190 602 178 602 c 0,19,20
 156 602 156 602 156 628 c 0,21,22
 156 629 156 629 175 643 c 2,23,-1
 226 679 l 2,24,25
 257 701 257 701 277 717 c 1,26,27
 287 708 287 708 287 694 c 0,28,29
 287 668 287 668 235 423 c 0,30,31
 225 374 225 374 214 355 c 1,32,33
 267 355 267 355 277 308 c 1,34,35
 235 311 235 311 224 311 c 0,36,37
 206 311 206 311 179 309 c 128,-1,38
 152 307 152 307 136 307 c 0,39,40
 107 307 107 307 77 345 c 1,12,13
376 25 m 0,41,42
 376 57 376 57 424 57 c 0,43,44
 446 57 446 57 476 51 c 1,45,46
 524 92 524 92 563 162 c 128,-1,47
 602 232 602 232 602 290 c 0,48,49
 602 353 602 353 556 353 c 0,50,51
 530 353 530 353 514 329 c 128,-1,52
 498 305 498 305 498 267 c 0,53,54
 498 248 498 248 510 222 c 1,55,-1
 491 222 l 1,56,57
 444 233 444 233 444 274 c 0,58,59
 444 318 444 318 478 351 c 128,-1,60
 512 384 512 384 564 384 c 0,61,62
 606 384 606 384 633 356 c 128,-1,63
 660 328 660 328 660 287 c 0,64,65
 660 225 660 225 622 157 c 128,-1,66
 584 89 584 89 527 41 c 1,67,68
 595 27 595 27 615 27 c 0,69,70
 629 27 629 27 671 52 c 1,71,72
 660 11 660 11 644.5 -8 c 128,-1,73
 629 -27 629 -27 603 -27 c 0,74,75
 554 -27 554 -27 482 9 c 1,76,77
 448 -11 448 -11 423 -11 c 0,78,79
 403 -11 403 -11 389.5 -1 c 128,-1,80
 376 9 376 9 376 25 c 0,41,42
413 24 m 0,81,82
 413 21 413 21 421 21 c 0,83,84
 427 21 427 21 435 25 c 1,85,86
 429 26 429 26 421 26 c 128,-1,87
 413 26 413 26 413 24 c 0,81,82
EndSplineSet
EndChar

StartChar: threequarters
Encoding: 190 190 126
Width: 733
GlyphClass: 2
Flags: W
LayerCount: 2
Fore
SplineSet
96 386 m 0,0,1
 96 410 96 410 109.5 428.5 c 128,-1,2
 123 447 123 447 148 447 c 0,3,4
 156 447 156 447 179 441 c 1,5,6
 152 422 152 422 152 391 c 0,7,8
 152 371 152 371 165.5 355 c 128,-1,9
 179 339 179 339 198 339 c 0,10,11
 225 339 225 339 247 367.5 c 128,-1,12
 269 396 269 396 269 435 c 0,13,14
 269 509 269 509 190 527 c 1,15,16
 234 546 234 546 263 582.5 c 128,-1,17
 292 619 292 619 292 648 c 0,18,19
 292 669 292 669 280.5 680.5 c 128,-1,20
 269 692 269 692 254 692 c 0,21,22
 236 692 236 692 221 677.5 c 128,-1,23
 206 663 206 663 206 644 c 0,24,25
 206 631 206 631 216 611 c 1,26,27
 212 602 212 602 202 595 c 128,-1,28
 192 588 192 588 184 588 c 0,29,30
 172 588 172 588 164 603 c 128,-1,31
 156 618 156 618 154 635 c 1,32,33
 154 673 154 673 186 695.5 c 128,-1,34
 218 718 218 718 260 718 c 0,35,36
 297 718 297 718 324 699 c 128,-1,37
 351 680 351 680 351 645 c 0,38,39
 351 615 351 615 331.5 582.5 c 128,-1,40
 312 550 312 550 281 534 c 1,41,42
 311 520 311 520 326.5 493.5 c 128,-1,43
 342 467 342 467 342 439 c 0,44,45
 342 389 342 389 299.5 348 c 128,-1,46
 257 307 257 307 193 307 c 0,47,48
 144 307 144 307 120 331 c 128,-1,49
 96 355 96 355 96 386 c 0,0,1
100 -87 m 1,50,51
 164 -9 164 -9 221.5 74 c 128,-1,52
 279 157 279 157 333 255 c 2,53,-1
 413 401 l 2,54,55
 439 450 439 450 491 558 c 128,-1,56
 543 666 543 666 545 671 c 0,57,58
 553 689 553 689 582 704.5 c 128,-1,59
 611 720 611 720 638 720 c 1,60,61
 625 670 625 670 508.5 448.5 c 128,-1,62
 392 227 392 227 310 98 c 0,63,64
 251 5 251 5 203 -41 c 128,-1,65
 155 -87 155 -87 100 -87 c 1,50,51
425 121 m 1,66,67
 425 149 425 149 437 159 c 0,68,69
 606 301 606 301 649 380 c 1,70,-1
 655 383 l 1,71,72
 675 381 675 381 675 362 c 0,73,74
 675 355 675 355 670 336.5 c 128,-1,75
 665 318 665 318 654.5 273.5 c 128,-1,76
 644 229 644 229 633 174 c 1,77,78
 646 174 646 174 696 182 c 1,79,80
 657 130 657 130 625 130 c 1,81,82
 608 7 608 7 608 -27 c 1,83,84
 545 -24 545 -24 545 8 c 0,85,86
 545 28 545 28 566 131 c 1,87,88
 475 131 475 131 425 121 c 1,66,67
507 177 m 1,89,90
 512 177 512 177 535 176.5 c 128,-1,91
 558 176 558 176 577 176 c 1,92,93
 588 236 588 236 595 258 c 1,94,95
 563 227 563 227 539.5 207 c 128,-1,96
 516 187 516 187 507 177 c 1,89,90
EndSplineSet
EndChar

StartChar: questiondown
Encoding: 191 191 127
Width: 437
GlyphClass: 2
Flags: W
LayerCount: 2
Fore
SplineSet
-41 -142 m 0,0,1
 -41 -106 -41 -106 -25 -75.5 c 128,-1,2
 -9 -45 -9 -45 16 -20 c 1,3,-1
 68 29 l 1,4,5
 95 53 95 53 119.5 85 c 128,-1,6
 144 117 144 117 156 153 c 0,7,8
 163 175 163 175 169 211.5 c 128,-1,9
 175 248 175 248 183 271 c 1,10,11
 209 258 209 258 217 247.5 c 128,-1,12
 225 237 225 237 225 215 c 0,13,14
 225 177 225 177 205.5 141.5 c 128,-1,15
 186 106 186 106 158 76 c 2,16,-1
 102 17 l 2,17,18
 74 -13 74 -13 54.5 -51 c 128,-1,19
 35 -89 35 -89 35 -129 c 0,20,21
 35 -182 35 -182 56.5 -211 c 128,-1,22
 78 -240 78 -240 112 -240 c 0,23,24
 166 -240 166 -240 212.5 -180 c 128,-1,25
 259 -120 259 -120 259 -41 c 0,26,27
 259 -9 259 -9 248 27 c 1,28,29
 294 20 294 20 312 -1 c 128,-1,30
 330 -22 330 -22 330 -57 c 0,31,32
 330 -146 330 -146 268.5 -213 c 128,-1,33
 207 -280 207 -280 109 -280 c 0,34,35
 40 -280 40 -280 -0.5 -244 c 128,-1,36
 -41 -208 -41 -208 -41 -142 c 0,0,1
166 348 m 0,37,38
 166 368 166 368 184.5 384 c 128,-1,39
 203 400 203 400 226 400 c 0,40,41
 243 400 243 400 254.5 391.5 c 128,-1,42
 266 383 266 383 266 367 c 0,43,44
 266 348 266 348 245 333.5 c 128,-1,45
 224 319 224 319 201 319 c 0,46,47
 166 319 166 319 166 348 c 0,37,38
EndSplineSet
EndChar

StartChar: Acircumflex
Encoding: 194 194 130
Width: 631
GlyphClass: 2
Flags: W
LayerCount: 2
Fore
SplineSet
0 -25 m 0,0,1
 0 49 0 49 147 275 c 1,2,3
 87 279 87 279 0 279 c 1,4,5
 24 344 24 344 116 344 c 0,6,7
 136 344 136 344 190 338 c 1,8,9
 302 500 302 500 399 611 c 128,-1,10
 496 722 496 722 528 722 c 0,11,12
 554 722 554 722 596 683 c 1,13,14
 563 658 563 658 501.5 443.5 c 128,-1,15
 440 229 440 229 440 108 c 0,16,17
 440 29 440 29 475 29 c 0,18,19
 529 29 529 29 608 178 c 1,20,-1
 626 159 l 1,21,22
 594 74 594 74 544 22.5 c 128,-1,23
 494 -29 494 -29 440 -29 c 0,24,25
 352 -29 352 -29 352 126 c 0,26,27
 352 175 352 175 365 250 c 1,28,29
 314 258 314 258 222 269 c 1,30,31
 129 104 129 104 46 -87 c 1,32,33
 0 -63 0 -63 0 -25 c 0,0,1
254 326 m 1,34,35
 277 321 277 321 320.5 311 c 128,-1,36
 364 301 364 301 375 299 c 1,37,38
 411 471 411 471 481 634 c 1,39,40
 392 564 392 564 254 326 c 1,34,35
465 852 m 0,41,42
 465 879 465 879 510 908.5 c 128,-1,43
 555 938 555 938 581 938 c 0,44,45
 606 938 606 938 641.5 900 c 128,-1,46
 677 862 677 862 677 832 c 0,47,48
 677 806 677 806 652 793 c 1,49,50
 629 832 629 832 580 876 c 1,51,52
 534 861 534 861 478 824 c 1,53,54
 465 832 465 832 465 852 c 0,41,42
EndSplineSet
EndChar

StartChar: Adieresis
Encoding: 196 196 132
Width: 631
GlyphClass: 2
Flags: W
LayerCount: 2
Fore
SplineSet
0 -25 m 0,0,1
 0 49 0 49 147 275 c 1,2,3
 87 279 87 279 0 279 c 1,4,5
 24 344 24 344 116 344 c 0,6,7
 136 344 136 344 190 338 c 1,8,9
 302 500 302 500 399 611 c 128,-1,10
 496 722 496 722 528 722 c 0,11,12
 554 722 554 722 596 683 c 1,13,14
 563 658 563 658 501.5 443.5 c 128,-1,15
 440 229 440 229 440 108 c 0,16,17
 440 29 440 29 475 29 c 0,18,19
 529 29 529 29 608 178 c 1,20,-1
 626 159 l 1,21,22
 594 74 594 74 544 22.5 c 128,-1,23
 494 -29 494 -29 440 -29 c 0,24,25
 352 -29 352 -29 352 126 c 0,26,27
 352 175 352 175 365 250 c 1,28,29
 314 258 314 258 222 269 c 1,30,31
 129 104 129 104 46 -87 c 1,32,33
 0 -63 0 -63 0 -25 c 0,0,1
254 326 m 1,34,35
 277 321 277 321 320.5 311 c 128,-1,36
 364 301 364 301 375 299 c 1,37,38
 411 471 411 471 481 634 c 1,39,40
 392 564 392 564 254 326 c 1,34,35
436 857 m 0,41,42
 436 875 436 875 458 890 c 128,-1,43
 480 905 480 905 503 905 c 0,44,45
 539 905 539 905 539 873 c 0,46,47
 539 855 539 855 520 839 c 128,-1,48
 501 823 501 823 479 823 c 0,49,50
 461 823 461 823 448.5 831.5 c 128,-1,51
 436 840 436 840 436 857 c 0,41,42
581 837 m 0,52,53
 581 856 581 856 602.5 870.5 c 128,-1,54
 624 885 624 885 648 885 c 0,55,56
 685 885 685 885 685 852 c 0,57,58
 685 834 685 834 665.5 818.5 c 128,-1,59
 646 803 646 803 623 803 c 0,60,61
 606 803 606 803 593.5 812 c 128,-1,62
 581 821 581 821 581 837 c 0,52,53
EndSplineSet
EndChar

StartChar: AE
Encoding: 198 198 134
Width: 790
GlyphClass: 2
Flags: W
LayerCount: 2
Fore
SplineSet
-1 -26 m 0,0,1
 -1 49 -1 49 146 275 c 1,2,3
 86 279 86 279 46 279 c 2,4,-1
 -1 279 l 1,5,6
 23 344 23 344 116 344 c 0,7,8
 135 344 135 344 189 338 c 1,9,10
 300 498 300 498 397 610 c 128,-1,11
 494 722 494 722 528 722 c 0,12,13
 683 722 683 722 861 699 c 1,14,15
 843 650 843 650 675 650 c 0,16,17
 637 650 637 650 571 652 c 1,18,19
 532 574 532 574 493 423 c 1,20,21
 550 421 550 421 629.5 410 c 128,-1,22
 709 399 709 399 711 399 c 1,23,24
 692 350 692 350 525 350 c 0,25,26
 489 350 489 350 474 351 c 1,27,28
 439 194 439 194 439 100 c 0,29,30
 439 94 439 94 442 67 c 1,31,32
 478 62 478 62 587.5 53 c 128,-1,33
 697 44 697 44 730 36 c 1,34,35
 713 -12 713 -12 545 -12 c 0,36,37
 429 -12 429 -12 387 -8 c 1,38,39
 350 25 350 25 350 126 c 0,40,41
 350 173 350 173 364 250 c 1,42,43
 313 258 313 258 221 269 c 1,44,45
 128 104 128 104 45 -87 c 1,46,47
 -1 -63 -1 -63 -1 -26 c 0,0,1
253 326 m 1,48,49
 275 322 275 322 316.5 312 c 128,-1,50
 358 302 358 302 374 299 c 1,51,52
 410 471 410 471 480 634 c 1,53,54
 391 564 391 564 253 326 c 1,48,49
EndSplineSet
EndChar

StartChar: Ecircumflex
Encoding: 202 202 138
Width: 533
GlyphClass: 2
Flags: W
LayerCount: 2
Fore
SplineSet
-4 101 m 0,0,1
 -4 191 -4 191 69.5 267.5 c 128,-1,2
 143 344 143 344 251 359 c 1,3,4
 179 422 179 422 179 510 c 0,5,6
 179 593 179 593 240.5 656 c 128,-1,7
 302 719 302 719 396 719 c 0,8,9
 457 719 457 719 490 689.5 c 128,-1,10
 523 660 523 660 523 604 c 0,11,12
 523 547 523 547 494.5 498.5 c 128,-1,13
 466 450 466 450 437 450 c 0,14,15
 412 450 412 450 389 491 c 1,16,17
 477 563 477 563 477 625 c 0,18,19
 477 654 477 654 457.5 670 c 128,-1,20
 438 686 438 686 405 686 c 0,21,22
 341 686 341 686 304.5 630.5 c 128,-1,23
 268 575 268 575 268 501 c 0,24,25
 268 396 268 396 342 339 c 1,26,27
 238 323 238 323 172 250.5 c 128,-1,28
 106 178 106 178 106 99 c 0,29,30
 106 45 106 45 138 1.5 c 128,-1,31
 170 -42 170 -42 236 -42 c 0,32,33
 315 -42 315 -42 392.5 22 c 128,-1,34
 470 86 470 86 513 175 c 1,35,-1
 540 158 l 1,36,37
 481 47 481 47 396 -20 c 128,-1,38
 311 -87 311 -87 209 -87 c 0,39,40
 115 -87 115 -87 55.5 -33 c 128,-1,41
 -4 21 -4 21 -4 101 c 0,0,1
382 852 m 0,42,43
 382 879 382 879 427 908.5 c 128,-1,44
 472 938 472 938 498 938 c 0,45,46
 523 938 523 938 558.5 900 c 128,-1,47
 594 862 594 862 594 832 c 0,48,49
 594 806 594 806 569 793 c 1,50,51
 546 832 546 832 497 876 c 1,52,53
 451 861 451 861 395 824 c 1,54,55
 382 832 382 832 382 852 c 0,42,43
EndSplineSet
EndChar

StartChar: Igrave
Encoding: 204 204 140
Width: 503
GlyphClass: 2
Flags: W
LayerCount: 2
Fore
SplineSet
-18 -88 m 1,0,1
 -15 -57 -15 -57 -1.5 -37.5 c 128,-1,2
 12 -18 12 -18 38 -9 c 128,-1,3
 64 0 64 0 89.5 3 c 128,-1,4
 115 6 115 6 154 6 c 1,5,6
 195 94 195 94 254 352.5 c 128,-1,7
 313 611 313 611 326 649 c 1,8,9
 202 647 202 647 89 625 c 1,10,11
 99 675 99 675 151.5 697 c 128,-1,12
 204 719 204 719 311 719 c 0,13,14
 431 719 431 719 601 697 c 1,15,16
 552 650 552 650 485 650 c 0,17,18
 409 650 409 650 377 649 c 1,19,-1
 371 619 l 2,20,21
 369 607 369 607 334.5 417.5 c 128,-1,22
 300 228 300 228 284 164 c 0,23,24
 254 44 254 44 212 4 c 1,25,26
 225 3 225 3 306 -5 c 128,-1,27
 387 -13 387 -13 438 -14 c 1,28,29
 379 -70 379 -70 303 -70 c 0,30,31
 164 -70 164 -70 109.5 -73 c 128,-1,32
 55 -76 55 -76 -18 -88 c 1,0,1
287 907 m 1,33,34
 288 926 288 926 297.5 936 c 128,-1,35
 307 946 307 946 319 946 c 0,36,37
 347 946 347 946 388 900 c 128,-1,38
 429 854 429 854 429 833 c 0,39,40
 429 824 429 824 422 813 c 128,-1,41
 415 802 415 802 404 797 c 1,42,43
 355 855 355 855 287 907 c 1,33,34
EndSplineSet
EndChar

StartChar: Eth
Encoding: 208 208 144
Width: 688
GlyphClass: 2
Flags: W
LayerCount: 2
Fore
SplineSet
28 265 m 1,0,1
 57 321 57 321 170 328 c 1,2,3
 213 466 213 466 241 537 c 0,4,5
 248 555 248 555 256.5 573 c 128,-1,6
 265 591 265 591 285 612.5 c 128,-1,7
 305 634 305 634 326 634 c 0,8,9
 343 634 343 634 364 620 c 1,10,11
 307 492 307 492 255 330 c 1,12,13
 315 330 315 330 438 320 c 1,14,15
 378 279 378 279 311 279 c 2,16,-1
 239 279 l 1,17,18
 182 101 182 101 151 -44 c 1,19,20
 174 -47 174 -47 189 -47 c 0,21,22
 293 -47 293 -47 388.5 26.5 c 128,-1,23
 484 100 484 100 540.5 214 c 128,-1,24
 597 328 597 328 597 446 c 0,25,26
 597 562 597 562 539.5 620.5 c 128,-1,27
 482 679 482 679 383 679 c 0,28,29
 285 679 285 679 220.5 627.5 c 128,-1,30
 156 576 156 576 156 499 c 0,31,32
 156 472 156 472 165 451 c 1,33,34
 85 451 85 451 85 515 c 0,35,36
 85 588 85 588 184 654 c 128,-1,37
 283 720 283 720 415 720 c 0,38,39
 554 720 554 720 620 641 c 128,-1,40
 686 562 686 562 686 435 c 0,41,42
 686 331 686 331 643 233 c 128,-1,43
 600 135 600 135 530.5 65.5 c 128,-1,44
 461 -4 461 -4 371.5 -45.5 c 128,-1,45
 282 -87 282 -87 192 -87 c 0,46,47
 108 -87 108 -87 70 -37 c 1,48,49
 95 87 95 87 154 278 c 1,50,51
 115 277 115 277 28 265 c 1,0,1
EndSplineSet
EndChar

StartChar: Ntilde
Encoding: 209 209 145
Width: 674
GlyphClass: 2
Flags: W
LayerCount: 2
Fore
SplineSet
56 -87 m 1,0,-1
 268 616 l 1,1,2
 275 644 275 644 275 655 c 0,3,4
 275 669 275 669 262 669 c 0,5,6
 222 669 222 669 188 612 c 128,-1,7
 154 555 154 555 154 507 c 0,8,9
 154 483 154 483 164 460 c 1,10,11
 84 460 84 460 84 525 c 128,-1,12
 84 590 84 590 157 655 c 128,-1,13
 230 720 230 720 291 720 c 0,14,15
 308 720 308 720 322.5 714 c 128,-1,16
 337 708 337 708 348.5 693.5 c 128,-1,17
 360 679 360 679 369 665 c 128,-1,18
 378 651 378 651 386 624.5 c 128,-1,19
 394 598 394 598 399 579 c 128,-1,20
 404 560 404 560 410.5 524.5 c 128,-1,21
 417 489 417 489 420 468 c 128,-1,22
 423 447 423 447 429 407 c 0,23,24
 460 192 460 192 475 114 c 1,25,26
 487 163 487 163 511 266 c 2,27,-1
 551 436 l 2,28,29
 567 501 567 501 588 570 c 128,-1,30
 609 639 609 639 626 668 c 0,31,32
 656 721 656 721 707 721 c 1,33,34
 649 570 649 570 580 296.5 c 128,-1,35
 511 23 511 23 511 -87 c 1,36,37
 472 -87 472 -87 449 -68.5 c 128,-1,38
 426 -50 426 -50 415 -1 c 0,39,40
 411 15 411 15 312 555 c 1,41,42
 195 130 195 130 153 21.5 c 128,-1,43
 111 -87 111 -87 56 -87 c 1,0,-1
363 802 m 1,44,45
 382 824 382 824 408 841.5 c 128,-1,46
 434 859 434 859 453 859 c 0,47,48
 482 859 482 859 544 839 c 128,-1,49
 606 819 606 819 640 819 c 0,50,51
 667 819 667 819 708 826 c 1,52,53
 657 772 657 772 616 772 c 0,54,55
 585 772 585 772 519.5 791 c 128,-1,56
 454 810 454 810 425 810 c 0,57,58
 409 810 409 810 363 802 c 1,44,45
EndSplineSet
EndChar

StartChar: Otilde
Encoding: 213 213 149
Width: 655
GlyphClass: 2
Flags: W
LayerCount: 2
Fore
SplineSet
32 164 m 0,0,1
 32 290 32 290 94.5 419.5 c 128,-1,2
 157 549 157 549 260 634 c 128,-1,3
 363 719 363 719 470 719 c 0,4,5
 511 719 511 719 538 691 c 1,6,7
 522 693 522 693 509 693 c 0,8,9
 425 693 425 693 337 609 c 128,-1,10
 249 525 249 525 192.5 399 c 128,-1,11
 136 273 136 273 136 158 c 0,12,13
 136 72 136 72 170.5 16.5 c 128,-1,14
 205 -39 205 -39 277 -39 c 0,15,16
 343 -39 343 -39 403.5 12 c 128,-1,17
 464 63 464 63 504 141.5 c 128,-1,18
 544 220 544 220 568 311.5 c 128,-1,19
 592 403 592 403 592 486 c 0,20,21
 592 541 592 541 581.5 585.5 c 128,-1,22
 571 630 571 630 547 630 c 0,23,24
 515 630 515 630 472.5 556.5 c 128,-1,25
 430 483 430 483 417 419 c 1,26,27
 354 432 354 432 354 477 c 0,28,29
 354 531 354 531 423 601 c 128,-1,30
 492 671 492 671 549 671 c 0,31,32
 577 671 577 671 597 650 c 128,-1,33
 617 629 617 629 626.5 593.5 c 128,-1,34
 636 558 636 558 640 523 c 128,-1,35
 644 488 644 488 644 450 c 0,36,37
 644 328 644 328 605 223.5 c 128,-1,38
 566 119 566 119 506 53 c 128,-1,39
 446 -13 446 -13 376.5 -50 c 128,-1,40
 307 -87 307 -87 242 -87 c 0,41,42
 152 -87 152 -87 92 -18.5 c 128,-1,43
 32 50 32 50 32 164 c 0,0,1
393 802 m 1,44,45
 412 824 412 824 438 841.5 c 128,-1,46
 464 859 464 859 483 859 c 0,47,48
 512 859 512 859 574 839 c 128,-1,49
 636 819 636 819 670 819 c 0,50,51
 697 819 697 819 738 826 c 1,52,53
 687 772 687 772 646 772 c 0,54,55
 615 772 615 772 549.5 791 c 128,-1,56
 484 810 484 810 455 810 c 0,57,58
 439 810 439 810 393 802 c 1,44,45
EndSplineSet
EndChar

StartChar: Odieresis
Encoding: 214 214 150
Width: 655
GlyphClass: 2
Flags: W
LayerCount: 2
Fore
SplineSet
32 164 m 0,0,1
 32 290 32 290 94.5 419.5 c 128,-1,2
 157 549 157 549 260 634 c 128,-1,3
 363 719 363 719 470 719 c 0,4,5
 511 719 511 719 538 691 c 1,6,7
 522 693 522 693 509 693 c 0,8,9
 425 693 425 693 337 609 c 128,-1,10
 249 525 249 525 192.5 399 c 128,-1,11
 136 273 136 273 136 158 c 0,12,13
 136 72 136 72 170.5 16.5 c 128,-1,14
 205 -39 205 -39 277 -39 c 0,15,16
 343 -39 343 -39 403.5 12 c 128,-1,17
 464 63 464 63 504 141.5 c 128,-1,18
 544 220 544 220 568 311.5 c 128,-1,19
 592 403 592 403 592 486 c 0,20,21
 592 541 592 541 581.5 585.5 c 128,-1,22
 571 630 571 630 547 630 c 0,23,24
 515 630 515 630 472.5 556.5 c 128,-1,25
 430 483 430 483 417 419 c 1,26,27
 354 432 354 432 354 477 c 0,28,29
 354 531 354 531 423 601 c 128,-1,30
 492 671 492 671 549 671 c 0,31,32
 577 671 577 671 597 650 c 128,-1,33
 617 629 617 629 626.5 593.5 c 128,-1,34
 636 558 636 558 640 523 c 128,-1,35
 644 488 644 488 644 450 c 0,36,37
 644 328 644 328 605 223.5 c 128,-1,38
 566 119 566 119 506 53 c 128,-1,39
 446 -13 446 -13 376.5 -50 c 128,-1,40
 307 -87 307 -87 242 -87 c 0,41,42
 152 -87 152 -87 92 -18.5 c 128,-1,43
 32 50 32 50 32 164 c 0,0,1
404 857 m 0,44,45
 404 875 404 875 426 890 c 128,-1,46
 448 905 448 905 471 905 c 0,47,48
 507 905 507 905 507 873 c 0,49,50
 507 855 507 855 488 839 c 128,-1,51
 469 823 469 823 447 823 c 0,52,53
 429 823 429 823 416.5 831.5 c 128,-1,54
 404 840 404 840 404 857 c 0,44,45
549 837 m 0,55,56
 549 856 549 856 570.5 870.5 c 128,-1,57
 592 885 592 885 616 885 c 0,58,59
 653 885 653 885 653 852 c 0,60,61
 653 834 653 834 633.5 818.5 c 128,-1,62
 614 803 614 803 591 803 c 0,63,64
 574 803 574 803 561.5 812 c 128,-1,65
 549 821 549 821 549 837 c 0,55,56
EndSplineSet
EndChar

StartChar: multiply
Encoding: 215 215 151
Width: 405
GlyphClass: 2
Flags: W
LayerCount: 2
Fore
SplineSet
58 46 m 0,0,1
 58 87 58 87 140 176 c 1,2,3
 72 246 72 246 72 285 c 0,4,5
 72 296 72 296 81 314 c 1,6,7
 119 266 119 266 176 210 c 1,8,9
 244 274 244 274 309 322 c 1,10,11
 305 290 305 290 292 263.5 c 128,-1,12
 279 237 279 237 269 225 c 128,-1,13
 259 213 259 213 238.5 195 c 128,-1,14
 218 177 218 177 216 175 c 1,15,-1
 265 130 l 1,16,17
 310 87 310 87 325 20 c 1,18,19
 251 74 251 74 181 137 c 1,20,-1
 178 140 l 1,21,22
 114 80 114 80 68 19 c 1,23,24
 58 35 58 35 58 46 c 0,0,1
EndSplineSet
EndChar

StartChar: Oslash
Encoding: 216 216 152
Width: 654
GlyphClass: 2
Flags: W
LayerCount: 2
Fore
SplineSet
30 166 m 0,0,1
 30 290 30 290 93.5 419.5 c 128,-1,2
 157 549 157 549 258 633.5 c 128,-1,3
 359 718 359 718 460 718 c 0,4,5
 504 718 504 718 523 692 c 1,6,-1
 509 692 l 2,7,8
 424 692 424 692 336 608 c 128,-1,9
 248 524 248 524 191.5 398.5 c 128,-1,10
 135 273 135 273 135 158 c 0,11,12
 135 79 135 79 161 28 c 1,13,14
 313 212 313 212 572 603 c 1,15,16
 561 629 561 629 546 629 c 0,17,18
 514 629 514 629 471 554.5 c 128,-1,19
 428 480 428 480 415 418 c 1,20,21
 353 432 353 432 353 476 c 0,22,23
 353 530 353 530 422 600 c 128,-1,24
 491 670 491 670 545 670 c 0,25,26
 577 670 577 670 600 642 c 1,27,28
 608 653 608 653 633 662 c 128,-1,29
 658 671 658 671 681 671 c 0,30,31
 693 671 693 671 710 668 c 1,32,33
 703 659 703 659 634 559 c 1,34,35
 644 515 644 515 644 456 c 0,36,37
 644 355 644 355 618.5 265.5 c 128,-1,38
 593 176 593 176 551 113 c 128,-1,39
 509 50 509 50 456 3.5 c 128,-1,40
 403 -43 403 -43 348.5 -65.5 c 128,-1,41
 294 -88 294 -88 243 -88 c 0,42,43
 200 -88 200 -88 157 -70 c 1,44,45
 110 -101 110 -101 70 -101 c 0,46,47
 57 -101 57 -101 32 -96 c 1,48,49
 70 -71 70 -71 104 -34 c 1,50,51
 30 37 30 37 30 166 c 0,0,1
211 -25 m 1,52,53
 239 -40 239 -40 273 -40 c 0,54,55
 341 -40 341 -40 402 11.5 c 128,-1,56
 463 63 463 63 503.5 142.5 c 128,-1,57
 544 222 544 222 567.5 316 c 128,-1,58
 591 410 591 410 591 497 c 1,59,-1
 271 46 l 1,60,61
 236 -1 236 -1 211 -25 c 1,52,53
EndSplineSet
EndChar

StartChar: Yacute
Encoding: 221 221 157
Width: 706
GlyphClass: 2
Flags: W
LayerCount: 2
Fore
SplineSet
32 536 m 0,0,1
 32 601 32 601 91.5 660.5 c 128,-1,2
 151 720 151 720 234 720 c 0,3,4
 291 720 291 720 321 689 c 128,-1,5
 351 658 351 658 351 610 c 0,6,7
 351 575 351 575 323 475 c 0,8,9
 287 346 287 346 287 293 c 0,10,11
 287 199 287 199 358 199 c 0,12,13
 422 199 422 199 477 267.5 c 128,-1,14
 532 336 532 336 567 439 c 1,15,-1
 587 505 l 1,16,-1
 611 582 l 2,17,18
 621 614 621 614 634.5 648.5 c 128,-1,19
 648 683 648 683 663 701.5 c 128,-1,20
 678 720 678 720 693 720 c 0,21,22
 723 720 723 720 761 682 c 1,23,24
 709 602 709 602 683 523.5 c 128,-1,25
 657 445 657 445 596 193 c 0,26,27
 581 131 581 131 567 86 c 128,-1,28
 553 41 553 41 527 -14 c 128,-1,29
 501 -69 501 -69 470.5 -104 c 128,-1,30
 440 -139 440 -139 392 -163 c 128,-1,31
 344 -187 344 -187 286 -187 c 0,32,33
 222 -187 222 -187 182 -161 c 128,-1,34
 142 -135 142 -135 142 -88 c 0,35,36
 142 -56 142 -56 162 -31.5 c 128,-1,37
 182 -7 182 -7 218 1 c 1,38,39
 207 -48 207 -48 207 -67 c 0,40,41
 207 -152 207 -152 298 -152 c 0,42,43
 354 -152 354 -152 394.5 -119 c 128,-1,44
 435 -86 435 -86 457 -29.5 c 128,-1,45
 479 27 479 27 492 80 c 128,-1,46
 505 133 505 133 515.5 197.5 c 128,-1,47
 526 262 526 262 534 287 c 1,48,49
 446 145 446 145 325 145 c 0,50,51
 262 145 262 145 232 180 c 128,-1,52
 202 215 202 215 202 273 c 0,53,54
 202 323 202 323 234 443 c 128,-1,55
 266 563 266 563 266 606 c 0,56,57
 266 678 266 678 212 678 c 0,58,59
 163 678 163 678 136 626.5 c 128,-1,60
 109 575 109 575 109 515 c 0,61,62
 109 491 109 491 121 459 c 1,63,64
 32 459 32 459 32 536 c 0,0,1
508 831 m 0,65,66
 508 851 508 851 545.5 898.5 c 128,-1,67
 583 946 583 946 611 946 c 0,68,69
 637 946 637 946 641 911 c 1,70,71
 556 829 556 829 532 798 c 1,72,73
 521 803 521 803 514.5 813.5 c 128,-1,74
 508 824 508 824 508 831 c 0,65,66
EndSplineSet
EndChar

StartChar: Thorn
Encoding: 222 222 158
Width: 543
GlyphClass: 2
Flags: W
LayerCount: 2
Fore
SplineSet
49 -30 m 0,0,1
 49 -13 49 -13 62 26 c 0,2,3
 164 344 164 344 242 542 c 1,4,5
 208 535 208 535 175 521.5 c 128,-1,6
 142 508 142 508 123 498 c 128,-1,7
 104 488 104 488 99 488 c 0,8,9
 90 488 90 488 74.5 502 c 128,-1,10
 59 516 59 516 59 527 c 1,11,12
 176 573 176 573 259 581 c 1,13,14
 263 590 263 590 271.5 612.5 c 128,-1,15
 280 635 280 635 286.5 650 c 128,-1,16
 293 665 293 665 303 682 c 128,-1,17
 313 699 313 699 325.5 707.5 c 128,-1,18
 338 716 338 716 353 716 c 0,19,20
 369 716 369 716 385 698 c 1,21,22
 356 640 356 640 334 581 c 1,23,24
 432 568 432 568 502.5 517.5 c 128,-1,25
 573 467 573 467 573 381 c 0,26,27
 573 329 573 329 544 287.5 c 128,-1,28
 515 246 515 246 473 222 c 128,-1,29
 431 198 431 198 376.5 182 c 128,-1,30
 322 166 322 166 279.5 159.5 c 128,-1,31
 237 153 237 153 199 152 c 1,32,33
 186 108 186 108 164.5 27 c 128,-1,34
 143 -54 143 -54 133 -87 c 1,35,36
 101 -87 101 -87 75 -70.5 c 128,-1,37
 49 -54 49 -54 49 -30 c 0,0,1
208 186 m 1,38,39
 326 201 326 201 408.5 256.5 c 128,-1,40
 491 312 491 312 491 402 c 0,41,42
 491 472 491 472 441.5 507.5 c 128,-1,43
 392 543 392 543 320 546 c 1,44,45
 270 410 270 410 208 186 c 1,38,39
EndSplineSet
EndChar

StartChar: germandbls
Encoding: 223 223 159
Width: 471
GlyphClass: 2
Flags: W
LayerCount: 2
Fore
SplineSet
-43 -115 m 1,0,1
 -28 -96 -28 -96 -15 -37.5 c 128,-1,2
 -2 21 -2 21 10 95 c 2,3,-1
 35 257 l 2,4,5
 49 344 49 344 71 426.5 c 128,-1,6
 93 509 93 509 121.5 576.5 c 128,-1,7
 150 644 150 644 195 685 c 128,-1,8
 240 726 240 726 296 726 c 0,9,10
 347 726 347 726 381 694.5 c 128,-1,11
 415 663 415 663 415 608 c 0,12,13
 415 539 415 539 364.5 477.5 c 128,-1,14
 314 416 314 416 245 376 c 1,15,16
 315 355 315 355 354 296 c 128,-1,17
 393 237 393 237 393 161 c 0,18,19
 393 70 393 70 341.5 -6 c 128,-1,20
 290 -82 290 -82 216 -82 c 0,21,22
 163 -82 163 -82 141 -43 c 128,-1,23
 119 -4 119 -4 119 53 c 0,24,25
 119 106 119 106 136 142 c 128,-1,26
 153 178 153 178 186 178 c 0,27,28
 199 178 199 178 225 173 c 1,29,30
 204 162 204 162 189 119 c 128,-1,31
 174 76 174 76 174 26 c 0,32,33
 174 -48 174 -48 206 -48 c 0,34,35
 239 -48 239 -48 275.5 21.5 c 128,-1,36
 312 91 312 91 312 164 c 0,37,38
 312 276 312 276 229 345 c 0,39,40
 205 364 205 364 205 378 c 128,-1,41
 205 392 205 392 232 415 c 0,42,43
 266 445 266 445 286 466 c 128,-1,44
 306 487 306 487 326 526.5 c 128,-1,45
 346 566 346 566 346 608 c 0,46,47
 346 685 346 685 288 685 c 0,48,49
 232 685 232 685 195 608.5 c 128,-1,50
 158 532 158 532 139 420 c 2,51,-1
 100 193 l 2,52,53
 81 78 81 78 45.5 -10.5 c 128,-1,54
 10 -99 10 -99 -43 -115 c 1,0,1
EndSplineSet
EndChar

StartChar: agrave
Encoding: 224 224 160
Width: 444
GlyphClass: 2
Flags: W
LayerCount: 2
Fore
SplineSet
-26 41 m 0,0,1
 -26 99 -26 99 15 170 c 128,-1,2
 56 241 56 241 123.5 292 c 128,-1,3
 191 343 191 343 257 343 c 0,4,5
 301 343 301 343 330.5 320.5 c 128,-1,6
 360 298 360 298 360 263 c 0,7,8
 360 217 360 217 303 215 c 1,9,10
 339 204 339 204 339 185 c 0,11,12
 339 174 339 174 310.5 125.5 c 128,-1,13
 282 77 282 77 282 53 c 0,14,15
 282 17 282 17 312 17 c 0,16,17
 340 17 340 17 383.5 56 c 128,-1,18
 427 95 427 95 468 173 c 1,19,-1
 487 154 l 1,20,21
 450 71 450 71 395 20.5 c 128,-1,22
 340 -30 340 -30 284 -30 c 0,23,24
 244 -30 244 -30 222.5 -3.5 c 128,-1,25
 201 23 201 23 201 57 c 1,26,27
 156 3 156 3 124 -22 c 128,-1,28
 92 -47 92 -47 56 -47 c 0,29,30
 21 -47 21 -47 -2.5 -24 c 128,-1,31
 -26 -1 -26 -1 -26 41 c 0,0,1
54 36 m 0,32,33
 54 4 54 4 77 4 c 0,34,35
 90 4 90 4 104.5 11.5 c 128,-1,36
 119 19 119 19 136 34 c 1,37,-1
 167 64 l 2,38,39
 182 79 182 79 201 103 c 2,40,-1
 231 141 l 1,41,-1
 260 180 l 1,42,-1
 284 213 l 2,43,44
 287 218 287 218 292 218 c 2,45,-1
 294 218 l 1,46,-1
 296 217 l 1,47,48
 301 233 301 233 301 254 c 0,49,50
 301 306 301 306 259 306 c 0,51,52
 193 306 193 306 123.5 208 c 128,-1,53
 54 110 54 110 54 36 c 0,32,33
179 519 m 1,54,55
 180 538 180 538 189.5 548 c 128,-1,56
 199 558 199 558 211 558 c 0,57,58
 239 558 239 558 280 512 c 128,-1,59
 321 466 321 466 321 445 c 0,60,61
 321 436 321 436 314 425 c 128,-1,62
 307 414 307 414 296 409 c 1,63,64
 247 467 247 467 179 519 c 1,54,55
EndSplineSet
EndChar

StartChar: atilde
Encoding: 227 227 163
Width: 444
GlyphClass: 2
Flags: W
LayerCount: 2
Fore
SplineSet
-26 41 m 0,0,1
 -26 99 -26 99 15 170 c 128,-1,2
 56 241 56 241 123.5 292 c 128,-1,3
 191 343 191 343 257 343 c 0,4,5
 301 343 301 343 330.5 320.5 c 128,-1,6
 360 298 360 298 360 263 c 0,7,8
 360 217 360 217 303 215 c 1,9,10
 339 204 339 204 339 185 c 0,11,12
 339 174 339 174 310.5 125.5 c 128,-1,13
 282 77 282 77 282 53 c 0,14,15
 282 17 282 17 312 17 c 0,16,17
 340 17 340 17 383.5 56 c 128,-1,18
 427 95 427 95 468 173 c 1,19,-1
 487 154 l 1,20,21
 450 71 450 71 395 20.5 c 128,-1,22
 340 -30 340 -30 284 -30 c 0,23,24
 244 -30 244 -30 222.5 -3.5 c 128,-1,25
 201 23 201 23 201 57 c 1,26,27
 156 3 156 3 124 -22 c 128,-1,28
 92 -47 92 -47 56 -47 c 0,29,30
 21 -47 21 -47 -2.5 -24 c 128,-1,31
 -26 -1 -26 -1 -26 41 c 0,0,1
54 36 m 0,32,33
 54 4 54 4 77 4 c 0,34,35
 90 4 90 4 104.5 11.5 c 128,-1,36
 119 19 119 19 136 34 c 1,37,-1
 167 64 l 2,38,39
 182 79 182 79 201 103 c 2,40,-1
 231 141 l 1,41,-1
 260 180 l 1,42,-1
 284 213 l 2,43,44
 287 218 287 218 292 218 c 2,45,-1
 294 218 l 1,46,-1
 296 217 l 1,47,48
 301 233 301 233 301 254 c 0,49,50
 301 306 301 306 259 306 c 0,51,52
 193 306 193 306 123.5 208 c 128,-1,53
 54 110 54 110 54 36 c 0,32,33
148 414 m 1,54,55
 167 436 167 436 193 453.5 c 128,-1,56
 219 471 219 471 238 471 c 0,57,58
 267 471 267 471 329 451 c 128,-1,59
 391 431 391 431 425 431 c 0,60,61
 452 431 452 431 493 438 c 1,62,63
 442 384 442 384 401 384 c 0,64,65
 370 384 370 384 304.5 403 c 128,-1,66
 239 422 239 422 210 422 c 0,67,68
 194 422 194 422 148 414 c 1,54,55
EndSplineSet
EndChar

StartChar: aring
Encoding: 229 229 165
Width: 444
GlyphClass: 2
Flags: W
LayerCount: 2
Fore
SplineSet
-26 41 m 0,0,1
 -26 99 -26 99 15 170 c 128,-1,2
 56 241 56 241 123.5 292 c 128,-1,3
 191 343 191 343 257 343 c 0,4,5
 301 343 301 343 330.5 320.5 c 128,-1,6
 360 298 360 298 360 263 c 0,7,8
 360 217 360 217 303 215 c 1,9,10
 339 204 339 204 339 185 c 0,11,12
 339 174 339 174 310.5 125.5 c 128,-1,13
 282 77 282 77 282 53 c 0,14,15
 282 17 282 17 312 17 c 0,16,17
 340 17 340 17 383.5 56 c 128,-1,18
 427 95 427 95 468 173 c 1,19,-1
 487 154 l 1,20,21
 450 71 450 71 395 20.5 c 128,-1,22
 340 -30 340 -30 284 -30 c 0,23,24
 244 -30 244 -30 222.5 -3.5 c 128,-1,25
 201 23 201 23 201 57 c 1,26,27
 156 3 156 3 124 -22 c 128,-1,28
 92 -47 92 -47 56 -47 c 0,29,30
 21 -47 21 -47 -2.5 -24 c 128,-1,31
 -26 -1 -26 -1 -26 41 c 0,0,1
54 36 m 0,32,33
 54 4 54 4 77 4 c 0,34,35
 90 4 90 4 104.5 11.5 c 128,-1,36
 119 19 119 19 136 34 c 1,37,-1
 167 64 l 2,38,39
 182 79 182 79 201 103 c 2,40,-1
 231 141 l 1,41,-1
 260 180 l 1,42,-1
 284 213 l 2,43,44
 287 218 287 218 292 218 c 2,45,-1
 294 218 l 1,46,-1
 296 217 l 1,47,48
 301 233 301 233 301 254 c 0,49,50
 301 306 301 306 259 306 c 0,51,52
 193 306 193 306 123.5 208 c 128,-1,53
 54 110 54 110 54 36 c 0,32,33
258 453 m 0,54,55
 258 490 258 490 295 526 c 128,-1,56
 332 562 332 562 382 562 c 0,57,58
 423 562 423 562 443.5 546 c 128,-1,59
 464 530 464 530 464 505 c 0,60,61
 464 467 464 467 425.5 431.5 c 128,-1,62
 387 396 387 396 336 396 c 0,63,64
 297 396 297 396 277.5 412 c 128,-1,65
 258 428 258 428 258 453 c 0,54,55
310 459 m 1,66,67
 311 448 311 448 319.5 439.5 c 128,-1,68
 328 431 328 431 344 431 c 0,69,70
 369 431 369 431 391 453.5 c 128,-1,71
 413 476 413 476 413 498 c 0,72,73
 413 524 413 524 378 524 c 0,74,75
 353 524 353 524 331.5 502.5 c 128,-1,76
 310 481 310 481 310 459 c 1,66,67
EndSplineSet
EndChar

StartChar: ae
Encoding: 230 230 166
Width: 556
GlyphClass: 2
Flags: W
LayerCount: 2
Fore
SplineSet
-26 41 m 0,0,1
 -26 99 -26 99 15.5 170 c 128,-1,2
 57 241 57 241 125 292.5 c 128,-1,3
 193 344 193 344 259 344 c 0,4,5
 313 344 313 344 332 307 c 1,6,7
 402 360 402 360 464 360 c 0,8,9
 535 360 535 360 535 294 c 0,10,11
 535 222 535 222 457 166 c 128,-1,12
 379 110 379 110 283 100 c 1,13,14
 281 90 281 90 281 72 c 0,15,16
 285 -1 285 -1 358 -1 c 0,17,18
 419 -1 419 -1 481 48.5 c 128,-1,19
 543 98 543 98 582 172 c 1,20,-1
 601 156 l 1,21,22
 560 65 560 65 487.5 10.5 c 128,-1,23
 415 -44 415 -44 337 -44 c 0,24,25
 281 -44 281 -44 246.5 -16 c 128,-1,26
 212 12 212 12 205 56 c 1,27,28
 121 -47 121 -47 58 -47 c 0,29,30
 22 -47 22 -47 -2 -24 c 128,-1,31
 -26 -1 -26 -1 -26 41 c 0,0,1
58 39 m 0,32,33
 58 8 58 8 80 8 c 0,34,35
 126 8 126 8 204 105 c 1,36,37
 218 197 218 197 299 276 c 1,38,39
 291 303 291 303 257 303 c 0,40,41
 213 303 213 303 165 256 c 128,-1,42
 117 209 117 209 87.5 147 c 128,-1,43
 58 85 58 85 58 39 c 0,32,33
293 137 m 1,44,45
 362 163 362 163 420 207 c 128,-1,46
 478 251 478 251 478 301 c 0,47,48
 478 315 478 315 462 315 c 0,49,50
 418 315 418 315 367 259.5 c 128,-1,51
 316 204 316 204 293 137 c 1,44,45
EndSplineSet
EndChar

StartChar: ccedilla
Encoding: 231 231 167
Width: 333
GlyphClass: 2
Flags: W
LayerCount: 2
Fore
SplineSet
-6 76 m 0,0,1
 -6 174 -6 174 64 256 c 128,-1,2
 134 338 134 338 216 338 c 0,3,4
 256 338 256 338 275.5 318 c 128,-1,5
 295 298 295 298 295 268 c 128,-1,6
 295 238 295 238 280.5 212.5 c 128,-1,7
 266 187 266 187 245 187 c 0,8,9
 226 187 226 187 214 206 c 1,10,11
 246 228 246 228 246 281 c 0,12,13
 246 298 246 298 227 298 c 0,14,15
 178 298 178 298 124.5 218 c 128,-1,16
 71 138 71 138 71 70 c 0,17,18
 71 -5 71 -5 142 -5 c 0,19,20
 201 -5 201 -5 262.5 44.5 c 128,-1,21
 324 94 324 94 356 173 c 1,22,-1
 376 155 l 1,23,24
 329 36 329 36 226 -23 c 1,25,-1
 189 -82 l 1,26,27
 222 -70 222 -70 243 -70 c 0,28,29
 267 -70 267 -70 282 -83 c 128,-1,30
 297 -96 297 -96 297 -120 c 0,31,32
 297 -162 297 -162 256.5 -201 c 128,-1,33
 216 -240 216 -240 165 -240 c 0,34,35
 137 -240 137 -240 118 -227 c 128,-1,36
 99 -214 99 -214 99 -199 c 0,37,38
 99 -178 99 -178 131 -156 c 1,39,40
 144 -201 144 -201 171 -201 c 0,41,42
 195 -201 195 -201 223.5 -171 c 128,-1,43
 252 -141 252 -141 252 -118 c 0,44,45
 252 -102 252 -102 236 -102 c 0,46,47
 223 -102 223 -102 194 -120.5 c 128,-1,48
 165 -139 165 -139 157 -139 c 128,-1,49
 149 -139 149 -139 142.5 -130.5 c 128,-1,50
 136 -122 136 -122 136 -114 c 0,51,52
 136 -111 136 -111 158 -81.5 c 128,-1,53
 180 -52 180 -52 191 -42 c 2,54,-1
 197 -37 l 1,55,56
 153 -56 153 -56 113 -56 c 0,57,58
 59 -56 59 -56 26.5 -22.5 c 128,-1,59
 -6 11 -6 11 -6 76 c 0,0,1
EndSplineSet
EndChar

StartChar: eacute
Encoding: 233 233 169
Width: 341
GlyphClass: 2
Flags: W
LayerCount: 2
Fore
SplineSet
-17 77 m 0,0,1
 -17 168 -17 168 67.5 264.5 c 128,-1,2
 152 361 152 361 242 361 c 0,3,4
 315 361 315 361 315 294 c 0,5,6
 315 222 315 222 237 166 c 128,-1,7
 159 110 159 110 63 100 c 1,8,9
 61 90 61 90 61 77 c 0,10,11
 61 67 61 67 62.5 58 c 128,-1,12
 64 49 64 49 70.5 33.5 c 128,-1,13
 77 18 77 18 94.5 8.5 c 128,-1,14
 112 -1 112 -1 138 -1 c 0,15,16
 199 -1 199 -1 262.5 48.5 c 128,-1,17
 326 98 326 98 365 172 c 1,18,-1
 385 156 l 1,19,20
 345 66 345 66 270.5 11 c 128,-1,21
 196 -44 196 -44 116 -44 c 0,22,23
 53 -44 53 -44 18 -10 c 128,-1,24
 -17 24 -17 24 -17 77 c 0,0,1
74 137 m 1,25,26
 132 144 132 144 196.5 195 c 128,-1,27
 261 246 261 246 261 299 c 0,28,29
 261 318 261 318 244 318 c 0,30,31
 200 318 200 318 148 260 c 128,-1,32
 96 202 96 202 74 137 c 1,25,26
273 443 m 0,33,34
 273 463 273 463 310.5 510.5 c 128,-1,35
 348 558 348 558 376 558 c 0,36,37
 402 558 402 558 406 523 c 1,38,39
 321 441 321 441 297 410 c 1,40,41
 286 415 286 415 279.5 425.5 c 128,-1,42
 273 436 273 436 273 443 c 0,33,34
EndSplineSet
EndChar

StartChar: ecircumflex
Encoding: 234 234 170
Width: 341
GlyphClass: 2
Flags: W
LayerCount: 2
Fore
SplineSet
-17 77 m 0,0,1
 -17 168 -17 168 67.5 264.5 c 128,-1,2
 152 361 152 361 242 361 c 0,3,4
 315 361 315 361 315 294 c 0,5,6
 315 222 315 222 237 166 c 128,-1,7
 159 110 159 110 63 100 c 1,8,9
 61 90 61 90 61 77 c 0,10,11
 61 67 61 67 62.5 58 c 128,-1,12
 64 49 64 49 70.5 33.5 c 128,-1,13
 77 18 77 18 94.5 8.5 c 128,-1,14
 112 -1 112 -1 138 -1 c 0,15,16
 199 -1 199 -1 262.5 48.5 c 128,-1,17
 326 98 326 98 365 172 c 1,18,-1
 385 156 l 1,19,20
 345 66 345 66 270.5 11 c 128,-1,21
 196 -44 196 -44 116 -44 c 0,22,23
 53 -44 53 -44 18 -10 c 128,-1,24
 -17 24 -17 24 -17 77 c 0,0,1
74 137 m 1,25,26
 132 144 132 144 196.5 195 c 128,-1,27
 261 246 261 246 261 299 c 0,28,29
 261 318 261 318 244 318 c 0,30,31
 200 318 200 318 148 260 c 128,-1,32
 96 202 96 202 74 137 c 1,25,26
193 464 m 0,33,34
 193 491 193 491 238 520.5 c 128,-1,35
 283 550 283 550 309 550 c 0,36,37
 334 550 334 550 369.5 512 c 128,-1,38
 405 474 405 474 405 444 c 0,39,40
 405 418 405 418 380 405 c 1,41,42
 357 444 357 444 308 488 c 1,43,44
 262 473 262 473 206 436 c 1,45,46
 193 444 193 444 193 464 c 0,33,34
EndSplineSet
EndChar

StartChar: edieresis
Encoding: 235 235 171
Width: 341
GlyphClass: 2
Flags: W
LayerCount: 2
Fore
SplineSet
-17 77 m 0,0,1
 -17 168 -17 168 67.5 264.5 c 128,-1,2
 152 361 152 361 242 361 c 0,3,4
 315 361 315 361 315 294 c 0,5,6
 315 222 315 222 237 166 c 128,-1,7
 159 110 159 110 63 100 c 1,8,9
 61 90 61 90 61 77 c 0,10,11
 61 67 61 67 62.5 58 c 128,-1,12
 64 49 64 49 70.5 33.5 c 128,-1,13
 77 18 77 18 94.5 8.5 c 128,-1,14
 112 -1 112 -1 138 -1 c 0,15,16
 199 -1 199 -1 262.5 48.5 c 128,-1,17
 326 98 326 98 365 172 c 1,18,-1
 385 156 l 1,19,20
 345 66 345 66 270.5 11 c 128,-1,21
 196 -44 196 -44 116 -44 c 0,22,23
 53 -44 53 -44 18 -10 c 128,-1,24
 -17 24 -17 24 -17 77 c 0,0,1
74 137 m 1,25,26
 132 144 132 144 196.5 195 c 128,-1,27
 261 246 261 246 261 299 c 0,28,29
 261 318 261 318 244 318 c 0,30,31
 200 318 200 318 148 260 c 128,-1,32
 96 202 96 202 74 137 c 1,25,26
174 479 m 0,33,34
 174 497 174 497 196 512 c 128,-1,35
 218 527 218 527 241 527 c 0,36,37
 277 527 277 527 277 495 c 0,38,39
 277 477 277 477 258 461 c 128,-1,40
 239 445 239 445 217 445 c 0,41,42
 199 445 199 445 186.5 453.5 c 128,-1,43
 174 462 174 462 174 479 c 0,33,34
319 459 m 0,44,45
 319 478 319 478 340.5 492.5 c 128,-1,46
 362 507 362 507 386 507 c 0,47,48
 423 507 423 507 423 474 c 0,49,50
 423 456 423 456 403.5 440.5 c 128,-1,51
 384 425 384 425 361 425 c 0,52,53
 344 425 344 425 331.5 434 c 128,-1,54
 319 443 319 443 319 459 c 0,44,45
EndSplineSet
EndChar

StartChar: icircumflex
Encoding: 238 238 174
Width: 244
GlyphClass: 2
Flags: W
LayerCount: 2
Fore
SplineSet
-8 59 m 0,0,1
 -8 99 -8 99 13 164.5 c 128,-1,2
 34 230 34 230 70 285 c 128,-1,3
 106 340 106 340 141 340 c 0,4,5
 154 340 154 340 162.5 332.5 c 128,-1,6
 171 325 171 325 171 311 c 0,7,8
 171 298 171 298 145.5 256.5 c 128,-1,9
 120 215 120 215 94 162.5 c 128,-1,10
 68 110 68 110 68 72 c 0,11,12
 68 41 68 41 79 30 c 128,-1,13
 90 19 90 19 113 19 c 0,14,15
 192 19 192 19 270 172 c 1,16,-1
 285 156 l 1,17,18
 250 68 250 68 196 19 c 128,-1,19
 142 -30 142 -30 80 -30 c 0,20,21
 38 -30 38 -30 15 -5 c 128,-1,22
 -8 20 -8 20 -8 59 c 0,0,1
73 454 m 0,23,24
 73 481 73 481 118 510.5 c 128,-1,25
 163 540 163 540 189 540 c 0,26,27
 214 540 214 540 249.5 502 c 128,-1,28
 285 464 285 464 285 434 c 0,29,30
 285 408 285 408 260 395 c 1,31,32
 237 434 237 434 188 478 c 1,33,34
 142 463 142 463 86 426 c 1,35,36
 73 433 73 433 73 454 c 0,23,24
EndSplineSet
EndChar

StartChar: idieresis
Encoding: 239 239 175
Width: 244
GlyphClass: 2
Flags: W
LayerCount: 2
Fore
SplineSet
-8 59 m 0,0,1
 -8 99 -8 99 13 164.5 c 128,-1,2
 34 230 34 230 70 285 c 128,-1,3
 106 340 106 340 141 340 c 0,4,5
 154 340 154 340 162.5 332.5 c 128,-1,6
 171 325 171 325 171 311 c 0,7,8
 171 298 171 298 145.5 256.5 c 128,-1,9
 120 215 120 215 94 162.5 c 128,-1,10
 68 110 68 110 68 72 c 0,11,12
 68 41 68 41 79 30 c 128,-1,13
 90 19 90 19 113 19 c 0,14,15
 192 19 192 19 270 172 c 1,16,-1
 285 156 l 1,17,18
 250 68 250 68 196 19 c 128,-1,19
 142 -30 142 -30 80 -30 c 0,20,21
 38 -30 38 -30 15 -5 c 128,-1,22
 -8 20 -8 20 -8 59 c 0,0,1
75 450 m 0,23,24
 75 468 75 468 97 483 c 128,-1,25
 119 498 119 498 142 498 c 0,26,27
 178 498 178 498 178 466 c 0,28,29
 178 448 178 448 159 432 c 128,-1,30
 140 416 140 416 118 416 c 0,31,32
 100 416 100 416 87.5 424.5 c 128,-1,33
 75 433 75 433 75 450 c 0,23,24
220 430 m 0,34,35
 220 449 220 449 241.5 463.5 c 128,-1,36
 263 478 263 478 287 478 c 0,37,38
 324 478 324 478 324 445 c 0,39,40
 324 428 324 428 304.5 412 c 128,-1,41
 285 396 285 396 262 396 c 0,42,43
 245 396 245 396 232.5 405 c 128,-1,44
 220 414 220 414 220 430 c 0,34,35
EndSplineSet
EndChar

StartChar: eth
Encoding: 240 240 176
Width: 488
GlyphClass: 2
Flags: W
LayerCount: 2
Fore
SplineSet
-19 58 m 0,0,1
 -19 114 -19 114 22 187 c 128,-1,2
 63 260 63 260 128.5 313.5 c 128,-1,3
 194 367 194 367 255 367 c 0,4,5
 284 367 284 367 300 355 c 128,-1,6
 316 343 316 343 316 326 c 0,7,8
 316 316 316 316 308 300 c 1,9,10
 290 323 290 323 259 323 c 0,11,12
 212 323 212 323 164.5 275 c 128,-1,13
 117 227 117 227 90.5 168 c 128,-1,14
 64 109 64 109 64 69 c 0,15,16
 64 27 64 27 95 27 c 0,17,18
 135 27 135 27 198 96.5 c 128,-1,19
 261 166 261 166 310.5 275 c 128,-1,20
 360 384 360 384 360 478 c 0,21,22
 360 496 360 496 356 521 c 1,23,24
 293 511 293 511 232 495 c 1,25,26
 232 531 232 531 261 546 c 128,-1,27
 290 561 290 561 344 568 c 1,28,29
 320 637 320 637 249 692 c 1,30,31
 270 719 270 719 300 719 c 0,32,33
 345 719 345 719 379 678 c 128,-1,34
 413 637 413 637 431 577 c 1,35,36
 504 584 504 584 537 594 c 1,37,38
 515 558 515 558 496.5 547.5 c 128,-1,39
 478 537 478 537 441 532 c 1,40,41
 445 502 445 502 445 489 c 0,42,43
 445 423 445 423 391 270 c 128,-1,44
 337 117 337 117 337 65 c 0,45,46
 337 28 337 28 361 28 c 0,47,48
 394 28 394 28 440 70.5 c 128,-1,49
 486 113 486 113 516 178 c 1,50,-1
 535 166 l 1,51,52
 499 81 499 81 442 27.5 c 128,-1,53
 385 -26 385 -26 328 -26 c 0,54,55
 255 -26 255 -26 255 62 c 0,56,57
 255 86 255 86 264 136 c 1,58,59
 215 65 215 65 159 17.5 c 128,-1,60
 103 -30 103 -30 59 -30 c 0,61,62
 28 -30 28 -30 4.5 -7 c 128,-1,63
 -19 16 -19 16 -19 58 c 0,0,1
EndSplineSet
EndChar

StartChar: ntilde
Encoding: 241 241 177
Width: 473
GlyphClass: 2
Flags: W
LayerCount: 2
Fore
SplineSet
-38 14 m 0,0,1
 -38 15 -38 15 -20 59 c 128,-1,2
 -2 103 -2 103 14 158 c 128,-1,3
 30 213 30 213 30 251 c 1,4,5
 52 275 52 275 82 275 c 0,6,7
 117 275 117 275 117 245 c 0,8,9
 117 218 117 218 100 156 c 1,10,11
 202 292 202 292 289 292 c 0,12,13
 329 292 329 292 351 264.5 c 128,-1,14
 373 237 373 237 373 199 c 0,15,16
 373 166 373 166 353.5 117.5 c 128,-1,17
 334 69 334 69 334 49 c 0,18,19
 334 20 334 20 358 20 c 0,20,21
 391 20 391 20 429.5 65.5 c 128,-1,22
 468 111 468 111 499 173 c 1,23,-1
 516 159 l 1,24,25
 437 -20 437 -20 337 -20 c 0,26,27
 299 -20 299 -20 278 -1 c 128,-1,28
 257 18 257 18 257 49 c 0,29,30
 257 69 257 69 271 114 c 128,-1,31
 285 159 285 159 285 181 c 0,32,33
 285 220 285 220 250 220 c 0,34,35
 222 220 222 220 190.5 197.5 c 128,-1,36
 159 175 159 175 125.5 131 c 128,-1,37
 92 87 92 87 74 60 c 2,38,-1
 27 -15 l 1,39,40
 -16 -15 -16 -15 -38 14 c 0,0,1
112 370 m 1,41,42
 131 392 131 392 157 409.5 c 128,-1,43
 183 427 183 427 202 427 c 0,44,45
 231 427 231 427 293 407 c 128,-1,46
 355 387 355 387 389 387 c 0,47,48
 416 387 416 387 457 394 c 1,49,50
 406 340 406 340 365 340 c 0,51,52
 334 340 334 340 268.5 359 c 128,-1,53
 203 378 203 378 174 378 c 0,54,55
 158 378 158 378 112 370 c 1,41,42
EndSplineSet
EndChar

StartChar: ograve
Encoding: 242 242 178
Width: 372
GlyphClass: 2
Flags: W
LayerCount: 2
Fore
SplineSet
-12 62 m 0,0,1
 -12 128 -12 128 26 191 c 128,-1,2
 64 254 64 254 108 254 c 0,3,4
 120 254 120 254 139 246 c 1,5,6
 145 292 145 292 171.5 322 c 128,-1,7
 198 352 198 352 246 352 c 0,8,9
 286 352 286 352 305 329.5 c 128,-1,10
 324 307 324 307 324 271 c 0,11,12
 324 202 324 202 258 101 c 1,13,14
 270 95 270 95 286 95 c 0,15,16
 314 95 314 95 346 113.5 c 128,-1,17
 378 132 378 132 395 170 c 1,18,-1
 413 157 l 1,19,20
 392 109 392 109 356.5 84 c 128,-1,21
 321 59 321 59 283 59 c 0,22,23
 260 59 260 59 233 68 c 1,24,25
 150 -32 150 -32 66 -32 c 0,26,27
 24 -32 24 -32 6 -5 c 128,-1,28
 -12 22 -12 22 -12 62 c 0,0,1
68 65 m 0,29,30
 68 19 68 19 102 19 c 0,31,32
 138 19 138 19 198 90 c 1,33,34
 141 140 141 140 138 237 c 1,35,36
 119 227 119 227 93.5 167.5 c 128,-1,37
 68 108 68 108 68 65 c 0,29,30
195 220 m 0,38,39
 195 197 195 197 203 167.5 c 128,-1,40
 211 138 211 138 224 122 c 1,41,42
 282 205 282 205 282 271 c 0,43,44
 282 315 282 315 254 315 c 0,45,46
 233 315 233 315 214 287 c 128,-1,47
 195 259 195 259 195 220 c 0,38,39
227 515 m 1,48,49
 228 534 228 534 237.5 544 c 128,-1,50
 247 554 247 554 259 554 c 0,51,52
 287 554 287 554 328 508 c 128,-1,53
 369 462 369 462 369 441 c 0,54,55
 369 432 369 432 362 421 c 128,-1,56
 355 410 355 410 344 405 c 1,57,58
 295 463 295 463 227 515 c 1,48,49
EndSplineSet
EndChar

StartChar: odieresis
Encoding: 246 246 182
Width: 372
GlyphClass: 2
Flags: W
LayerCount: 2
Fore
SplineSet
-12 62 m 0,0,1
 -12 128 -12 128 26 191 c 128,-1,2
 64 254 64 254 108 254 c 0,3,4
 120 254 120 254 139 246 c 1,5,6
 145 292 145 292 171.5 322 c 128,-1,7
 198 352 198 352 246 352 c 0,8,9
 286 352 286 352 305 329.5 c 128,-1,10
 324 307 324 307 324 271 c 0,11,12
 324 202 324 202 258 101 c 1,13,14
 270 95 270 95 286 95 c 0,15,16
 314 95 314 95 346 113.5 c 128,-1,17
 378 132 378 132 395 170 c 1,18,-1
 413 157 l 1,19,20
 392 109 392 109 356.5 84 c 128,-1,21
 321 59 321 59 283 59 c 0,22,23
 260 59 260 59 233 68 c 1,24,25
 150 -32 150 -32 66 -32 c 0,26,27
 24 -32 24 -32 6 -5 c 128,-1,28
 -12 22 -12 22 -12 62 c 0,0,1
68 65 m 0,29,30
 68 19 68 19 102 19 c 0,31,32
 138 19 138 19 198 90 c 1,33,34
 141 140 141 140 138 237 c 1,35,36
 119 227 119 227 93.5 167.5 c 128,-1,37
 68 108 68 108 68 65 c 0,29,30
189 469 m 0,38,39
 189 487 189 487 211 502 c 128,-1,40
 233 517 233 517 256 517 c 0,41,42
 292 517 292 517 292 485 c 0,43,44
 292 467 292 467 273 451 c 128,-1,45
 254 435 254 435 232 435 c 0,46,47
 214 435 214 435 201.5 443.5 c 128,-1,48
 189 452 189 452 189 469 c 0,38,39
195 220 m 0,49,50
 195 197 195 197 203 167.5 c 128,-1,51
 211 138 211 138 224 122 c 1,52,53
 282 205 282 205 282 271 c 0,54,55
 282 315 282 315 254 315 c 0,56,57
 233 315 233 315 214 287 c 128,-1,58
 195 259 195 259 195 220 c 0,49,50
334 449 m 0,59,60
 334 468 334 468 355.5 482.5 c 128,-1,61
 377 497 377 497 401 497 c 0,62,63
 438 497 438 497 438 464 c 0,64,65
 438 446 438 446 418.5 430.5 c 128,-1,66
 399 415 399 415 376 415 c 0,67,68
 359 415 359 415 346.5 424 c 128,-1,69
 334 433 334 433 334 449 c 0,59,60
EndSplineSet
EndChar

StartChar: divide
Encoding: 247 247 183
Width: 491
GlyphClass: 2
Flags: W
LayerCount: 2
Fore
SplineSet
26 116 m 1,0,1
 37 156 37 156 89 167.5 c 128,-1,2
 141 179 141 179 235 179 c 0,3,4
 305 179 305 179 428 169 c 1,5,6
 394 146 394 146 352 137 c 128,-1,7
 310 128 310 128 228 128 c 0,8,9
 120 128 120 128 26 116 c 1,0,1
144 18 m 0,10,11
 144 36 144 36 165 50.5 c 128,-1,12
 186 65 186 65 209 65 c 0,13,14
 243 65 243 65 243 34 c 0,15,16
 243 17 243 17 224.5 1 c 128,-1,17
 206 -15 206 -15 185 -15 c 0,18,19
 168 -15 168 -15 156 -6.5 c 128,-1,20
 144 2 144 2 144 18 c 0,10,11
202 267 m 0,21,22
 202 285 202 285 223 299.5 c 128,-1,23
 244 314 244 314 267 314 c 0,24,25
 301 314 301 314 301 283 c 0,26,27
 301 266 301 266 283 250 c 128,-1,28
 265 234 265 234 243 234 c 0,29,30
 226 234 226 234 214 242.5 c 128,-1,31
 202 251 202 251 202 267 c 0,21,22
EndSplineSet
EndChar

StartChar: oslash
Encoding: 248 248 184
Width: 372
GlyphClass: 2
Flags: W
LayerCount: 2
Fore
SplineSet
-45 -48 m 1,0,1
 -23 -35 -23 -35 6 -5 c 1,2,3
 -12 20 -12 20 -12 62 c 0,4,5
 -12 128 -12 128 26 191 c 128,-1,6
 64 254 64 254 108 254 c 0,7,8
 120 254 120 254 139 246 c 1,9,10
 145 292 145 292 171.5 322 c 128,-1,11
 198 352 198 352 246 352 c 0,12,13
 270 352 270 352 288 342 c 1,14,-1
 312 374 l 1,15,16
 322 389 322 389 356 389 c 0,17,18
 368 389 368 389 380 386 c 1,19,20
 369 370 369 370 319 305 c 1,21,22
 324 288 324 288 324 271 c 0,23,24
 324 202 324 202 258 101 c 1,25,26
 275 91 275 91 295 91 c 0,27,28
 324 91 324 91 350.5 111.5 c 128,-1,29
 377 132 377 132 395 170 c 1,30,-1
 413 157 l 1,31,32
 392 109 392 109 356.5 84 c 128,-1,33
 321 59 321 59 283 59 c 0,34,35
 260 59 260 59 233 68 c 1,36,37
 150 -32 150 -32 66 -32 c 0,38,39
 49 -32 49 -32 40 -28 c 1,40,41
 5 -51 5 -51 -26 -51 c 0,42,43
 -36 -51 -36 -51 -45 -48 c 1,0,1
68 62 m 1,44,45
 129 134 129 134 150 162 c 1,46,47
 140 192 140 192 138 237 c 1,48,49
 119 227 119 227 93.5 167 c 128,-1,50
 68 107 68 107 68 62 c 1,44,45
93 20 m 1,51,52
 96 19 96 19 102 19 c 0,53,54
 138 19 138 19 198 90 c 1,55,56
 180 106 180 106 172 119 c 1,57,58
 108 38 108 38 101 29 c 2,59,-1
 93 20 l 1,51,52
195 218 m 1,60,-1
 266 312 l 1,61,62
 262 315 262 315 254 315 c 0,63,64
 233 315 233 315 214 286.5 c 128,-1,65
 195 258 195 258 195 218 c 1,60,-1
205 160 m 1,66,67
 211 136 211 136 224 122 c 1,68,69
 275 194 275 194 281 258 c 1,70,-1
 205 160 l 1,66,67
EndSplineSet
EndChar

StartChar: ucircumflex
Encoding: 251 251 187
Width: 441
GlyphClass: 2
Flags: W
LayerCount: 2
Fore
SplineSet
-1 74 m 0,0,1
 -1 131 -1 131 32 214.5 c 128,-1,2
 65 298 65 298 90 298 c 0,3,4
 111 298 111 298 137 272 c 1,5,6
 116 241 116 241 93.5 183 c 128,-1,7
 71 125 71 125 71 83 c 0,8,9
 71 23 71 23 101 23 c 0,10,11
 127 23 127 23 165 72.5 c 128,-1,12
 203 122 203 122 229.5 173 c 128,-1,13
 256 224 256 224 278 273 c 1,14,15
 338 263 338 263 338 239 c 0,16,17
 338 237 338 237 322 201.5 c 128,-1,18
 306 166 306 166 290.5 120 c 128,-1,19
 275 74 275 74 275 46 c 0,20,21
 275 11 275 11 302 11 c 0,22,23
 335 11 335 11 383.5 55.5 c 128,-1,24
 432 100 432 100 467 171 c 1,25,-1
 482 159 l 1,26,27
 448 78 448 78 388 24 c 128,-1,28
 328 -30 328 -30 272 -30 c 0,29,30
 253 -30 253 -30 239.5 -22.5 c 128,-1,31
 226 -15 226 -15 219 -5 c 128,-1,32
 212 5 212 5 208 22 c 128,-1,33
 204 39 204 39 203.5 51 c 128,-1,34
 203 63 203 63 203 82 c 1,35,36
 181 48 181 48 165 27.5 c 128,-1,37
 149 7 149 7 124 -11.5 c 128,-1,38
 99 -30 99 -30 76 -30 c 0,39,40
 43 -30 43 -30 21 1 c 128,-1,41
 -1 32 -1 32 -1 74 c 0,0,1
145 414 m 0,42,43
 145 441 145 441 190 470.5 c 128,-1,44
 235 500 235 500 261 500 c 0,45,46
 286 500 286 500 321.5 462 c 128,-1,47
 357 424 357 424 357 394 c 0,48,49
 357 368 357 368 332 355 c 1,50,51
 309 394 309 394 260 438 c 1,52,53
 215 423 215 423 158 386 c 1,54,55
 145 394 145 394 145 414 c 0,42,43
EndSplineSet
EndChar

StartChar: udieresis
Encoding: 252 252 188
Width: 441
GlyphClass: 2
Flags: W
LayerCount: 2
Fore
SplineSet
-1 74 m 0,0,1
 -1 131 -1 131 32 214.5 c 128,-1,2
 65 298 65 298 90 298 c 0,3,4
 111 298 111 298 137 272 c 1,5,6
 116 241 116 241 93.5 183 c 128,-1,7
 71 125 71 125 71 83 c 0,8,9
 71 23 71 23 101 23 c 0,10,11
 127 23 127 23 165 72.5 c 128,-1,12
 203 122 203 122 229.5 173 c 128,-1,13
 256 224 256 224 278 273 c 1,14,15
 338 263 338 263 338 239 c 0,16,17
 338 237 338 237 322 201.5 c 128,-1,18
 306 166 306 166 290.5 120 c 128,-1,19
 275 74 275 74 275 46 c 0,20,21
 275 11 275 11 302 11 c 0,22,23
 335 11 335 11 383.5 55.5 c 128,-1,24
 432 100 432 100 467 171 c 1,25,-1
 482 159 l 1,26,27
 448 78 448 78 388 24 c 128,-1,28
 328 -30 328 -30 272 -30 c 0,29,30
 253 -30 253 -30 239.5 -22.5 c 128,-1,31
 226 -15 226 -15 219 -5 c 128,-1,32
 212 5 212 5 208 22 c 128,-1,33
 204 39 204 39 203.5 51 c 128,-1,34
 203 63 203 63 203 82 c 1,35,36
 181 48 181 48 165 27.5 c 128,-1,37
 149 7 149 7 124 -11.5 c 128,-1,38
 99 -30 99 -30 76 -30 c 0,39,40
 43 -30 43 -30 21 1 c 128,-1,41
 -1 32 -1 32 -1 74 c 0,0,1
134 420 m 0,42,43
 134 438 134 438 156 453 c 128,-1,44
 178 468 178 468 201 468 c 0,45,46
 237 468 237 468 237 436 c 0,47,48
 237 418 237 418 218 402 c 128,-1,49
 199 386 199 386 177 386 c 0,50,51
 159 386 159 386 146.5 394.5 c 128,-1,52
 134 403 134 403 134 420 c 0,42,43
279 400 m 0,53,54
 279 419 279 419 300.5 433.5 c 128,-1,55
 322 448 322 448 346 448 c 0,56,57
 383 448 383 448 383 415 c 0,58,59
 383 398 383 398 363.5 382 c 128,-1,60
 344 366 344 366 321 366 c 0,61,62
 304 366 304 366 291.5 375 c 128,-1,63
 279 384 279 384 279 400 c 0,53,54
EndSplineSet
EndChar

StartChar: yacute
Encoding: 253 253 189
Width: 400
GlyphClass: 2
Flags: W
LayerCount: 2
Fore
SplineSet
-20 -215 m 0,0,1
 -20 -191 -20 -191 -6 -168 c 128,-1,2
 8 -145 8 -145 24 -129 c 128,-1,3
 40 -113 40 -113 73.5 -93.5 c 128,-1,4
 107 -74 107 -74 125 -66 c 2,5,-1
 179 -39 l 1,6,7
 196 4 196 4 227 117 c 1,8,9
 150 8 150 8 83 8 c 0,10,11
 50 8 50 8 24 28 c 128,-1,12
 -2 48 -2 48 -2 91 c 0,13,14
 -2 145 -2 145 32 227 c 128,-1,15
 66 309 66 309 90 309 c 0,16,17
 100 309 100 309 120 298.5 c 128,-1,18
 140 288 140 288 144 276 c 1,19,20
 125 250 125 250 102.5 189 c 128,-1,21
 80 128 80 128 80 93 c 0,22,23
 80 56 80 56 109 56 c 0,24,25
 165 56 165 56 241 177 c 0,26,27
 242 179 242 179 245.5 199.5 c 128,-1,28
 249 220 249 220 253 234 c 128,-1,29
 257 248 257 248 271 261.5 c 128,-1,30
 285 275 285 275 305 275 c 0,31,32
 309 275 309 275 337 271 c 1,33,34
 336 246 336 246 313.5 162 c 128,-1,35
 291 78 291 78 261 -2 c 1,36,37
 375 45 375 45 422 167 c 1,38,-1
 439 153 l 1,39,40
 401 28 401 28 248 -40 c 1,41,42
 147 -280 147 -280 48 -280 c 0,43,44
 20 -280 20 -280 0 -263.5 c 128,-1,45
 -20 -247 -20 -247 -20 -215 c 0,0,1
19 -215 m 0,46,47
 19 -243 19 -243 38 -243 c 0,48,49
 59 -243 59 -243 93 -200.5 c 128,-1,50
 127 -158 127 -158 160 -83 c 1,51,52
 19 -154 19 -154 19 -215 c 0,46,47
237 398 m 0,53,54
 237 418 237 418 274.5 465.5 c 128,-1,55
 312 513 312 513 340 513 c 0,56,57
 366 513 366 513 370 478 c 1,58,59
 285 396 285 396 261 365 c 1,60,61
 250 370 250 370 243.5 380.5 c 128,-1,62
 237 391 237 391 237 398 c 0,53,54
EndSplineSet
EndChar

StartChar: thorn
Encoding: 254 254 190
Width: 415
GlyphClass: 2
Flags: W
LayerCount: 2
Fore
SplineSet
-92 -234 m 1,0,1
 -34 -42 -34 -42 0 112 c 128,-1,2
 34 266 34 266 58 500 c 0,3,4
 59 510 59 510 60.5 514 c 128,-1,5
 62 518 62 518 67.5 520.5 c 128,-1,6
 73 523 73 523 85 523 c 0,7,8
 114 523 114 523 126.5 510.5 c 128,-1,9
 139 498 139 498 139 465 c 0,10,11
 139 416 139 416 107 226 c 1,12,13
 181 342 181 342 271 342 c 0,14,15
 320 342 320 342 352.5 309 c 128,-1,16
 385 276 385 276 385 222 c 0,17,18
 385 136 385 136 313 52.5 c 128,-1,19
 241 -31 241 -31 139 -31 c 0,20,21
 108 -31 108 -31 89 -23 c 128,-1,22
 70 -15 70 -15 70 -5 c 0,23,24
 70 6 70 6 103 6 c 0,25,26
 181 6 181 6 243 71.5 c 128,-1,27
 305 137 305 137 305 211 c 0,28,29
 305 282 305 282 250 282 c 0,30,31
 203 282 203 282 155.5 230.5 c 128,-1,32
 108 179 108 179 87 129 c 1,33,34
 39 -74 39 -74 5 -177 c 128,-1,35
 -29 -280 -29 -280 -54 -280 c 0,36,37
 -66 -280 -66 -280 -79 -261 c 128,-1,38
 -92 -242 -92 -242 -92 -234 c 1,0,1
EndSplineSet
EndChar

StartChar: ydieresis
Encoding: 255 255 191
Width: 400
GlyphClass: 2
Flags: W
LayerCount: 2
Fore
SplineSet
-20 -215 m 0,0,1
 -20 -191 -20 -191 -6 -168 c 128,-1,2
 8 -145 8 -145 24 -129 c 128,-1,3
 40 -113 40 -113 73.5 -93.5 c 128,-1,4
 107 -74 107 -74 125 -66 c 2,5,-1
 179 -39 l 1,6,7
 196 4 196 4 227 117 c 1,8,9
 150 8 150 8 83 8 c 0,10,11
 50 8 50 8 24 28 c 128,-1,12
 -2 48 -2 48 -2 91 c 0,13,14
 -2 145 -2 145 32 227 c 128,-1,15
 66 309 66 309 90 309 c 0,16,17
 100 309 100 309 120 298.5 c 128,-1,18
 140 288 140 288 144 276 c 1,19,20
 125 250 125 250 102.5 189 c 128,-1,21
 80 128 80 128 80 93 c 0,22,23
 80 56 80 56 109 56 c 0,24,25
 165 56 165 56 241 177 c 0,26,27
 242 179 242 179 245.5 199.5 c 128,-1,28
 249 220 249 220 253 234 c 128,-1,29
 257 248 257 248 271 261.5 c 128,-1,30
 285 275 285 275 305 275 c 0,31,32
 309 275 309 275 337 271 c 1,33,34
 336 246 336 246 313.5 162 c 128,-1,35
 291 78 291 78 261 -2 c 1,36,37
 375 45 375 45 422 167 c 1,38,-1
 439 153 l 1,39,40
 401 28 401 28 248 -40 c 1,41,42
 147 -280 147 -280 48 -280 c 0,43,44
 20 -280 20 -280 0 -263.5 c 128,-1,45
 -20 -247 -20 -247 -20 -215 c 0,0,1
19 -215 m 0,46,47
 19 -243 19 -243 38 -243 c 0,48,49
 59 -243 59 -243 93 -200.5 c 128,-1,50
 127 -158 127 -158 160 -83 c 1,51,52
 19 -154 19 -154 19 -215 c 0,46,47
138 433 m 0,53,54
 138 451 138 451 160 466 c 128,-1,55
 182 481 182 481 205 481 c 0,56,57
 241 481 241 481 241 449 c 0,58,59
 241 431 241 431 222 415 c 128,-1,60
 203 399 203 399 181 399 c 0,61,62
 163 399 163 399 150.5 407.5 c 128,-1,63
 138 416 138 416 138 433 c 0,53,54
283 413 m 0,64,65
 283 432 283 432 304.5 446.5 c 128,-1,66
 326 461 326 461 350 461 c 0,67,68
 387 461 387 461 387 428 c 0,69,70
 387 410 387 410 367.5 394.5 c 128,-1,71
 348 379 348 379 325 379 c 0,72,73
 308 379 308 379 295.5 388 c 128,-1,74
 283 397 283 397 283 413 c 0,64,65
EndSplineSet
EndChar

StartChar: dotlessi
Encoding: 305 305 192
Width: 244
GlyphClass: 2
Flags: W
LayerCount: 2
Fore
SplineSet
-8 59 m 0,0,1
 -8 99 -8 99 13 164.5 c 128,-1,2
 34 230 34 230 70 285 c 128,-1,3
 106 340 106 340 141 340 c 0,4,5
 154 340 154 340 162.5 332.5 c 128,-1,6
 171 325 171 325 171 311 c 0,7,8
 171 298 171 298 145.5 256.5 c 128,-1,9
 120 215 120 215 94 162.5 c 128,-1,10
 68 110 68 110 68 72 c 0,11,12
 68 41 68 41 79 30 c 128,-1,13
 90 19 90 19 113 19 c 0,14,15
 192 19 192 19 270 172 c 1,16,-1
 285 156 l 1,17,18
 250 68 250 68 196 19 c 128,-1,19
 142 -30 142 -30 80 -30 c 0,20,21
 38 -30 38 -30 15 -5 c 128,-1,22
 -8 20 -8 20 -8 59 c 0,0,1
EndSplineSet
EndChar

StartChar: OE
Encoding: 338 338 193
Width: 848
GlyphClass: 2
Flags: W
LayerCount: 2
Fore
SplineSet
32 164 m 0,0,1
 32 290 32 290 95 419.5 c 128,-1,2
 158 549 158 549 258.5 634 c 128,-1,3
 359 719 359 719 459 719 c 0,4,5
 506 719 506 719 525 693 c 1,6,7
 434 693 434 693 342 608.5 c 128,-1,8
 250 524 250 524 193 399 c 128,-1,9
 136 274 136 274 136 158 c 0,10,11
 136 73 136 73 170.5 17 c 128,-1,12
 205 -39 205 -39 274 -39 c 0,13,14
 351 -39 351 -39 418.5 47 c 128,-1,15
 486 133 486 133 523 255.5 c 128,-1,16
 560 378 560 378 560 494 c 0,17,18
 560 537 560 537 555.5 566.5 c 128,-1,19
 551 596 551 596 545 607.5 c 128,-1,20
 539 619 539 619 531 619 c 0,21,22
 495 619 495 619 416 419 c 1,23,24
 354 433 354 433 354 475 c 0,25,26
 354 530 354 530 421 599.5 c 128,-1,27
 488 669 488 669 543 672 c 0,28,29
 594 675 594 675 666 675 c 0,30,31
 818 675 818 675 878 656 c 1,32,33
 862 609 862 609 693 609 c 0,34,35
 684 609 684 609 659.5 610 c 128,-1,36
 635 611 635 611 618 611 c 1,37,38
 628 576 628 576 628 526 c 0,39,40
 628 438 628 438 620 372 c 1,41,42
 763 370 763 370 833 361 c 1,43,44
 810 299 810 299 680 299 c 0,45,46
 648 299 648 299 608 301 c 1,47,48
 577 161 577 161 548 87 c 128,-1,49
 519 13 519 13 461 -29 c 1,50,51
 509 -30 509 -30 613 -30 c 0,52,53
 627 -30 627 -30 673.5 -28 c 128,-1,54
 720 -26 720 -26 737 -26 c 0,55,56
 755 -26 755 -26 767 -29 c 1,57,58
 756 -58 756 -58 658.5 -73 c 128,-1,59
 561 -88 561 -88 447 -88 c 0,60,61
 419 -88 419 -88 358 -87.5 c 128,-1,62
 297 -87 297 -87 267 -87 c 0,63,64
 160 -87 160 -87 96 -23.5 c 128,-1,65
 32 40 32 40 32 164 c 0,0,1
EndSplineSet
EndChar

StartChar: oe
Encoding: 339 339 194
Width: 553
GlyphClass: 2
Flags: W
LayerCount: 2
Fore
SplineSet
-28 41 m 0,0,1
 -28 99 -28 99 13.5 170 c 128,-1,2
 55 241 55 241 122.5 292.5 c 128,-1,3
 190 344 190 344 254 344 c 0,4,5
 303 344 303 344 323 305 c 1,6,7
 396 360 396 360 463 360 c 0,8,9
 533 360 533 360 533 294 c 0,10,11
 533 222 533 222 455 166 c 128,-1,12
 377 110 377 110 281 100 c 1,13,14
 279 90 279 90 279 76 c 0,15,16
 279 -1 279 -1 353 -1 c 0,17,18
 414 -1 414 -1 477.5 49 c 128,-1,19
 541 99 541 99 580 172 c 1,20,-1
 597 157 l 1,21,22
 556 67 556 67 483 11.5 c 128,-1,23
 410 -44 410 -44 330 -44 c 0,24,25
 273 -44 273 -44 241.5 -16.5 c 128,-1,26
 210 11 210 11 203 53 c 1,27,28
 121 -47 121 -47 56 -47 c 0,29,30
 20 -47 20 -47 -4 -24 c 128,-1,31
 -28 -1 -28 -1 -28 41 c 0,0,1
53 35 m 0,32,33
 53 3 53 3 74 3 c 0,34,35
 100 3 100 3 148 45 c 128,-1,36
 196 87 196 87 204 111 c 1,37,38
 136 136 136 136 134 222 c 1,39,40
 100 179 100 179 76.5 125.5 c 128,-1,41
 53 72 53 72 53 35 c 0,32,33
184 207 m 0,42,43
 184 175 184 175 215 152 c 1,44,45
 244 226 244 226 296 277 c 1,46,47
 284 306 284 306 256 306 c 128,-1,48
 228 306 228 306 206 274 c 128,-1,49
 184 242 184 242 184 207 c 0,42,43
291 137 m 1,50,51
 359 162 359 162 417.5 207 c 128,-1,52
 476 252 476 252 476 299 c 0,53,54
 476 315 476 315 459 315 c 0,55,56
 416 315 416 315 364.5 258.5 c 128,-1,57
 313 202 313 202 291 137 c 1,50,51
EndSplineSet
EndChar

StartChar: zcaron
Encoding: 382 382 199
Width: 331
GlyphClass: 2
Flags: W
LayerCount: 2
Fore
SplineSet
-68 -222 m 0,0,1
 -68 -196 -68 -196 -55 -173.5 c 128,-1,2
 -42 -151 -42 -151 -14 -129 c 128,-1,3
 14 -107 14 -107 41 -91 c 2,4,-1
 111 -50 l 2,5,6
 155 -24 155 -24 182 -6 c 1,7,8
 179 59 179 59 98 117 c 1,9,10
 153 132 153 132 186 174 c 128,-1,11
 219 216 219 216 219 257 c 0,12,13
 219 304 219 304 178 304 c 0,14,15
 161 304 161 304 143.5 293.5 c 128,-1,16
 126 283 126 283 112 267.5 c 128,-1,17
 98 252 98 252 82 226.5 c 128,-1,18
 66 201 66 201 54 178 c 2,19,-1
 27 123 l 1,20,-1
 8 139 l 1,21,22
 46 243 46 243 87.5 298 c 128,-1,23
 129 353 129 353 193 353 c 0,24,25
 236 353 236 353 264 329.5 c 128,-1,26
 292 306 292 306 292 263 c 0,27,28
 292 217 292 217 260 175 c 128,-1,29
 228 133 228 133 179 108 c 1,30,31
 222 74 222 74 244 26 c 1,32,33
 325 88 325 88 355 166 c 1,34,-1
 368 150 l 1,35,36
 338 62 338 62 254 0 c 1,37,38
 258 -18 258 -18 258 -33 c 0,39,40
 258 -123 258 -123 181.5 -201.5 c 128,-1,41
 105 -280 105 -280 8 -280 c 0,42,43
 -68 -280 -68 -280 -68 -222 c 0,0,1
-33 -215 m 0,44,45
 -33 -242 -33 -242 -6 -242 c 0,46,47
 39 -242 39 -242 103.5 -185 c 128,-1,48
 168 -128 168 -128 180 -46 c 1,49,50
 158 -60 158 -60 121 -82 c 2,51,-1
 61 -116 l 2,52,53
 39 -129 39 -129 14.5 -147 c 128,-1,54
 -10 -165 -10 -165 -21.5 -181.5 c 128,-1,55
 -33 -198 -33 -198 -33 -215 c 0,44,45
128 518 m 0,56,57
 128 545 128 545 155 558 c 1,58,59
 179 512 179 512 232 466 c 1,60,61
 298 489 298 489 334 520 c 1,62,63
 355 513 355 513 355 496 c 0,64,65
 355 467 355 467 307 434.5 c 128,-1,66
 259 402 259 402 232 402 c 128,-1,67
 205 402 205 402 166.5 443.5 c 128,-1,68
 128 485 128 485 128 518 c 0,56,57
EndSplineSet
EndChar

StartChar: florin
Encoding: 402 402 200
Width: 537
GlyphClass: 2
Flags: W
LayerCount: 2
Fore
SplineSet
-87 -121 m 0,0,1
 -87 -60 -87 -60 -9 -35 c 1,2,3
 -20 -69 -20 -69 -20 -97 c 0,4,5
 -20 -134 -20 -134 0 -159 c 128,-1,6
 20 -184 20 -184 50 -184 c 0,7,8
 72 -184 72 -184 91 -170 c 128,-1,9
 110 -156 110 -156 125 -128.5 c 128,-1,10
 140 -101 140 -101 152.5 -70 c 128,-1,11
 165 -39 165 -39 177.5 6.5 c 128,-1,12
 190 52 190 52 199 90 c 2,13,-1
 221 181 l 2,14,15
 233 234 233 234 244 269 c 1,16,17
 237 268 237 268 176 259 c 1,18,19
 183 323 183 323 259 332 c 1,20,21
 281 418 281 418 302 480 c 128,-1,22
 323 542 323 542 353.5 600.5 c 128,-1,23
 384 659 384 659 425.5 689.5 c 128,-1,24
 467 720 467 720 517 720 c 0,25,26
 540 720 540 720 552.5 709.5 c 128,-1,27
 565 699 565 699 565 669 c 0,28,29
 565 597 565 597 500.5 503 c 128,-1,30
 436 409 436 409 345 334 c 1,31,32
 361 334 361 334 401 330.5 c 128,-1,33
 441 327 441 327 464 327 c 0,34,35
 498 327 498 327 525 335 c 1,36,37
 480 271 480 271 436 271 c 0,38,39
 422 271 422 271 381.5 272 c 128,-1,40
 341 273 341 273 308 273 c 1,41,42
 284 169 284 169 267 103.5 c 128,-1,43
 250 38 250 38 230.5 -24 c 128,-1,44
 211 -86 211 -86 193.5 -119.5 c 128,-1,45
 176 -153 176 -153 153.5 -179.5 c 128,-1,46
 131 -206 131 -206 105.5 -215.5 c 128,-1,47
 80 -225 80 -225 46 -225 c 0,48,49
 -13 -225 -13 -225 -50 -196 c 128,-1,50
 -87 -167 -87 -167 -87 -121 c 0,0,1
334 364 m 1,51,52
 403 424 403 424 454 502 c 128,-1,53
 505 580 505 580 505 620 c 0,54,55
 505 640 505 640 488 640 c 0,56,57
 453 640 453 640 412 567 c 128,-1,58
 371 494 371 494 334 364 c 1,51,52
EndSplineSet
EndChar

StartChar: circumflex
Encoding: 710 710 201
Width: 210
GlyphClass: 2
Flags: W
LayerCount: 2
Fore
SplineSet
-1 464 m 0,0,1
 -1 491 -1 491 44 520.5 c 128,-1,2
 89 550 89 550 115 550 c 0,3,4
 140 550 140 550 175.5 512 c 128,-1,5
 211 474 211 474 211 444 c 0,6,7
 211 418 211 418 186 405 c 1,8,9
 163 444 163 444 114 488 c 1,10,11
 69 473 69 473 12 436 c 1,12,13
 -1 444 -1 444 -1 464 c 0,0,1
EndSplineSet
EndChar

StartChar: caron
Encoding: 711 711 202
Width: 210
GlyphClass: 2
Flags: W
LayerCount: 2
Fore
SplineSet
-13 518 m 0,0,1
 -13 545 -13 545 14 558 c 1,2,3
 38 512 38 512 91 466 c 1,4,5
 157 489 157 489 193 520 c 1,6,7
 214 513 214 513 214 496 c 0,8,9
 214 467 214 467 166 434.5 c 128,-1,10
 118 402 118 402 91 402 c 128,-1,11
 64 402 64 402 25.5 443.5 c 128,-1,12
 -13 485 -13 485 -13 518 c 0,0,1
EndSplineSet
EndChar

StartChar: ring
Encoding: 730 730 203
Width: 445
GlyphClass: 2
Flags: W
LayerCount: 2
Fore
SplineSet
127 453 m 0,0,1
 127 490 127 490 164 526 c 128,-1,2
 201 562 201 562 251 562 c 0,3,4
 292 562 292 562 312.5 546 c 128,-1,5
 333 530 333 530 333 505 c 0,6,7
 333 467 333 467 294.5 431.5 c 128,-1,8
 256 396 256 396 205 396 c 0,9,10
 166 396 166 396 146.5 412 c 128,-1,11
 127 428 127 428 127 453 c 0,0,1
179 459 m 1,12,13
 180 448 180 448 188.5 439.5 c 128,-1,14
 197 431 197 431 213 431 c 0,15,16
 238 431 238 431 260 453.5 c 128,-1,17
 282 476 282 476 282 498 c 0,18,19
 282 524 282 524 247 524 c 0,20,21
 222 524 222 524 200.5 502.5 c 128,-1,22
 179 481 179 481 179 459 c 1,12,13
EndSplineSet
EndChar

StartChar: tilde
Encoding: 732 732 204
Width: 284
GlyphClass: 2
Flags: W
LayerCount: 2
Fore
SplineSet
-18 414 m 1,0,1
 1 436 1 436 27 453.5 c 128,-1,2
 53 471 53 471 72 471 c 0,3,4
 101 471 101 471 163 451 c 128,-1,5
 225 431 225 431 259 431 c 0,6,7
 286 431 286 431 327 438 c 1,8,9
 276 384 276 384 235 384 c 0,10,11
 204 384 204 384 138.5 403 c 128,-1,12
 73 422 73 422 44 422 c 0,13,14
 28 422 28 422 -18 414 c 1,0,1
EndSplineSet
EndChar

StartChar: endash
Encoding: 8211 8211 205
Width: 755
GlyphClass: 2
Flags: W
LayerCount: 2
Fore
SplineSet
50 105 m 1,0,1
 58 162 58 162 111.5 180.5 c 128,-1,2
 165 199 165 199 307 199 c 0,3,4
 410 199 410 199 509.5 190 c 128,-1,5
 609 181 609 181 658 180 c 1,6,7
 566 120 566 120 485 120 c 0,8,9
 406 120 406 120 341 124 c 128,-1,10
 276 128 276 128 255 128 c 0,11,12
 216 128 216 128 192.5 127.5 c 128,-1,13
 169 127 169 127 149.5 124.5 c 128,-1,14
 130 122 130 122 121 120.5 c 128,-1,15
 112 119 112 119 89.5 113.5 c 128,-1,16
 67 108 67 108 50 105 c 1,0,1
EndSplineSet
EndChar

StartChar: emdash
Encoding: 8212 8212 206
Width: 917
GlyphClass: 2
Flags: W
LayerCount: 2
Fore
SplineSet
63 105 m 1,0,1
 71 160 71 160 149.5 179.5 c 128,-1,2
 228 199 228 199 381 199 c 0,3,4
 486 199 486 199 632 190 c 128,-1,5
 778 181 778 181 821 180 c 1,6,7
 726 118 726 118 651 118 c 0,8,9
 572 118 572 118 452.5 123 c 128,-1,10
 333 128 333 128 312 128 c 0,11,12
 220 128 220 128 175 123.5 c 128,-1,13
 130 119 130 119 63 105 c 1,0,1
EndSplineSet
EndChar

StartChar: quoteleft
Encoding: 8216 8216 207
Width: 183
GlyphClass: 2
Flags: W
LayerCount: 2
Fore
SplineSet
147 689 m 128,-1,1
 147 702 147 702 159 713 c 128,-1,2
 171 724 171 724 185 724 c 1,3,4
 190 707 190 707 222.5 669 c 128,-1,5
 255 631 255 631 255 614 c 0,6,7
 255 592 255 592 221 573 c 1,8,9
 214 584 214 584 192.5 611 c 128,-1,10
 171 638 171 638 159 657 c 128,-1,0
 147 676 147 676 147 689 c 128,-1,1
EndSplineSet
EndChar

StartChar: quoteright
Encoding: 8217 8217 208
Width: 164
GlyphClass: 2
Flags: W
LayerCount: 2
Fore
SplineSet
143 612 m 0,0,1
 143 629 143 629 175.5 667 c 128,-1,2
 208 705 208 705 213 722 c 1,3,4
 227 722 227 722 239 711 c 128,-1,5
 251 700 251 700 251 687 c 128,-1,6
 251 674 251 674 239 655 c 128,-1,7
 227 636 227 636 205.5 609 c 128,-1,8
 184 582 184 582 177 571 c 1,9,10
 143 590 143 590 143 612 c 0,0,1
EndSplineSet
EndChar

StartChar: quotesinglbase
Encoding: 8218 8218 209
Width: 216
GlyphClass: 2
Flags: W
LayerCount: 2
Fore
SplineSet
5 -44 m 0,0,1
 5 -12 5 -12 25 23.5 c 128,-1,2
 45 59 45 59 68 59 c 0,3,4
 81 59 81 59 90.5 49 c 128,-1,5
 100 39 100 39 100 26 c 1,6,7
 92 17 92 17 85 7.5 c 128,-1,8
 78 -2 78 -2 74 -8 c 128,-1,9
 70 -14 70 -14 62.5 -27 c 128,-1,10
 55 -40 55 -40 53.5 -43.5 c 128,-1,11
 52 -47 52 -47 43 -66 c 128,-1,12
 34 -85 34 -85 32 -88 c 1,13,14
 5 -72 5 -72 5 -44 c 0,0,1
EndSplineSet
EndChar

StartChar: quotedblleft
Encoding: 8220 8220 210
Width: 307
GlyphClass: 2
Flags: W
LayerCount: 2
Fore
SplineSet
147 689 m 128,-1,1
 147 702 147 702 159 713 c 128,-1,2
 171 724 171 724 185 724 c 1,3,4
 190 707 190 707 222.5 669 c 128,-1,5
 255 631 255 631 255 614 c 0,6,7
 255 592 255 592 221 573 c 1,8,9
 214 584 214 584 192.5 611 c 128,-1,10
 171 638 171 638 159 657 c 128,-1,0
 147 676 147 676 147 689 c 128,-1,1
271 689 m 128,-1,12
 271 702 271 702 283 713 c 128,-1,13
 295 724 295 724 309 724 c 1,14,15
 314 707 314 707 346.5 669 c 128,-1,16
 379 631 379 631 379 614 c 0,17,18
 379 592 379 592 345 573 c 1,19,20
 338 584 338 584 316.5 611 c 128,-1,21
 295 638 295 638 283 657 c 128,-1,11
 271 676 271 676 271 689 c 128,-1,12
EndSplineSet
EndChar

StartChar: quotedblright
Encoding: 8221 8221 211
Width: 290
GlyphClass: 2
Flags: W
LayerCount: 2
Fore
SplineSet
144 614 m 0,0,1
 144 631 144 631 176.5 669 c 128,-1,2
 209 707 209 707 214 724 c 1,3,4
 228 724 228 724 240 713 c 128,-1,5
 252 702 252 702 252 689 c 128,-1,6
 252 676 252 676 240 657 c 128,-1,7
 228 638 228 638 206.5 611 c 128,-1,8
 185 584 185 584 178 573 c 1,9,10
 144 593 144 593 144 614 c 0,0,1
268 614 m 0,11,12
 268 631 268 631 300.5 669 c 128,-1,13
 333 707 333 707 338 724 c 1,14,15
 352 724 352 724 364 713 c 128,-1,16
 376 702 376 702 376 689 c 128,-1,17
 376 676 376 676 364 657 c 128,-1,18
 352 638 352 638 330.5 611 c 128,-1,19
 309 584 309 584 302 573 c 1,20,21
 268 593 268 593 268 614 c 0,11,12
EndSplineSet
EndChar

StartChar: quotedblbase
Encoding: 8222 8222 212
Width: 326
GlyphClass: 2
Flags: W
LayerCount: 2
Fore
SplineSet
5 -44 m 0,0,1
 5 -12 5 -12 25 23.5 c 128,-1,2
 45 59 45 59 68 59 c 0,3,4
 81 59 81 59 90.5 49 c 128,-1,5
 100 39 100 39 100 26 c 1,6,7
 92 17 92 17 85 7.5 c 128,-1,8
 78 -2 78 -2 74 -8 c 128,-1,9
 70 -14 70 -14 62.5 -27 c 128,-1,10
 55 -40 55 -40 53.5 -43.5 c 128,-1,11
 52 -47 52 -47 43 -66 c 128,-1,12
 34 -85 34 -85 32 -88 c 1,13,14
 5 -72 5 -72 5 -44 c 0,0,1
115 -44 m 0,15,16
 115 -12 115 -12 135 23.5 c 128,-1,17
 155 59 155 59 178 59 c 0,18,19
 191 59 191 59 200.5 49 c 128,-1,20
 210 39 210 39 210 26 c 1,21,22
 202 17 202 17 195 7.5 c 128,-1,23
 188 -2 188 -2 184 -8 c 128,-1,24
 180 -14 180 -14 172.5 -27 c 128,-1,25
 165 -40 165 -40 163.5 -43.5 c 128,-1,26
 162 -47 162 -47 153 -66 c 128,-1,27
 144 -85 144 -85 142 -88 c 1,28,29
 115 -72 115 -72 115 -44 c 0,15,16
EndSplineSet
EndChar

StartChar: dagger
Encoding: 8224 8224 213
Width: 405
GlyphClass: 2
Flags: W
LayerCount: 2
Fore
SplineSet
78 295 m 1,0,1
 79 326 79 326 98.5 345.5 c 128,-1,2
 118 365 118 365 137 370.5 c 128,-1,3
 156 376 156 376 171 376 c 0,4,5
 177 376 177 376 189 375.5 c 128,-1,6
 201 375 201 375 207 375 c 1,7,8
 287 586 287 586 334 586 c 0,9,10
 343 586 343 586 351.5 577 c 128,-1,11
 360 568 360 568 360 556 c 0,12,13
 360 526 360 526 292 369 c 1,14,15
 384 360 384 360 412 360 c 1,16,17
 397 339 397 339 382 328 c 128,-1,18
 367 317 367 317 358.5 315.5 c 128,-1,19
 350 314 350 314 337 314 c 0,20,21
 291 314 291 314 266 313 c 1,22,23
 162 80 162 80 96 -27 c 1,24,-1
 84 -23 l 1,25,26
 85 12 85 12 96.5 59.5 c 128,-1,27
 108 107 108 107 119.5 140.5 c 128,-1,28
 131 174 131 174 152 231 c 2,29,-1
 181 309 l 1,30,31
 127 304 127 304 78 295 c 1,0,1
EndSplineSet
EndChar

StartChar: daggerdbl
Encoding: 8225 8225 214
Width: 449
GlyphClass: 2
Flags: W
LayerCount: 2
Fore
SplineSet
53 228 m 1,0,1
 56 310 56 310 200 312 c 1,2,-1
 215 349 l 1,3,4
 169 348 169 348 118 341 c 2,5,-1
 75 335 l 1,6,7
 79 419 79 419 241 419 c 1,8,9
 315 604 315 604 359 604 c 0,10,11
 368 604 368 604 376 595 c 128,-1,12
 384 586 384 586 384 574 c 0,13,14
 384 543 384 543 327 412 c 1,15,16
 417 396 417 396 460 396 c 1,17,18
 428 350 428 350 386 350 c 0,19,20
 364 350 364 350 337.5 349.5 c 128,-1,21
 311 349 311 349 300 349 c 1,22,-1
 280 308 l 1,23,24
 300 306 300 306 350.5 298.5 c 128,-1,25
 401 291 401 291 438 290 c 1,26,27
 405 244 405 244 363 244 c 0,28,29
 333 244 333 244 297.5 243.5 c 128,-1,30
 262 243 262 243 251 243 c 1,31,32
 165 63 165 63 109 -27 c 1,33,34
 109 21 109 21 124.5 79 c 128,-1,35
 140 137 140 137 175 242 c 1,36,37
 121 240 121 240 53 228 c 1,0,1
EndSplineSet
EndChar

StartChar: bullet
Encoding: 8226 8226 215
Width: 272
GlyphClass: 2
Flags: W
LayerCount: 2
Fore
SplineSet
61 158 m 0,0,1
 61 182 61 182 82 206 c 128,-1,2
 103 230 103 230 129 230 c 0,3,4
 154 230 154 230 170.5 214.5 c 128,-1,5
 187 199 187 199 187 177 c 0,6,7
 187 156 187 156 161.5 134.5 c 128,-1,8
 136 113 136 113 109 113 c 0,9,10
 89 113 89 113 75 125.5 c 128,-1,11
 61 138 61 138 61 158 c 0,0,1
EndSplineSet
EndChar

StartChar: ellipsis
Encoding: 8230 8230 216
Width: 549
GlyphClass: 2
Flags: W
LayerCount: 2
Fore
SplineSet
28 28 m 0,0,1
 28 45 28 45 49.5 63 c 128,-1,2
 71 81 71 81 91 81 c 0,3,4
 124 81 124 81 124 50 c 0,5,6
 124 34 124 34 109.5 12 c 128,-1,7
 95 -10 95 -10 72 -10 c 0,8,9
 50 -10 50 -10 39 1.5 c 128,-1,10
 28 13 28 13 28 28 c 0,0,1
177 28 m 0,11,12
 177 45 177 45 198.5 63 c 128,-1,13
 220 81 220 81 240 81 c 0,14,15
 273 81 273 81 273 50 c 0,16,17
 273 34 273 34 258.5 12 c 128,-1,18
 244 -10 244 -10 221 -10 c 0,19,20
 199 -10 199 -10 188 1.5 c 128,-1,21
 177 13 177 13 177 28 c 0,11,12
335 28 m 0,22,23
 335 45 335 45 356.5 63 c 128,-1,24
 378 81 378 81 398 81 c 0,25,26
 431 81 431 81 431 50 c 0,27,28
 431 34 431 34 416.5 12 c 128,-1,29
 402 -10 402 -10 379 -10 c 0,30,31
 357 -10 357 -10 346 1.5 c 128,-1,32
 335 13 335 13 335 28 c 0,22,23
EndSplineSet
EndChar

StartChar: perthousand
Encoding: 8240 8240 217
Width: 1029
GlyphClass: 2
Flags: W
LayerCount: 2
Fore
SplineSet
89 -87 m 1,0,1
 162 -16 162 -16 321.5 257 c 128,-1,2
 481 530 481 530 535 671 c 0,3,4
 541 687 541 687 571 703.5 c 128,-1,5
 601 720 601 720 627 720 c 1,6,7
 615 671 615 671 491.5 436 c 128,-1,8
 368 201 368 201 301 97 c 0,9,10
 242 6 242 6 192.5 -40.5 c 128,-1,11
 143 -87 143 -87 89 -87 c 1,0,1
110 453 m 0,12,13
 110 528 110 528 153.5 599 c 128,-1,14
 197 670 197 670 263 670 c 0,15,16
 306 670 306 670 333 640 c 128,-1,17
 360 610 360 610 360 561 c 0,18,19
 360 488 360 488 315 413.5 c 128,-1,20
 270 339 270 339 204 339 c 0,21,22
 159 339 159 339 134.5 372 c 128,-1,23
 110 405 110 405 110 453 c 0,12,13
181 451 m 0,24,25
 181 391 181 391 210 391 c 0,26,27
 243 391 243 391 268 449.5 c 128,-1,28
 293 508 293 508 293 566 c 0,29,30
 293 620 293 620 265 620 c 0,31,32
 228 620 228 620 204.5 562.5 c 128,-1,33
 181 505 181 505 181 451 c 0,24,25
455 112 m 0,34,35
 455 188 455 188 498 258.5 c 128,-1,36
 541 329 541 329 608 329 c 0,37,38
 651 329 651 329 677.5 299 c 128,-1,39
 704 269 704 269 704 220 c 0,40,41
 704 175 704 175 686 125 c 128,-1,42
 668 75 668 75 631 37 c 128,-1,43
 594 -1 594 -1 549 -1 c 0,44,45
 503 -1 503 -1 479 31.5 c 128,-1,46
 455 64 455 64 455 112 c 0,34,35
525 108 m 0,47,48
 525 51 525 51 554 51 c 0,49,50
 587 51 587 51 612.5 109 c 128,-1,51
 638 167 638 167 638 225 c 0,52,53
 638 280 638 280 609 280 c 0,54,55
 571 280 571 280 548 221.5 c 128,-1,56
 525 163 525 163 525 108 c 0,47,48
743 112 m 0,57,58
 743 188 743 188 786 258.5 c 128,-1,59
 829 329 829 329 896 329 c 0,60,61
 939 329 939 329 965.5 299 c 128,-1,62
 992 269 992 269 992 220 c 0,63,64
 992 175 992 175 974 125 c 128,-1,65
 956 75 956 75 919 37 c 128,-1,66
 882 -1 882 -1 837 -1 c 0,67,68
 791 -1 791 -1 767 31.5 c 128,-1,69
 743 64 743 64 743 112 c 0,57,58
813 108 m 0,70,71
 813 51 813 51 842 51 c 0,72,73
 875 51 875 51 900.5 109 c 128,-1,74
 926 167 926 167 926 225 c 0,75,76
 926 280 926 280 897 280 c 0,77,78
 859 280 859 280 836 221.5 c 128,-1,79
 813 163 813 163 813 108 c 0,70,71
EndSplineSet
EndChar

StartChar: guilsinglleft
Encoding: 8249 8249 218
Width: 324
GlyphClass: 2
Flags: W
LayerCount: 2
Fore
SplineSet
25 158 m 1,0,1
 76 178 76 178 131.5 226.5 c 128,-1,2
 187 275 187 275 221 321 c 1,3,4
 235 304 235 304 235 287 c 0,5,6
 235 228 235 228 76 147 c 1,7,8
 136 104 136 104 239 67 c 1,9,10
 215 41 215 41 195 41 c 0,11,12
 158 41 158 41 96.5 83.5 c 128,-1,13
 35 126 35 126 25 158 c 1,0,1
EndSplineSet
EndChar

StartChar: guilsinglright
Encoding: 8250 8250 219
Width: 338
GlyphClass: 2
Flags: W
LayerCount: 2
Fore
SplineSet
67 67 m 1,0,1
 170 104 170 104 230 147 c 1,2,3
 71 228 71 228 71 285 c 0,4,5
 71 303 71 303 85 321 c 1,6,7
 119 275 119 275 174.5 226.5 c 128,-1,8
 230 178 230 178 281 158 c 1,9,10
 271 126 271 126 209.5 83.5 c 128,-1,11
 148 41 148 41 111 41 c 0,12,13
 91 41 91 41 67 67 c 1,0,1
EndSplineSet
EndChar
